<?xml version="1.0" encoding="utf-8"?>
<!-- Generator: Adobe Illustrator 26.1.0, SVG Export Plug-In . SVG Version: 6.00 Build 0)  -->
<svg version="1.1" id="Layer_1" xmlns="http://www.w3.org/2000/svg" xmlns:xlink="http://www.w3.org/1999/xlink" x="0px" y="0px"
	 viewBox="0 0 334.3 334.3" style="enable-background:new 0 0 334.3 334.3;" xml:space="preserve">
<style type="text/css">
	.st0{opacity:0.1;fill:#8C8C8C;enable-background:new    ;}
	.st1{opacity:0.3;}
	.st2{fill:#B5B5B5;}
	.st3{opacity:0.3;fill:#B5B5B5;enable-background:new    ;}
</style>
<circle class="st0" cx="167.1" cy="167.1" r="167.1"/>
<g class="st1">
	<path class="st2" d="M147.4,53.3c-2.1,3.7-0.4,6.8,3.9,6.8H183c4.3,0,6.1-3,3.9-6.8L171,25.6c-2.1-3.7-5.6-3.7-7.8,0L147.4,53.3z"
		/>
	<path class="st2" d="M186.9,279.7c2.1-3.7,0.4-6.8-3.9-6.8h-31.7c-4.3,0-6.1,3-3.9,6.8l15.9,27.7c2.1,3.7,5.6,3.7,7.8,0
		L186.9,279.7z"/>
	<path class="st2" d="M280.3,146.9c-3.7-2.1-6.8-0.4-6.8,3.9v31.7c0,4.3,3,6.1,6.8,3.9l27.7-15.9c3.7-2.1,3.7-5.6,0-7.8L280.3,146.9
		z"/>
	<path class="st2" d="M54,186.4c3.7,2.1,6.8,0.4,6.8-3.9v-31.7c0-4.3-3-6.1-6.8-3.9l-27.7,15.9c-3.7,2.1-3.7,5.6,0,7.8L54,186.4z"/>
</g>
<circle class="st3" cx="166.6" cy="166.1" r="90.1"/>
</svg>
