<?xml version="1.0" encoding="utf-8"?>
<!-- Generator: Adobe Illustrator 23.0.3, SVG Export Plug-In . SVG Version: 6.00 Build 0)  -->
<svg version="1.1" id="Layer_1" xmlns="http://www.w3.org/2000/svg" xmlns:xlink="http://www.w3.org/1999/xlink" x="0px" y="0px"
	 viewBox="0 0 103.4 103.4" style="enable-background:new 0 0 103.4 103.4;" xml:space="preserve">
<style type="text/css">
	.st0{opacity:0.1;fill:#8C8C8C;enable-background:new    ;}
	.st1{opacity:0.3;}
	.st2{fill:#B5B5B5;}
	.st3{opacity:0.3;fill:#B5B5B5;enable-background:new    ;}
</style>
<circle class="st0" cx="51.7" cy="51.7" r="51.7"/>
<g class="st1">
	<path class="st2" d="M86.7,45.4c-1.2-0.7-2.1-0.1-2.1,1.2v9.8c0,1.3,0.9,1.9,2.1,1.2l8.6-4.9c0.7-0.2,1-0.9,0.8-1.6
		c-0.1-0.4-0.4-0.7-0.8-0.8L86.7,45.4z"/>
	<path class="st2" d="M16.7,57.6c1.1,0.7,2.1,0.1,2.1-1.2v-9.8c0-1.3-0.9-1.9-2.1-1.2l-8.6,4.9c-0.7,0.2-1,1-0.8,1.6
		c0.1,0.4,0.4,0.7,0.8,0.8L16.7,57.6z"/>
</g>
<circle class="st3" cx="51.5" cy="51.4" r="27.9"/>
</svg>
