<?xml version="1.0" encoding="utf-8"?>
<!-- Generator: Adobe Illustrator 26.0.3, SVG Export Plug-In . SVG Version: 6.00 Build 0)  -->
<svg version="1.1" id="Layer_1" xmlns="http://www.w3.org/2000/svg" xmlns:xlink="http://www.w3.org/1999/xlink" x="0px" y="0px"
	 viewBox="0 0 88.9 102.2" style="enable-background:new 0 0 88.9 102.2;" xml:space="preserve">
<style type="text/css">
	.st0{fill:#FFFFFF;}
</style>
<path class="st0" d="M88.9,64.6c0.4-3.4-2-6.4-5.4-6.8c-3.2-0.4-6.2,1.8-6.8,5c-2.9,17.7-19.5,29.6-37.2,26.7S9.9,70,12.8,52.3
	c2.5-15.5,15.8-26.9,31.4-27.2v12c0,0.5,0.5,0.8,0.9,0.8c0.2,0,0.3-0.1,0.5-0.2l24.7-18.2c0.3-0.3,0.4-0.7,0.2-1.1
	c0-0.1-0.1-0.1-0.2-0.2L45.6,0.2c-0.4-0.3-0.9-0.2-1.2,0.2c-0.1,0.1-0.2,0.3-0.2,0.5v12C19.5,13.1-0.3,33.3,0,58
	s20.5,44.5,45.2,44.2C67,102,85.4,86.1,88.9,64.6L88.9,64.6z"/>
</svg>
