<?xml version="1.0" encoding="utf-8"?>
<!-- Generator: Adobe Illustrator 26.0.3, SVG Export Plug-In . SVG Version: 6.00 Build 0)  -->
<svg version="1.1" id="Layer_1" xmlns="http://www.w3.org/2000/svg" xmlns:xlink="http://www.w3.org/1999/xlink" x="0px" y="0px"
	 viewBox="0 0 22.5 25" style="enable-background:new 0 0 22.5 25;" xml:space="preserve">
<style type="text/css">
	.st0{fill:#AAAAAA;}
</style>
<g>
	<path class="st0" d="M3.7,10.2c0.5,0,1-0.2,1.3-0.5l1.9,0.9c0,0.1,0,0.2,0,0.2c0,1,0.9,1.9,1.9,1.9c1,0,1.9-0.9,1.9-1.9
		c0-0.3-0.1-0.6-0.2-0.8L13,7.4c0.3,0.1,0.5,0.2,0.8,0.2c1,0,1.9-0.8,1.9-1.9c0,0,0,0,0-0.1c0-0.2,0-0.4-0.1-0.6l2.2-1.7
		c0.3,0.2,0.7,0.3,1,0.3c1,0,1.9-0.9,1.9-1.9c0-1-0.9-1.9-1.9-1.9S17,0.9,17,1.9c0,0,0,0,0,0c0,0.2,0,0.4,0.1,0.6l-2.3,1.7
		c-0.3-0.2-0.7-0.3-1-0.3c-1,0-1.9,0.9-1.9,1.9c0,0.3,0.1,0.6,0.2,0.8L9.5,9.1C9.3,9,9,8.9,8.7,8.9c-0.5,0-1,0.2-1.3,0.5L5.5,8.5
		c0-0.1,0-0.2,0-0.2c0-1-0.9-1.9-1.9-1.9S1.7,7.2,1.7,8.3C1.7,9.3,2.6,10.2,3.7,10.2L3.7,10.2L3.7,10.2z"/>
	<path class="st0" d="M21.8,23.7h-0.7V9.8c0-0.4-0.3-0.7-0.7-0.7h-2.6c-0.4,0-0.7,0.3-0.7,0.7v13.9h-1.3v-10c0-0.4-0.3-0.7-0.7-0.7
		h-2.6c-0.4,0-0.7,0.3-0.7,0.7v10h-1.3V19c0-0.4-0.3-0.7-0.6-0.7c0,0,0,0,0,0H7.3c-0.4,0-0.7,0.3-0.7,0.6c0,0,0,0,0,0v4.7H5.3v-7.3
		c0-0.4-0.3-0.7-0.6-0.7c0,0,0,0,0,0H2c-0.4,0-0.7,0.3-0.7,0.7v7.3H0.7C0.3,23.7,0,24,0,24.4C0,24.7,0.3,25,0.7,25c0,0,0,0,0,0h21.2
		c0.4,0,0.7-0.3,0.7-0.7C22.5,24,22.2,23.7,21.8,23.7C21.8,23.7,21.8,23.7,21.8,23.7z"/>
</g>
</svg>
