<?xml version="1.0" encoding="utf-8"?>
<!-- Generator: Adobe Illustrator 26.0.3, SVG Export Plug-In . SVG Version: 6.00 Build 0)  -->
<svg version="1.1" id="Layer_1" xmlns="http://www.w3.org/2000/svg" xmlns:xlink="http://www.w3.org/1999/xlink" x="0px" y="0px"
	 viewBox="0 0 26 26.1" style="enable-background:new 0 0 26 26.1;" xml:space="preserve">
<style type="text/css">
	.st0{fill:#AAAAAA;}
</style>
<path class="st0" d="M26,13.1c0-7.2-5.7-13-12.9-13.1S0.1,5.7,0,12.9c0,2.4,0.6,4.7,1.8,6.7l0,0c1.3,2.1,3.1,3.9,5.3,5l0,0
	c6.4,3.2,14.2,0.7,17.4-5.6l0,0C25.5,17.2,26,15.1,26,13.1z M3,17.7c-0.7-1.5-1-3-1-4.6c0-1.4,0.3-2.9,0.8-4.2L6,11.2
	c-0.2,0.6-0.2,1.2-0.2,1.9c0,0.7,0.1,1.5,0.3,2.2L3.9,17L3,17.7z M11.4,18.2L11.4,18.2c-1.4-0.5-2.6-1.6-3.2-3
	c-0.3-0.7-0.4-1.4-0.4-2.1c0-0.6,0.1-1.3,0.4-1.9l0,0c0.5-1.4,1.7-2.6,3.1-3.1c0.6-0.2,1.3-0.3,1.9-0.4c0.7,0,1.3,0.1,1.9,0.4
	c2.8,1.1,4.1,4.1,3.1,6.9c-0.5,1.3-1.6,2.4-2.9,3l0,0c-0.7,0.3-1.4,0.4-2.1,0.4C12.5,18.4,11.9,18.3,11.4,18.2L11.4,18.2z M23.2,8.7
	c0.6,1.4,0.9,2.9,0.9,4.4c0,1.4-0.3,2.7-0.8,4l-3.3-2.3c0.1-0.5,0.2-1.1,0.2-1.7c0-0.7-0.1-1.3-0.3-1.9l2.9-2.2L23.2,8.7z M13,2
	c1.5,0,2.9,0.3,4.2,0.9l-2.3,3.2c-1.3-0.3-2.6-0.3-3.8,0L8.6,2.9C10,2.3,11.5,2,13,2z M13,24.2c-1.4,0-2.7-0.2-4-0.7l2.4-3.3
	c0.5,0.1,1.1,0.2,1.6,0.2c0.7,0,1.5-0.1,2.2-0.3l1.2,1.6l1.2,1.5C16.2,23.8,14.6,24.2,13,24.2z"/>
</svg>
