<?xml version="1.0" encoding="utf-8"?>
<!-- Generator: Adobe Illustrator 26.0.3, SVG Export Plug-In . SVG Version: 6.00 Build 0)  -->
<svg version="1.1" id="Layer_1" xmlns="http://www.w3.org/2000/svg" xmlns:xlink="http://www.w3.org/1999/xlink" x="0px" y="0px"
	 viewBox="0 0 199.1 225.8" style="enable-background:new 0 0 199.1 225.8;" xml:space="preserve">
<style type="text/css">
	.st0{fill:#444444;}
</style>
<path class="st0" d="M190,87.6c-9-16.5-21.4-26.8-36.7-30.6c-17.9-4.5-35.7,1.1-46.6,6c0.6-11.1-0.2-20.9-2.6-29.3
	c4.5,5.9,14,15.7,28.3,17.7c1.7,0.2,3.4,0.3,5.2,0.3c13.4,0,27.3-7.1,41.4-21.2l4.7-4.7l-4.7-4.7C163.1,5.3,147.4-1.7,132.5,0.4
	c-20.3,2.8-31,21.5-31.4,22.3l-0.6,1.1c-2-4.2-4.7-8.1-7.9-11.6c-9.1-10-19.2-11.8-20.3-12l-2,13.1c0.3,0,26.1,4.6,23.1,50.3
	c-10.8-5-29.1-11.1-47.7-6.5C30.4,60.8,18.1,71.1,9,87.6c-8.9,16.2-11.3,36.2-6.9,57.9c4,19.1,12.3,37.1,24.3,52.5
	c14.1,18,30.5,27.9,45.3,27.9c2.6,0,5.2-0.3,7.7-1c7-1.3,13.7-3.5,20.1-6.5c6.4,3.1,13.1,5.3,20.1,6.5c2.5,0.7,5.1,1,7.7,1
	c14.8,0,31.2-10,45.3-27.9c12-15.4,20.3-33.4,24.3-52.5C201.3,123.8,198.9,103.8,190,87.6z"/>
</svg>
