<?xml version="1.0" encoding="utf-8"?>
<!-- Generator: Adobe Illustrator 26.0.3, SVG Export Plug-In . SVG Version: 6.00 Build 0)  -->
<svg version="1.1" id="Layer_1" xmlns="http://www.w3.org/2000/svg" xmlns:xlink="http://www.w3.org/1999/xlink" x="0px" y="0px"
	 viewBox="0 0 236.5 172.3" style="enable-background:new 0 0 236.5 172.3;" xml:space="preserve">
<style type="text/css">
	.st0{fill:#3F3F3F;}
</style>
<g>
	<path class="st0" d="M134.7,67.8c0,13.4,10.9,24.3,24.3,24.3c23.7,0,26-30.7,38.3-43c3.5-3.5,4.9-8.6,3.6-13.4l13.6-13.6l0.4,0.4
		c2.6,2.8,7,2.9,9.8,0.3c2.8-2.6,2.9-7,0.3-9.8c-0.1-0.1-0.2-0.2-0.3-0.3L214.1,2.2c-2.6-2.8-7-2.9-9.8-0.3c-2.8,2.6-2.9,7-0.3,9.8
		c0.1,0.1,0.2,0.2,0.3,0.3l0.4,0.4L191.1,26c-4.8-1.3-9.9,0.1-13.4,3.6C165.4,41.9,134.7,44.1,134.7,67.8z"/>
	<path class="st0" d="M22.2,123h76.3c3.5-3.2,5.6-7.8,5.6-12.5c0-8-6.5-14.6-14.6-14.6c-3.1,0-6.2,1-8.7,2.9
		C74.4,87.5,60,83.5,48.7,90c-3.7,2.1-6.7,5.1-8.8,8.8c-6.5-4.8-15.6-3.4-20.4,3.1c-1.8,2.5-2.8,5.5-2.8,8.6
		C16.7,115.3,18.7,119.8,22.2,123z"/>
	<path class="st0" d="M89.5,82.1c15.7,0,28.4,12.7,28.4,28.4c0,4.6-1,9.1-3,13.3h84.6c7.3-9.5,11.3-21.1,11.4-33.1
		c0-9.4-2.5-18.7-7.2-26.8c-1.4,2.5-2.9,5.5-4.2,8.4c-3.2,6.8-6.9,14.5-12.4,20.8c-7.5,8.6-16.9,12.9-28,12.9
		c-21.1,0-38.2-17.1-38.2-38.2l0,0c0-11.1,4.4-20.4,12.9-28c4.7-3.9,9.9-7.2,15.4-9.8c-3.4-0.4-6.9-0.6-10.3-0.6
		c-19,0-36.9,6.2-50.5,17.5C79.6,54,73.1,63.5,69.5,74.2c5.8,1.5,11.2,4.3,15.7,8.2C86.6,82.2,88,82.1,89.5,82.1L89.5,82.1z"/>
	<path class="st0" d="M229.3,137.6H6.7c-3.8,0.1-6.8,3.4-6.7,7.2c0.1,3.6,3,6.5,6.7,6.7h6.6l2.4,7.3c2.9,7.9,10.3,13.3,18.7,13.5
		h167.1c8.4-0.2,15.9-5.6,18.8-13.5l2.4-7.3h6.6c3.8,0.1,7-2.8,7.2-6.7c0.1-3.8-2.8-7-6.7-7.2C229.6,137.6,229.4,137.6,229.3,137.6z
		"/>
</g>
</svg>
