<?xml version="1.0" encoding="utf-8"?>
<!-- Generator: Adobe Illustrator 26.0.3, SVG Export Plug-In . SVG Version: 6.00 Build 0)  -->
<svg version="1.1" id="Layer_1" xmlns="http://www.w3.org/2000/svg" xmlns:xlink="http://www.w3.org/1999/xlink" x="0px" y="0px"
	 viewBox="0 0 250 152.5" style="enable-background:new 0 0 250 152.5;" xml:space="preserve">
<style type="text/css">
	.st0{fill:#444444;}
</style>
<g>
	<path class="st0" d="M212.6,76.7c-1.4,0-2.8,0.1-4.1,0.2c-3.2-22.5-24-38.2-46.5-35.1c-20.3,2.8-35.4,20.1-35.5,40.6
		c0,2.3,0.2,4.7,0.6,7c-17.1-3.7-34,7-37.9,24l0,0l0,0c-0.5,2.4-0.8,4.8-0.8,7.2v0.1c0.1,17.6,14.3,31.8,31.9,31.8h92.4
		c20.9-0.3,37.6-17.6,37.3-38.5C249.6,93.6,233.1,77.1,212.6,76.7L212.6,76.7z"/>
	<path class="st0" d="M127.6,33.8C120.6,9.1,94.8-5.3,70,1.8C50.5,7.3,36.9,24.9,36.2,45.2C15.4,46-0.8,63.6,0,84.4
		c0.8,20.2,17.4,36.2,37.6,36.2h36.1v-0.1c0-2.4,0.2-4.8,0.6-7.2c0.4-2.5,1-4.9,1.8-7.3c5.4-16.4,19.4-28.4,36.3-31.4
		c1.3-9.5,5.1-18.5,10.9-26.1c1.5-2,3.2-3.8,4.9-5.6c0.5-0.5,1.1-1.1,1.6-1.6c2.4-2.2,4.9-4.2,7.6-5.9
		C134.2,34.5,130.9,34,127.6,33.8z"/>
</g>
</svg>
