<?xml version="1.0" encoding="utf-8"?>
<!-- Generator: Adobe Illustrator 26.0.3, SVG Export Plug-In . SVG Version: 6.00 Build 0)  -->
<svg version="1.1" id="Layer_1" xmlns="http://www.w3.org/2000/svg" xmlns:xlink="http://www.w3.org/1999/xlink" x="0px" y="0px"
	 viewBox="0 0 223.6 224" style="enable-background:new 0 0 223.6 224;" xml:space="preserve">
<style type="text/css">
	.st0{fill:#3F3F3F;}
</style>
<g>
	<path class="st0" d="M147.8,129.7c-10.8-5.9-23.1-4.1-32,4.6c-12.3,11.9-35.7,14.4-48.5,14.8c-3.6,0.1-6.5,3.1-6.4,6.8
		c0,0.5,0.1,1.1,0.2,1.6c4.2,14.9,21.8,29.9,47.4,29.9c13.1,0,25.5-2.9,34.9-8c10.3-5.7,16.4-13.6,17.1-22.5
		C161.9,140.9,154.3,133.3,147.8,129.7L147.8,129.7z"/>
	<path class="st0" d="M181.8,97.5c8.9-10.7,13.8-24.1,13.8-38c0-32.8-26.5-59.5-59.1-59.5S77.4,26.7,77.4,59.5
		c0,18.8,8.9,36.4,24,47.5c-20.4,18.3-53,15-69-6.8c-2.2-2.9-6.3-3.5-9.2-1.4c-0.2,0.2-0.4,0.3-0.6,0.5C8,113.1,0,130,0,147
		c0,42.5,46.3,77,103.3,77c56.7,0,102.8-34.6,102.8-77C206.1,128.7,197.5,111.3,181.8,97.5z M147.5,44.9c0.4-3.6,3.6-6.2,7.2-5.9
		s6.2,3.6,5.9,7.2c-0.4,3.6-3.6,6.2-7.2,5.9c-0.2,0-0.4-0.1-0.6-0.1C149.4,51.3,147.1,48.3,147.5,44.9z M173.6,157.9
		c-1.2,14.5-11,25.8-23.9,32.9c-11.3,6.2-26,9.7-41.2,9.7c-31.2,0-54.1-18.8-60-39.5c-2.9-10.5,3.2-21.3,13.6-24.3
		c1.5-0.4,3.1-0.7,4.7-0.7c18.3-0.6,33.2-4.7,39.8-11.1c12.9-12.5,31.3-15.4,47.4-6.7C167.2,125.4,175.2,139.1,173.6,157.9
		L173.6,157.9z"/>
	<path class="st0" d="M217.9,49.1l-10.2-1.4c2.2,13.3,0.6,26.9-4.5,39.4c12.5-5.4,20.5-17.8,20.4-31.5
		C223.6,52.3,221.2,49.5,217.9,49.1z"/>
</g>
</svg>
