<?xml version="1.0" encoding="utf-8"?>
<!-- Generator: Adobe Illustrator 26.0.3, SVG Export Plug-In . SVG Version: 6.00 Build 0)  -->
<svg version="1.1" id="Layer_1" xmlns="http://www.w3.org/2000/svg" xmlns:xlink="http://www.w3.org/1999/xlink" x="0px" y="0px"
	 viewBox="0 0 216.9 217.1" style="enable-background:new 0 0 216.9 217.1;" xml:space="preserve">
<style type="text/css">
	.st0{fill:#444444;}
</style>
<g>
	<path class="st0" d="M198.9,78.2c-29.5-7.8-52.6-30.9-60.4-60.4c0-0.2,0-0.2-1.2-5.3c0-0.2-0.1-0.3-0.1-0.5
		c-17.6,6.7-32.5,15.9-44.2,27.7C79.9,52.8,69.8,69.9,63,90.6c-4.3,13.5-7.2,27.3-8.6,41.4l-48.7,3.4H5.7H5.3H5l-0.3,0.1l-0.3,0.1
		l-0.2,0.1l-0.4,0.1l-0.2,0.1c-0.1,0.1-0.3,0.1-0.4,0.2l-0.2,0.1l-0.3,0.2l-0.2,0.2l-0.2,0.2L2,136.9L1.8,137
		c-0.1,0.1-0.2,0.2-0.3,0.3l-0.1,0.1l-0.2,0.3L1,138c-0.1,0.1-0.1,0.2-0.2,0.3c-0.1,0.1-0.1,0.2-0.2,0.3l-0.1,0.2
		c-0.1,0.1-0.1,0.2-0.2,0.4v0.1l-0.1,0.2c0,0.1-0.1,0.2-0.1,0.4c0,0.1,0,0.2-0.1,0.2L0,140.4c0,0.1,0,0.2,0,0.3s0,0.2,0,0.3v0.4
		c0,0.1,0,0.2,0,0.2s0,0.3,0,0.4v0.2c0,0,0,0,0,0.1s0,0.2,0,0.4c0,0.1,0,0.2,0,0.3l0.1,0.3c0,0.1,0,0.2,0.1,0.3l0.1,0.2
		c0,0.1,0.1,0.2,0.1,0.4s0,0.1,0.1,0.2s0.1,0.2,0.2,0.4c0,0.1,0.1,0.1,0.1,0.2c0.1,0.1,0.1,0.2,0.2,0.3l0.2,0.2l0.2,0.2
		c0.1,0.1,0.1,0.2,0.2,0.2l0.2,0.2l0.2,0.2l0.2,0.2c0.1,0.1,0.2,0.2,0.3,0.2l0.2,0.2l0.2,0.2l0.3,0.2l0.2,0.1l0.4,0.2l0.1,0.1
		l0.1,0.1l0,0l45.9,19.4l19.7,46.3v0.1l0.1,0.2c0,0.1,0.1,0.2,0.2,0.3l0.1,0.2l0.3,0.4l0,0c0.1,0.2,0.2,0.3,0.4,0.5l0,0l0.4,0.4
		l0.1,0.1l0.4,0.3l0.1,0.1c0.1,0.1,0.3,0.2,0.4,0.3l0.1,0.1l0.3,0.2l0.2,0.1c0.1,0.1,0.2,0.1,0.3,0.1l0.2,0.1l0.5,0.2l0.2,0l0.4,0.1
		h0.2c0.3,0.1,0.7,0.1,1,0.1c0.3,0,0.5,0,0.8,0l0.4-0.1h0.1l0.5-0.1h0.1l0.5-0.2l0,0l0.1-0.1l0.4-0.2l0.2-0.1l0.3-0.2L79,216
		l0.2-0.2l0.3-0.2l0.2-0.2l0.2-0.2l0.2-0.2l0.2-0.2l0.2-0.2l0.1-0.2c0.1-0.1,0.1-0.2,0.2-0.3l0.1-0.2l0.4-0.4c0-0.1,0-0.1,0.1-0.2
		c0-0.1,0.1-0.2,0.1-0.4l0.1-0.2c0-0.1,0.1-0.2,0.1-0.3c0-0.1,0.1-0.2,0.1-0.3c0-0.1,0-0.2,0-0.3c0-0.1,0-0.2,0-0.4c0,0,0,0,0-0.1
		l3.4-49c14-1.4,27.9-4.3,41.3-8.6c20.6-6.8,37.7-16.9,50.8-30c11.7-11.7,20.9-26.4,27.6-43.9L198.9,78.2z"/>
	<path class="st0" d="M216.9,9c-0.1-5-4.1-9-9-9c-16.1-0.1-32.1,1.6-47.8,5.2c-3.6,0.8-7.1,1.7-10.6,2.7c0.1,0.5,0.2,1.1,0.4,1.8
		c0.5,2.2,1,4.4,1.1,4.9c6.7,25,26.2,44.6,51.3,51.3l6.6,1.8c1-3.5,2-7.2,2.9-10.9C215.2,41.1,217,25.1,216.9,9z M188.5,37.4
		c-0.1,0.2-0.3,0.3-0.5,0.4l-0.5,0.4c-0.2,0.1-0.4,0.2-0.5,0.3c-0.2,0.1-0.4,0.2-0.6,0.3l-0.6,0.2c-0.2,0.1-0.4,0.1-0.6,0.2
		l-0.6,0.1c-0.2,0-0.4,0-0.6,0s-0.4,0-0.6,0l-0.6-0.1c-0.2,0-0.4-0.1-0.6-0.2c-0.2-0.1-0.4-0.1-0.6-0.2c-0.2-0.1-0.4-0.2-0.6-0.3
		c-0.2-0.1-0.4-0.2-0.5-0.3c-0.2-0.1-0.3-0.2-0.5-0.4c-0.2-0.1-0.3-0.3-0.5-0.4c-1.2-1.2-1.9-2.8-1.9-4.5c0-0.2,0-0.4,0-0.6
		c0-0.2,0.1-0.4,0.1-0.6s0.1-0.4,0.1-0.6s0.1-0.4,0.2-0.6s0.2-0.4,0.3-0.6s0.2-0.4,0.3-0.5s0.2-0.3,0.4-0.5c0.3-0.3,0.6-0.6,0.9-0.9
		c0.2-0.1,0.3-0.3,0.5-0.4c0.2-0.1,0.3-0.2,0.5-0.3c0.2-0.1,0.4-0.2,0.6-0.3c0.2-0.1,0.4-0.2,0.6-0.2c0.2-0.1,0.4-0.1,0.6-0.2
		c0.2,0,0.4-0.1,0.6-0.1c0.4,0,0.8,0,1.2,0c0.2,0,0.4,0.1,0.6,0.1c0.2,0,0.4,0.1,0.6,0.2c0.2,0.1,0.4,0.1,0.6,0.2s0.4,0.2,0.6,0.3
		c0.2,0.1,0.4,0.2,0.5,0.3L188,28c0.2,0.1,0.3,0.3,0.5,0.4C190.9,30.9,190.9,35,188.5,37.4C188.5,37.5,188.5,37.5,188.5,37.4
		L188.5,37.4z"/>
</g>
</svg>
