<?xml version="1.0" encoding="utf-8"?>
<!-- Generator: Adobe Illustrator 26.0.3, SVG Export Plug-In . SVG Version: 6.00 Build 0)  -->
<svg version="1.1" id="Layer_1" xmlns="http://www.w3.org/2000/svg" xmlns:xlink="http://www.w3.org/1999/xlink" x="0px" y="0px"
	 viewBox="0 0 221.6 197.1" style="enable-background:new 0 0 221.6 197.1;" xml:space="preserve">
<style type="text/css">
	.st0{fill:#3F3F3F;}
</style>
<path class="st0" d="M203.9,19.3C192.5,6.9,176.5-0.1,159.6,0C147,0,134.8,4.2,124.9,12c-5.4,4.2-10.1,9.1-14.1,14.7
	c-4-5.5-8.7-10.5-14.1-14.7C86.8,4.2,74.5-0.1,61.9,0C45-0.1,29,6.9,17.6,19.3C6.2,31.6,0,48.4,0,66.6c0,18.7,7,35.9,22,54
	c13.4,16.2,32.7,32.6,55,51.6c7.6,6.5,16.2,13.9,25.2,21.7c4.9,4.3,12.2,4.3,17.1,0c9-7.8,17.6-15.2,25.2-21.7
	c22.3-19,41.6-35.4,55-51.6c15-18.1,22-35.2,22-54C221.5,48.4,215.3,31.6,203.9,19.3z"/>
</svg>
