<?xml version="1.0" encoding="utf-8"?>
<!-- Generator: Adobe Illustrator 26.0.3, SVG Export Plug-In . SVG Version: 6.00 Build 0)  -->
<svg version="1.1" id="Layer_1" xmlns="http://www.w3.org/2000/svg" xmlns:xlink="http://www.w3.org/1999/xlink" x="0px" y="0px"
	 viewBox="0 0 169.6 189.1" style="enable-background:new 0 0 169.6 189.1;" xml:space="preserve">
<style type="text/css">
	.st0{fill:#3F3F3F;}
</style>
<path class="st0" d="M169,90.5c1.9-5.2-0.7-10.9-5.9-12.8c-1.1-0.4-2.3-0.6-3.5-0.6h-22.3V50.3c0-5.6-4.5-10.1-10.1-10.1h-18.9V10.1
	c0-5.6-4.5-10.1-10.1-10.1c0,0,0,0,0,0H71.4c-5.6,0-10.1,4.5-10.1,10.1v30.2H42.4c-5.6,0-10.1,4.5-10.1,10c0,0,0,0,0,0v26.6H10.1
	C4.5,76.9,0,81.5,0,87c0,1.2,0.2,2.3,0.6,3.5c0,0,28.1,76,28.6,76.7c-3,1.1-6.1,1.7-9.3,1.8c-5.6,0.2-9.9,4.8-9.7,10.4
	c0.2,5.3,4.4,9.6,9.7,9.7c11.7,0,23.1-4.6,32.5-12.9c9.3,8.3,20.7,12.9,32.5,12.9s23.1-4.6,32.4-12.9c9.3,8.3,20.7,12.9,32.4,12.9
	c5.6,0.2,10.2-4.2,10.4-9.7s-4.2-10.2-9.7-10.4c-0.2,0-0.4,0-0.6,0c-3.2,0-6.3-0.6-9.3-1.8C140.9,166.5,169,90.5,169,90.5z
	 M117.1,60.4v16.6H94.9V60.4H117.1z M52.5,60.4h22.3v16.6H52.5V60.4z"/>
</svg>
