<?xml version="1.0" encoding="utf-8"?>
<!-- Generator: Adobe Illustrator 26.0.3, SVG Export Plug-In . SVG Version: 6.00 Build 0)  -->
<svg version="1.1" id="Layer_1" xmlns="http://www.w3.org/2000/svg" xmlns:xlink="http://www.w3.org/1999/xlink" x="0px" y="0px"
	 viewBox="0 0 239.9 239.8" style="enable-background:new 0 0 239.9 239.8;" xml:space="preserve">
<style type="text/css">
	.st0{fill:#444444;}
</style>
<path class="st0" d="M119.9,55.6c-35.5,0-64.4,28.8-64.4,64.4s28.8,64.4,64.4,64.4s64.4-28.8,64.4-64.4
	C184.3,84.4,155.5,55.6,119.9,55.6z"/>
<path class="st0" d="M239.9,87.8l-30.3-19.6l-1.8-36.1l-36.1-1.8L152.1,0l-32.1,16.5L87.8,0L68.2,30.3l-36.1,1.8l-1.8,36.1L0,87.8
	l16.4,32.1L0,152.1l30.3,19.6l1.8,36.1l36.1,1.8l19.6,30.3l32.1-16.5l32.1,16.5l19.6-30.3l36.1-1.8l1.8-36.1l30.3-19.6l-16.4-32.1
	L239.9,87.8z M119.9,198.3c-43.3,0-78.4-35.1-78.4-78.4s35.1-78.4,78.4-78.4s78.4,35.1,78.4,78.4c0,0,0,0,0,0
	C198.3,163.2,163.2,198.3,119.9,198.3z"/>
</svg>
