<?xml version="1.0" encoding="utf-8"?>
<!-- Generator: Adobe Illustrator 26.0.3, SVG Export Plug-In . SVG Version: 6.00 Build 0)  -->
<svg version="1.1" id="Layer_1" xmlns="http://www.w3.org/2000/svg" xmlns:xlink="http://www.w3.org/1999/xlink" x="0px" y="0px"
	 viewBox="0 0 200.6 200.5" style="enable-background:new 0 0 200.6 200.5;" xml:space="preserve">
<style type="text/css">
	.st0{fill:#444444;}
</style>
<g>
	<path class="st0" d="M11.4,87.7c15.6,25.9,33.5,43.3,53,51.6s34.6,5,41.9,2.3l1.1-0.4c-0.4-12.3-3.9-24.3-10.1-34.9
		c-0.6,0-1.3,0-2,0c-14.4,0-52.7-4.6-81.7-50.2l-0.2-0.2L11.8,53c-3.6,6.8-6.4,13.9-8.4,21.3l8,13.2L11.4,87.7L11.4,87.7z"/>
	<path class="st0" d="M181.8,47.2l3.5-0.1c-4-6.4-8.8-12.4-14.1-17.7l-0.3-0.3l-15.2,0.5h-0.1c-64.1,1.2-90.8,31-94.3,56.4
		c10.8,5.8,22.9,8.7,35.2,8.7v-0.1C102.1,84.1,124.9,49.7,181.8,47.2L181.8,47.2z"/>
	<path class="st0" d="M151.7,109.4c-3.2-20.4-13.8-31.2-19.5-35.7c-10.4,6.5-19,15.5-25.1,26.2c6.5,10.5,24.7,47.2-1.6,97.5
		l-1.6,3.1c7.3-0.3,14.6-1.3,21.7-3.1l8.3-13.8C148.9,156.3,155,130.7,151.7,109.4z"/>
	<path class="st0" d="M95,192L95,192c7.4-14.2,10.8-27,12-38.2c-5.9,1.7-12,2.6-18.1,2.6c-10-0.1-20-2.2-29.2-6.2
		C38,140.8,18.3,121.8,1.4,93.8c0,0-0.1-0.1-0.1-0.1l-1-1.6C0.1,94.8,0,97.5,0,100.2c0,51.8,39.4,95,90.9,99.8L95,192z"/>
	<path class="st0" d="M182.3,58.9c-15.9,0.7-28.7,4.1-39,8.7c10.4,9.8,17.6,23.9,20.1,39.9c1.7,12.2,1.2,24.5-1.5,36.5
		c-3.1,14.3-9,29.5-17.7,45.2l-1.1,1.8c49.6-23.5,71.2-82.4,48.5-132.4L182.3,58.9z"/>
	<path class="st0" d="M23.6,50c8.5,13.4,17.9,22.8,27,29.4C53.9,65.1,63,51.5,76,41.3c19.1-14.9,45.8-22.8,79.3-23.4l1.9-0.1
		C117.5-9.7,63.6-4.9,29.4,29.4c-3.8,3.8-7.3,8-10.5,12.4L23.6,50z"/>
</g>
</svg>
