<?xml version="1.0" encoding="utf-8"?>
<!-- Generator: Adobe Illustrator 26.0.3, SVG Export Plug-In . SVG Version: 6.00 Build 0)  -->
<svg version="1.1" id="Layer_1" xmlns="http://www.w3.org/2000/svg" xmlns:xlink="http://www.w3.org/1999/xlink" x="0px" y="0px"
	 viewBox="0 0 225.2 226.2" style="enable-background:new 0 0 225.2 226.2;" xml:space="preserve">
<style type="text/css">
	.st0{fill:#444444;}
</style>
<g>
	<path class="st0" d="M76.4,0C76.4,0,0,88.1,0,149.7c0,41.4,33,75.3,74.4,76.4c0.6,0,1.3,0,1.9,0l0,0c0.6,0,1.2,0,1.8,0h0.5l1.3,0
		h0.5L82,226h0.3c39.8-3.1,70.4-36.3,70.4-76.2C152.8,88.1,76.4,0,76.4,0z M106.3,191.7l-8.2-10.4c11.9-9.5,17.8-21.1,17.2-34.5
		c-0.2-6-1.7-11.9-4.2-17.4l11.7-6.3c3.5,7.2,5.5,15.1,5.8,23.2C129,158.6,125.6,176.4,106.3,191.7z"/>
	<path class="st0" d="M167.7,49.8l-5-5.8l-5,5.8c-0.4,0.5-7.4,8.6-16.4,20.9c16.5,30.5,24.8,57,24.8,79c0,23.8-9.4,46.6-26.3,63.4
		c-2,2-4.2,4-6.4,5.8c30.6,16.1,68.4,4.4,84.5-26.2c4.7-9,7.2-18.9,7.2-29.1C225.1,116.7,170,52.5,167.7,49.8z M192.5,196l-8.2-10.4
		c7.5-5.9,11.2-13.2,11.1-21.5c-0.1-4-1-7.9-2.7-11.5l5.9-3.1l5.8-3.1c2.6,5.2,4,11,4.2,16.8C208.9,172.1,206.4,185,192.5,196
		L192.5,196z"/>
</g>
</svg>
