<?xml version="1.0" encoding="utf-8"?>
<!-- Generator: Adobe Illustrator 26.2.1, SVG Export Plug-In . SVG Version: 6.00 Build 0)  -->
<svg version="1.1" id="Layer_1" xmlns="http://www.w3.org/2000/svg" xmlns:xlink="http://www.w3.org/1999/xlink" x="0px" y="0px"
	 viewBox="0 0 125 249.8" style="enable-background:new 0 0 125 249.8;" xml:space="preserve">
<style type="text/css">
	.st0{fill:#DE5927;}
	.st1{fill:#2F2F2F;}
</style>
<g>
	<path d="M119.9,247.3c-31.6-1.3-61.2-14.6-83.2-37.5c-22.1-22.9-34.2-53.1-34.2-84.9s12.2-62,34.2-84.9
		c22-22.9,51.6-36.2,83.2-37.5l0.1,0c1.4,0,2.5,1.1,2.5,2.5v48.3c0,1.3-1,2.4-2.3,2.5c-36.1,2.5-64.4,32.8-64.4,69.1
		c0,36.2,28.3,66.6,64.4,69.1c1.3,0.1,2.3,1.2,2.3,2.5v48.3c0,0.7-0.3,1.3-0.7,1.8c-0.5,0.5-1.1,0.7-1.7,0.7L119.9,247.3z"/>
	<g>
		<rect x="5" y="122.5" class="st0" width="9.9" height="4.7"/>
	</g>
	<g>
		<rect x="43.4" y="122.5" class="st0" width="9.9" height="4.7"/>
	</g>
	<path class="st1" d="M120,5L120,5l0,48.3c-37.4,2.6-66.8,34-66.8,71.6c0,37.5,29.3,69,66.7,71.6l0,48.3
		c-31-1.3-59.9-14.3-81.5-36.7C16.9,185.6,5,156.1,5,124.9s11.9-60.7,33.5-83.2C60.1,19.3,89,6.3,120,5 M120,0c-0.1,0-0.1,0-0.2,0
		C53.2,2.7,0,57.6,0,124.9s53.2,122.2,119.8,124.9c0.1,0,0.1,0,0.2,0c2.7,0,5-2.2,5-5v-48.3c0-2.6-2-4.8-4.6-5
		c-34.6-2.4-62.1-31.3-62.1-66.6s27.5-64.2,62.1-66.6c2.6-0.2,4.6-2.4,4.6-5V5C125,2.2,122.8,0,120,0L120,0z"/>
</g>
</svg>
