<?xml version="1.0" encoding="utf-8"?>
<!-- Generator: Adobe Illustrator 26.2.1, SVG Export Plug-In . SVG Version: 6.00 Build 0)  -->
<svg version="1.1" id="Layer_1" xmlns="http://www.w3.org/2000/svg" xmlns:xlink="http://www.w3.org/1999/xlink" x="0px" y="0px"
	 viewBox="0 0 58.3 250" style="enable-background:new 0 0 58.3 250;" xml:space="preserve">
<style type="text/css">
	.st0{fill:#2F2F2F;}
	.st1{fill:#DE5826;}
</style>
<g>
	<path d="M5,247.5c-1.4,0-2.5-1.1-2.5-2.5V5c0-1.4,1.1-2.5,2.5-2.5h48.3c1.4,0,2.5,1.1,2.5,2.5v240c0,1.4-1.1,2.5-2.5,2.5H5z"/>
	<path class="st0" d="M53.3,5v240H5V5H53.3 M53.3,0H5C2.2,0,0,2.2,0,5v240c0,2.8,2.2,5,5,5h48.3c2.8,0,5-2.2,5-5V5
		C58.3,2.2,56,0,53.3,0L53.3,0z"/>
</g>
<g>
	<g>
		<rect x="5" y="122.7" class="st1" width="9.9" height="4.7"/>
	</g>
	<g>
		<rect x="43.4" y="122.7" class="st1" width="9.9" height="4.7"/>
	</g>
</g>
</svg>
