<?xml version="1.0" encoding="utf-8"?>
<!-- Generator: Adobe Illustrator 26.0.3, SVG Export Plug-In . SVG Version: 6.00 Build 0)  -->
<svg version="1.1" id="Layer_1" xmlns="http://www.w3.org/2000/svg" xmlns:xlink="http://www.w3.org/1999/xlink" x="0px" y="0px"
	 viewBox="0 0 230.4 230.4" style="enable-background:new 0 0 230.4 230.4;" xml:space="preserve">
<style type="text/css">
	.st0{fill:#444444;}
</style>
<g>
	<path class="st0" d="M51.9,0C38.5,0,27.7,10.9,27.7,24.2s10.9,24.2,24.2,24.2c13.4,0,24.2-10.8,24.2-24.2C76.1,10.8,65.3,0,51.9,0z
		"/>
	<path class="st0" d="M152.3,216.9v-75.8h31.3c13,0,23.6-10.6,23.6-23.6V76.4c0-12.1-9.8-21.9-21.9-21.9s-21.9,9.8-21.9,21.9v21
		h-11.2V39.6c0.3-12.9-10-23.6-22.9-23.9s-23.6,10-23.9,22.9c0,0.3,0,0.6,0,1v74h-8.7v-15c0-12.1-9.8-21.9-21.9-21.9
		S53,86.6,53,98.6v35.1c0,13,10.6,23.6,23.6,23.6h28.9v59.5H0v13.5h230.4v-13.5H152.3z"/>
</g>
</svg>
