<?xml version="1.0" encoding="utf-8"?>
<!-- Generator: Adobe Illustrator 26.0.3, SVG Export Plug-In . SVG Version: 6.00 Build 0)  -->
<svg version="1.1" id="Layer_1" xmlns="http://www.w3.org/2000/svg" xmlns:xlink="http://www.w3.org/1999/xlink" x="0px" y="0px"
	 viewBox="0 0 223.6 158.3" style="enable-background:new 0 0 223.6 158.3;" xml:space="preserve">
<style type="text/css">
	.st0{fill:#3F3F3F;}
</style>
<path class="st0" d="M222.3,49c-1.1-1.3-2.7-2.1-4.4-2.1h-21.8c-5.4-14.2-12.4-28-20.3-33.3c-27.5-18.1-100.5-18.1-128,0
	c-8,5.2-14.9,19.1-20.3,33.3H5.7c-3.2,0-5.7,2.6-5.7,5.7c0,0.4,0,0.8,0.1,1.1l3.2,15.6c0.5,2.7,2.9,4.6,5.6,4.6h6.5
	c-6,7-9.3,16-9.3,25.3c0,11.2,4.2,21.3,12,28.4l0.2,0.2v21.9c0,4.7,3.8,8.6,8.6,8.6h20c4.7,0,8.6-3.8,8.6-8.6c0,0,0,0,0,0v-8.8H168
	v8.8c0,4.7,3.8,8.6,8.6,8.6h20.1c4.7,0,8.6-3.9,8.6-8.6v-21.4c15.3-14.5,16.4-38.5,2.5-54.3h6.9c2.7,0,5.1-1.9,5.6-4.6l3.2-15.6
	C223.8,52,223.4,50.3,222.3,49z M57.2,28c21.9-14.4,87.2-14.4,109.1,0c4.3,2.8,9.7,14.1,14.8,27.9H42.5C47.5,42,53,30.7,57.2,28
	L57.2,28z M31.6,101.3c0-9.3,7.6-16.9,16.9-16.9s16.9,7.6,16.9,16.9c0,9.3-7.6,16.9-16.9,16.9c0,0,0,0,0,0
	C39.2,118.2,31.6,110.7,31.6,101.3C31.6,101.4,31.6,101.4,31.6,101.3z M175.4,118.2c-9.3,0-16.9-7.6-16.9-16.9s7.6-16.9,16.9-16.9
	s16.9,7.6,16.9,16.9C192.3,110.7,184.7,118.2,175.4,118.2C175.4,118.2,175.4,118.2,175.4,118.2L175.4,118.2z"/>
</svg>
