<?xml version="1.0" encoding="utf-8"?>
<!-- Generator: Adobe Illustrator 26.0.3, SVG Export Plug-In . SVG Version: 6.00 Build 0)  -->
<svg version="1.1" id="Layer_1" xmlns="http://www.w3.org/2000/svg" xmlns:xlink="http://www.w3.org/1999/xlink" x="0px" y="0px"
	 viewBox="0 0 225 189.2" style="enable-background:new 0 0 225 189.2;" xml:space="preserve">
<style type="text/css">
	.st0{fill:#3F3F3F;}
</style>
<g>
	<path class="st0" d="M205.4,69.4h-0.6h-0.1c-3.1,0.1-5.9-1.9-6.7-4.9C184.5,17.2,135.2-10.1,88,3.5c-29.5,8.5-52.6,31.5-61,61
		c-0.8,3-3.6,5-6.7,4.9h-0.1h-0.6C8.7,69.4,0,78.2,0,89c0,10,7.6,18.4,17.5,19.4c0.2,0,0.5,0.1,0.7,0.1h188.6
		c0.2-0.1,0.4-0.1,0.7-0.1c10.8-1.1,18.6-10.8,17.4-21.6C223.8,77,215.4,69.4,205.4,69.4L205.4,69.4z"/>
	<path class="st0" d="M151.7,122l-6.5,67.3H168c6.2,0,11.6-4.1,13.2-10.1l15.4-57.1L151.7,122z"/>
	<path class="st0" d="M73.2,122H28.3l15.4,57.1c1.6,6,7,10.1,13.2,10.1h22.8L73.2,122z"/>
	<polygon class="st0" points="86.7,122 93.2,189.2 131.8,189.2 138.2,122 	"/>
</g>
</svg>
