<?xml version="1.0" encoding="utf-8"?>
<!-- Generator: Adobe Illustrator 26.0.3, SVG Export Plug-In . SVG Version: 6.00 Build 0)  -->
<svg version="1.1" id="Layer_1" xmlns="http://www.w3.org/2000/svg" xmlns:xlink="http://www.w3.org/1999/xlink" x="0px" y="0px"
	 viewBox="0 0 238.1 204.8" style="enable-background:new 0 0 238.1 204.8;" xml:space="preserve">
<style type="text/css">
	.st0{fill:#444444;}
</style>
<g>
	<path class="st0" d="M177.7,13.6C171.9,5,163.5,0,154.7,0s-17.2,5-23,13.6c-5.4,7.9-8.4,18.4-8.4,29.4s3,21.4,8.4,29.4
		c5.9,8.6,14.3,13.6,23,13.6s17.2-5,23-13.6c5.4-7.9,8.4-18.4,8.4-29.4S183.1,21.5,177.7,13.6z"/>
	<path class="st0" d="M176.1,118.7c-16-19.4-36.3-30-57-30s-41,10.6-57,30c-14.4,17.4-23,39.3-23,58.6c0,9.4,2.9,16.5,8.5,21.2
		s13,6.2,21.2,6.2c8.8,0,18.5-1.8,28-3.5c8.3-1.5,16.2-3,22.3-3c5.2,0,12.6,1.4,20.5,2.8c18.3,3.4,39,7.2,51-2.7
		c5.7-4.7,8.6-11.8,8.6-21.1C199.1,158,190.5,136.1,176.1,118.7z"/>
	<path class="st0" d="M106.5,13.6C100.6,5,92.2,0,83.5,0s-17.2,5-23,13.6C55.1,21.5,52.1,32,52.1,43s3,21.4,8.4,29.4
		c5.9,8.6,14.2,13.6,23,13.6s17.2-5,23-13.6c5.4-7.9,8.4-18.4,8.4-29.4S111.8,21.5,106.5,13.6z"/>
	<path class="st0" d="M236.8,81c-2.4-8-7.4-13.9-14.3-16.4c-5.7-2.1-12-1.7-17.5,1c-8,3.7-14.5,11.4-17.8,21.1
		c-2.8,7.6-3.1,15.8-1,23.6c2.4,8,7.4,13.9,14.3,16.4c2.4,0.9,4.9,1.3,7.4,1.3c3.5,0,6.9-0.8,10.1-2.3c8-3.7,14.5-11.4,17.8-21.1
		l0,0C238.5,97,238.9,88.8,236.8,81z"/>
	<path class="st0" d="M51,86.7c-3.4-9.7-9.9-17.4-17.8-21.1c-5.5-2.7-11.8-3-17.5-1C8.8,67.2,3.7,73,1.4,81c-2.1,7.8-1.8,16,1,23.6
		l0,0c3.4,9.7,9.9,17.4,17.8,21.1c3.2,1.5,6.6,2.3,10.1,2.3c2.5,0,5-0.4,7.4-1.3c6.8-2.6,11.9-8.4,14.3-16.4
		C54.1,102.4,53.7,94.2,51,86.7z"/>
</g>
</svg>
