<?xml version="1.0" encoding="utf-8"?>
<!-- Generator: Adobe Illustrator 26.0.3, SVG Export Plug-In . SVG Version: 6.00 Build 0)  -->
<svg version="1.1" id="Layer_1" xmlns="http://www.w3.org/2000/svg" xmlns:xlink="http://www.w3.org/1999/xlink" x="0px" y="0px"
	 viewBox="0 0 228.2 132" style="enable-background:new 0 0 228.2 132;" xml:space="preserve">
<style type="text/css">
	.st0{fill:#3F3F3F;}
</style>
<g>
	<path class="st0" d="M201.1,10l-0.2,0.4c-5.6,9.6-17.9,12.8-27.5,7.2c-3-1.7-5.5-4.2-7.2-7.2l-0.2-0.3c-5.7-9.6-18-12.8-27.6-7.1
		c-3,1.7-5.4,4.2-7.2,7.2c-5.6,9.6-18,12.9-27.6,7.2c-3-1.7-5.4-4.2-7.2-7.2L96.3,10C90.7,0.4,78.3-2.9,68.7,2.7
		c-3,1.7-5.5,4.2-7.2,7.2l-0.2,0.4c-5.6,9.6-17.9,12.8-27.5,7.2c-3-1.7-5.5-4.2-7.2-7.2L26.3,10C22.7,3.8,16.1,0,8.9,0
		C6.7,0,4.5,0.4,2.5,1C1,1.5,0,2.9,0,4.4v31.9c2.5-0.7,5.1-1.1,7.7-1l0,0c9.8-0.1,18.9,5.1,23.8,13.6l0.2,0.4
		c3.7,6.3,11.7,8.4,18,4.7c1.9-1.1,3.5-2.7,4.7-4.7l0.2-0.4c7.7-13.1,24.5-17.5,37.6-9.9c4.1,2.4,7.5,5.8,9.9,9.9l0.1,0.2
		c2.3,4,6.7,6.5,11.3,6.5l0,0c4.7,0,9-2.5,11.3-6.5c4.9-8.5,13.9-13.8,23.8-13.7h0.1c9.8-0.1,18.9,5.1,23.8,13.6l0.1,0.3
		c3.7,6.3,11.7,8.4,18,4.7c1.9-1.1,3.5-2.7,4.7-4.7l0.2-0.4c4.9-8.3,13.9-13.4,23.5-13.2c3.1,0,6.1,0.5,9,1.4v-32
		c0-1.5-0.9-2.8-2.3-3.3C217-1.5,206.2,1,201.1,10L201.1,10z"/>
	<path class="st0" d="M208.1,56.1l-0.2,0.4c-4.9,8.5-14,13.7-23.8,13.6l0,0c-9.8,0.1-18.9-5.1-23.8-13.6l-0.2-0.3
		c-2.3-4-6.7-6.5-11.3-6.5l0,0c-4.7,0-9,2.4-11.4,6.5c-4.9,8.5-13.9,13.8-23.7,13.7h-0.1c-9.8,0.1-18.9-5.1-23.8-13.6l-0.1-0.2
		c-3.7-6.3-11.7-8.4-18-4.7c-1.9,1.1-3.5,2.7-4.7,4.7l-0.2,0.4C62,65,52.9,70.2,43.1,70.2l0,0c-9.8,0.1-18.9-5.1-23.8-13.6l-0.2-0.4
		c-3.7-6.3-11.8-8.4-18.1-4.7c-0.4,0.2-0.7,0.4-1.1,0.7V84c2.5-0.7,5.1-1.1,7.7-1.1l0,0c9.8-0.1,18.9,5.1,23.8,13.6l0.2,0.4
		c3.7,6.3,11.7,8.4,18,4.7c1.9-1.1,3.5-2.7,4.7-4.7l0.2-0.4c7.7-13.1,24.5-17.5,37.6-9.9c4.1,2.4,7.5,5.8,9.9,9.9l0.1,0.2
		c2.3,4.1,6.7,6.5,11.4,6.5l0,0c4.7,0,9-2.5,11.3-6.5C129.9,88.2,139,83,148.8,83h0.1c9.8-0.1,18.9,5.1,23.8,13.6l0.1,0.3
		c3.7,6.3,11.7,8.4,18,4.7c1.9-1.1,3.5-2.7,4.7-4.7l0.2-0.4c4.9-8.3,13.9-13.4,23.5-13.2c3.1,0,6.1,0.5,9,1.4V53.1
		c-2.6-2-5.7-3.1-9-3.1C214.6,50,210.4,52.3,208.1,56.1L208.1,56.1z"/>
	<path class="st0" d="M208.1,103.8l-0.2,0.4c-4.9,8.5-14,13.7-23.8,13.6l0,0c-9.8,0.1-18.9-5.1-23.8-13.6l-0.2-0.3
		c-2.3-4-6.7-6.5-11.3-6.5l0,0c-4.7,0-9,2.5-11.3,6.5c-4.9,8.5-14,13.8-23.8,13.7h-0.1c-9.8,0.1-18.9-5.1-23.8-13.6l-0.1-0.2
		c-3.7-6.3-11.7-8.4-18-4.7c-1.9,1.1-3.5,2.7-4.7,4.7l-0.2,0.4c-4.9,8.5-14,13.7-23.8,13.6l0,0c-9.8,0.1-18.9-5.1-23.8-13.6
		l-0.2-0.4C15.4,97.5,7.4,95.4,1.1,99c-0.4,0.2-0.7,0.4-1.1,0.7V123c0,5,4,9,9,9h210.2c5,0,9-4,9-9v-22.3c-2.6-2-5.7-3.1-9-3.1
		C214.7,97.6,210.5,99.9,208.1,103.8L208.1,103.8z"/>
</g>
</svg>
