<?xml version="1.0" encoding="utf-8"?>
<!-- Generator: Adobe Illustrator 26.0.3, SVG Export Plug-In . SVG Version: 6.00 Build 0)  -->
<svg version="1.1" id="Layer_1" xmlns="http://www.w3.org/2000/svg" xmlns:xlink="http://www.w3.org/1999/xlink" x="0px" y="0px"
	 viewBox="0 0 165.6 193.3" style="enable-background:new 0 0 165.6 193.3;" xml:space="preserve">
<style type="text/css">
	.st0{fill:#3F3F3F;}
</style>
<path class="st0" d="M137.5,34.1c11.3-5.8,20.7-14.6,27.2-25.4c1.6-2.7,0.8-6.3-2-7.9c-0.9-0.5-1.9-0.8-3-0.8H5.8C2.6,0,0,2.5,0,5.7
	c0,1,0.3,2.1,0.8,3c6.6,10.8,16,19.7,27.3,25.4c10.2,5.3,21.3,8.4,32.8,9.1V58H33.7c-10.2,0-18.8,7.6-20,17.7L2,170.6
	c-1.3,11.1,6.5,21.1,17.6,22.5c0.8,0.1,1.6,0.1,2.4,0.1h121.5c11.1,0,20.2-9.1,20.1-20.2c0-0.8-0.1-1.6-0.1-2.4l-11.6-94.9
	c-1.2-10.1-9.8-17.7-20-17.7h-27.2V43.2C116.2,42.5,127.3,39.4,137.5,34.1z M130,125.6c0,26.1-21.1,47.2-47.2,47.2
	s-47.2-21.1-47.2-47.2s21.1-47.2,47.2-47.2c0,0,0,0,0,0C108.8,78.5,129.9,99.6,130,125.6z"/>
<path class="st0" d="M82.8,90c-19.7,0-35.7,16-35.7,35.6s16,35.7,35.6,35.7c19.7,0,35.7-16,35.7-35.6c0,0,0,0,0,0
	C118.4,106,102.5,90,82.8,90z M86.9,129.7L73,143.6c-2.2,2.3-5.8,2.5-8.1,0.3c-2.3-2.2-2.5-5.8-0.3-8.1c0.1-0.1,0.2-0.2,0.3-0.3
	l13.9-13.9c2.3-2.2,6-2,8.1,0.3C88.9,124.1,88.9,127.5,86.9,129.7z"/>
</svg>
