<?xml version="1.0" encoding="utf-8"?>
<!-- Generator: Adobe Illustrator 27.5.0, SVG Export Plug-In . SVG Version: 6.00 Build 0)  -->
<svg version="1.1" id="Layer_1" xmlns="http://www.w3.org/2000/svg" xmlns:xlink="http://www.w3.org/1999/xlink" x="0px" y="0px"
	 viewBox="0 0 224.3 225" style="enable-background:new 0 0 224.3 225;" xml:space="preserve">
<style type="text/css">
	.st0{fill:#3F3F3F;}
	.st1{fill:#F3F3F3;}
	.st2{enable-background:new    ;}
</style>
<g>
	<circle class="st0" cx="111.4" cy="111.4" r="111.4"/>
	<path class="st1" d="M204.3,107.7h18c1.1,0,2,0.9,2,2v3.4c0,1.1-0.9,2-2,2h-18c-1.1,0-2-0.9-2-2v-3.4
		C202.3,108.6,203.2,107.7,204.3,107.7z"/>
	<path class="st1" d="M175.1,42.6l12.7-12.7c0.8-0.8,2-0.8,2.8,0l2.4,2.4c0.8,0.8,0.8,2,0,2.8l-12.7,12.7c-0.8,0.8-2,0.8-2.8,0
		l-2.4-2.4C174.3,44.7,174.3,43.4,175.1,42.6z"/>
	<path class="st1" d="M30.4,187.3l12.7-12.7c0.8-0.8,2-0.8,2.8,0l2.4,2.4c0.8,0.8,0.8,2,0,2.8l-12.7,12.7c-0.8,0.8-2,0.8-2.8,0
		l-2.4-2.4C29.6,189.4,29.6,188.1,30.4,187.3z"/>
	<g class="st2">
		<path class="st1" d="M114,33.6H110V17.3c0-2,0-3.5,0.1-4.6c-0.3,0.3-0.6,0.6-1,0.9c-0.4,0.3-1.7,1.4-3.9,3.2l-2-2.6l7.5-5.9h3.4
			V33.6z"/>
	</g>
	<g class="st2">
		<path class="st1" d="M185.2,180.5h-3.4v5.5h-4v-5.5h-11.6v-3.1l11.6-16.7h4v16.5h3.4V180.5z M177.8,177.1v-6.4
			c0-2.3,0.1-4.1,0.2-5.6h-0.1c-0.3,0.8-0.8,1.7-1.5,2.8l-6.3,9.1H177.8z"/>
	</g>
	<g class="st2">
		<path class="st1" d="M110.7,199.2c2.6,0,4.6,0.7,6.1,2s2.2,3.2,2.2,5.5c0,2.7-0.8,4.8-2.5,6.3c-1.7,1.5-4.1,2.3-7.2,2.3
			c-2.8,0-5.1-0.5-6.7-1.4v-3.7c0.9,0.5,2,0.9,3.2,1.2c1.2,0.3,2.3,0.4,3.4,0.4c1.8,0,3.2-0.4,4.2-1.2c1-0.8,1.4-2,1.4-3.6
			c0-3-1.9-4.5-5.8-4.5c-0.5,0-1.2,0.1-2,0.2c-0.8,0.1-1.5,0.2-2.1,0.4l-1.8-1.1l1-12.4h13.2v3.6h-9.6l-0.6,6.3
			c0.4-0.1,0.9-0.1,1.5-0.2S109.8,199.2,110.7,199.2z"/>
	</g>
	<g class="st2">
		<path class="st1" d="M46.5,33.7c2.4,0,4.3,0.6,5.7,1.7c1.4,1.1,2.1,2.6,2.1,4.4c0,2.6-1.6,4.7-4.7,6.2c2,1,3.4,2,4.2,3.1
			c0.8,1.1,1.3,2.3,1.3,3.7c0,2.1-0.8,3.8-2.3,5c-1.5,1.3-3.6,1.9-6.2,1.9c-2.7,0-4.9-0.6-6.4-1.8s-2.3-2.8-2.3-5
			c0-1.4,0.4-2.7,1.2-3.8c0.8-1.1,2.1-2.1,3.9-3c-1.5-0.9-2.7-1.9-3.3-2.9s-1-2.2-1-3.5c0-1.8,0.7-3.3,2.2-4.4
			C42.3,34.3,44.1,33.7,46.5,33.7z M41.8,52.8c0,1.2,0.4,2.1,1.3,2.8c0.8,0.7,2,1,3.4,1c1.5,0,2.6-0.3,3.5-1
			c0.8-0.7,1.2-1.6,1.2-2.8c0-0.9-0.4-1.8-1.1-2.6c-0.8-0.8-1.9-1.5-3.5-2.1l-0.5-0.2c-1.5,0.7-2.6,1.4-3.3,2.2
			C42.1,50.8,41.8,51.8,41.8,52.8z M46.4,36.8c-1.2,0-2.1,0.3-2.8,0.9c-0.7,0.6-1.1,1.3-1.1,2.3c0,0.6,0.1,1.1,0.4,1.6
			c0.3,0.5,0.6,0.9,1.1,1.3c0.5,0.4,1.3,0.9,2.5,1.4c1.4-0.6,2.4-1.3,2.9-1.9s0.9-1.5,0.9-2.4c0-1-0.4-1.8-1.1-2.3
			C48.6,37.1,47.6,36.8,46.4,36.8z"/>
	</g>
	<g class="st2">
		<path class="st1" d="M12.5,123.4l10-21.7H9.3v-3.6h17.5v2.8l-10,22.5H12.5z"/>
	</g>
	<path class="st1" d="M111.2,107.5l35.9-35.9c1.2-1.2,3.1-1.2,4.2,0l1,1c1.2,1.2,1.2,3.1,0,4.2l-35.9,35.9c-1.2,1.2-3.1,1.2-4.2,0
		l-1-1C110.1,110.5,110.1,108.6,111.2,107.5z"/>
	<circle class="st1" cx="111.5" cy="112.4" r="11"/>
</g>
</svg>
