<?xml version="1.0" encoding="utf-8"?>
<!-- Generator: Adobe Illustrator 27.5.0, SVG Export Plug-In . SVG Version: 6.00 Build 0)  -->
<svg version="1.1" id="Layer_1" xmlns="http://www.w3.org/2000/svg" xmlns:xlink="http://www.w3.org/1999/xlink" x="0px" y="0px"
	 viewBox="0 0 224.2 224.2" style="enable-background:new 0 0 224.2 224.2;" xml:space="preserve">
<style type="text/css">
	.st0{fill:#3F3F3F;}
	.st1{fill:#F3F3F3;}
	.st2{enable-background:new    ;}
</style>
<g>
	<circle class="st0" cx="112.8" cy="111.4" r="111.4"/>
	<path class="st1" d="M111.1,202.2h3.4c1.1,0,2,0.9,2,2v18c0,1.1-0.9,2-2,2h-3.4c-1.1,0-2-0.9-2-2v-18
		C109.1,203.1,110,202.2,111.1,202.2z"/>
	<path class="st1" d="M31.8,187.3l12.7-12.7c0.8-0.8,2-0.8,2.8,0l2.4,2.4c0.8,0.8,0.8,2,0,2.8L37,192.5c-0.8,0.8-2,0.8-2.8,0
		l-2.4-2.4C31,189.4,31,188.1,31.8,187.3z"/>
	<path class="st1" d="M73.9,147.6l35.9-35.9c1.2-1.2,3.1-1.2,4.2,0l1,1c1.2,1.2,1.2,3.1,0,4.2l-35.9,35.9c-1.2,1.2-3.1,1.2-4.2,0
		l-1-1C72.7,150.7,72.7,148.8,73.9,147.6z"/>
	<circle class="st1" cx="114.7" cy="112" r="11"/>
	<g class="st2">
		<path class="st1" d="M115.5,33.6h-4.1V17.3c0-2,0-3.5,0.1-4.6c-0.3,0.3-0.6,0.6-1,0.9c-0.4,0.3-1.7,1.4-3.9,3.2l-2-2.6l7.5-5.9
			h3.4V33.6z"/>
	</g>
	<g class="st2">
		<path class="st1" d="M186.6,180.5h-3.4v5.5h-4v-5.5h-11.6v-3.1l11.6-16.7h4v16.5h3.4V180.5z M179.2,177.1v-6.4
			c0-2.3,0.1-4.1,0.2-5.6h-0.1c-0.3,0.8-0.8,1.7-1.5,2.8l-6.3,9.1H179.2z"/>
	</g>
	<g class="st2">
		<path class="st1" d="M47.9,33.7c2.4,0,4.3,0.6,5.7,1.7c1.4,1.1,2.1,2.6,2.1,4.4c0,2.6-1.6,4.7-4.7,6.2c2,1,3.4,2,4.2,3.1
			c0.8,1.1,1.3,2.3,1.3,3.7c0,2.1-0.8,3.8-2.3,5c-1.5,1.3-3.6,1.9-6.2,1.9c-2.7,0-4.9-0.6-6.4-1.8s-2.3-2.8-2.3-5
			c0-1.4,0.4-2.7,1.2-3.8c0.8-1.1,2.1-2.1,3.9-3c-1.5-0.9-2.7-1.9-3.3-2.9s-1-2.2-1-3.5c0-1.8,0.7-3.3,2.2-4.4
			C43.7,34.3,45.6,33.7,47.9,33.7z M43.2,52.8c0,1.2,0.4,2.1,1.3,2.8c0.8,0.7,2,1,3.4,1c1.5,0,2.6-0.3,3.5-1
			c0.8-0.7,1.2-1.6,1.2-2.8c0-0.9-0.4-1.8-1.1-2.6c-0.8-0.8-1.9-1.5-3.5-2.1l-0.5-0.2c-1.5,0.7-2.6,1.4-3.3,2.2
			C43.6,50.8,43.2,51.8,43.2,52.8z M47.9,36.8c-1.2,0-2.1,0.3-2.8,0.9C44.4,38.3,44,39,44,40c0,0.6,0.1,1.1,0.4,1.6
			c0.3,0.5,0.6,0.9,1.1,1.3c0.5,0.4,1.3,0.9,2.5,1.4c1.4-0.6,2.4-1.3,2.9-1.9s0.9-1.5,0.9-2.4c0-1-0.4-1.8-1.1-2.3
			C50,37.1,49.1,36.8,47.9,36.8z"/>
	</g>
	<g class="st2">
		<path class="st1" d="M185.5,59.4h-17.2v-3.1l6.5-6.6c1.9-2,3.2-3.4,3.8-4.2s1.1-1.6,1.4-2.3c0.3-0.7,0.4-1.5,0.4-2.3
			c0-1.1-0.3-2-1-2.7c-0.7-0.7-1.6-1-2.9-1c-1,0-1.9,0.2-2.8,0.5s-2,1-3.1,1.9l-2.2-2.7c1.4-1.2,2.8-2,4.1-2.5
			c1.3-0.5,2.7-0.7,4.2-0.7c2.4,0,4.2,0.6,5.7,1.8c1.4,1.2,2.1,2.9,2.1,5c0,1.1-0.2,2.2-0.6,3.3s-1,2.1-1.9,3.2
			c-0.8,1.1-2.3,2.6-4.2,4.4l-4.4,4.3v0.2h12V59.4z"/>
	</g>
	<g class="st2">
		<path class="st1" d="M215.2,103.9c0,1.6-0.5,2.9-1.4,4c-0.9,1.1-2.3,1.8-4,2.2v0.1c2,0.3,3.6,0.9,4.6,1.9c1,1,1.5,2.4,1.5,4
			c0,2.4-0.9,4.3-2.6,5.6c-1.7,1.3-4.2,2-7.3,2c-2.8,0-5.2-0.5-7.1-1.4v-3.6c1.1,0.5,2.2,0.9,3.4,1.2c1.2,0.3,2.4,0.4,3.5,0.4
			c2,0,3.4-0.4,4.4-1.1c1-0.7,1.5-1.9,1.5-3.4c0-1.4-0.5-2.3-1.6-3c-1.1-0.6-2.8-1-5.1-1h-2.2v-3.3h2.2c4,0,6.1-1.4,6.1-4.2
			c0-1.1-0.4-1.9-1.1-2.5c-0.7-0.6-1.7-0.9-3.1-0.9c-1,0-1.9,0.1-2.8,0.4c-0.9,0.3-1.9,0.8-3.2,1.6l-2-2.8c2.3-1.7,5-2.6,8.1-2.6
			c2.6,0,4.5,0.5,6,1.6S215.2,102,215.2,103.9z"/>
	</g>
	<path class="st1" d="M2,107.7h18c1.1,0,2,0.9,2,2v3.4c0,1.1-0.9,2-2,2H2c-1.1,0-2-0.9-2-2v-3.4C0,108.6,0.9,107.7,2,107.7z"/>
</g>
</svg>
