<?xml version="1.0" encoding="utf-8"?>
<!-- Generator: Adobe Illustrator 27.5.0, SVG Export Plug-In . SVG Version: 6.00 Build 0)  -->
<svg version="1.1" id="Layer_1" xmlns="http://www.w3.org/2000/svg" xmlns:xlink="http://www.w3.org/1999/xlink" x="0px" y="0px"
	 viewBox="0 0 222.8 227" style="enable-background:new 0 0 222.8 227;" xml:space="preserve">
<style type="text/css">
	.st0{fill:#3F3F3F;}
	.st1{fill:#F3F3F3;}
	.st2{enable-background:new    ;}
</style>
<g>
	<circle class="st0" cx="111.4" cy="113.4" r="111.4"/>
	<path class="st1" d="M109.7,0h3.4c1.1,0,2,0.9,2,2v18c0,1.1-0.9,2-2,2h-3.4c-1.1,0-2-0.9-2-2V2C107.7,0.9,108.6,0,109.7,0z"/>
	<path class="st1" d="M175.1,44.6l12.7-12.7c0.8-0.8,2-0.8,2.8,0l2.4,2.4c0.8,0.8,0.8,2,0,2.8l-12.7,12.7c-0.8,0.8-2,0.8-2.8,0
		l-2.4-2.4C174.3,46.7,174.3,45.4,175.1,44.6z"/>
	<path class="st1" d="M30.4,189.3l12.7-12.7c0.8-0.8,2-0.8,2.8,0l2.4,2.4c0.8,0.8,0.8,2,0,2.8l-12.7,12.7c-0.8,0.8-2,0.8-2.8,0
		l-2.4-2.4C29.6,191.4,29.6,190.1,30.4,189.3z"/>
	<g class="st2">
		<path class="st1" d="M46.5,35.7c2.4,0,4.3,0.6,5.7,1.7c1.4,1.1,2.1,2.6,2.1,4.4c0,2.6-1.6,4.7-4.7,6.2c2,1,3.4,2,4.2,3.1
			c0.8,1.1,1.3,2.3,1.3,3.7c0,2.1-0.8,3.8-2.3,5c-1.5,1.3-3.6,1.9-6.2,1.9c-2.7,0-4.9-0.6-6.4-1.8s-2.3-2.8-2.3-5
			c0-1.4,0.4-2.7,1.2-3.8c0.8-1.1,2.1-2.1,3.9-3c-1.5-0.9-2.7-1.9-3.3-2.9s-1-2.2-1-3.5c0-1.8,0.7-3.3,2.2-4.4
			C42.3,36.3,44.1,35.7,46.5,35.7z M41.8,54.8c0,1.2,0.4,2.1,1.3,2.8c0.8,0.7,2,1,3.4,1c1.5,0,2.6-0.3,3.5-1
			c0.8-0.7,1.2-1.6,1.2-2.8c0-0.9-0.4-1.8-1.1-2.6c-0.8-0.8-1.9-1.5-3.5-2.1l-0.5-0.2c-1.5,0.7-2.6,1.4-3.3,2.2
			C42.1,52.8,41.8,53.8,41.8,54.8z M46.4,38.8c-1.2,0-2.1,0.3-2.8,0.9c-0.7,0.6-1.1,1.3-1.1,2.3c0,0.6,0.1,1.1,0.4,1.6
			c0.3,0.5,0.6,0.9,1.1,1.3c0.5,0.4,1.3,0.9,2.5,1.4c1.4-0.6,2.4-1.3,2.9-1.9s0.9-1.5,0.9-2.4c0-1-0.4-1.8-1.1-2.3
			C48.6,39.1,47.6,38.8,46.4,38.8z"/>
	</g>
	<g class="st2">
		<path class="st1" d="M213.8,105.9c0,1.6-0.5,2.9-1.4,4c-0.9,1.1-2.3,1.8-4,2.2v0.1c2,0.3,3.6,0.9,4.6,1.9c1,1,1.5,2.4,1.5,4
			c0,2.4-0.9,4.3-2.6,5.6c-1.7,1.3-4.2,2-7.3,2c-2.8,0-5.2-0.5-7.1-1.4v-3.6c1.1,0.5,2.2,0.9,3.4,1.2c1.2,0.3,2.4,0.4,3.5,0.4
			c2,0,3.4-0.4,4.4-1.1c1-0.7,1.5-1.9,1.5-3.4c0-1.4-0.5-2.3-1.6-3c-1.1-0.6-2.8-1-5.1-1h-2.2v-3.3h2.2c4,0,6.1-1.4,6.1-4.2
			c0-1.1-0.4-1.9-1.1-2.5c-0.7-0.6-1.7-0.9-3.1-0.9c-1,0-1.9,0.1-2.8,0.4c-0.9,0.3-1.9,0.8-3.2,1.6l-2-2.8c2.3-1.7,5-2.6,8.1-2.6
			c2.6,0,4.5,0.5,6,1.6S213.8,104,213.8,105.9z"/>
	</g>
	<g class="st2">
		<path class="st1" d="M185.2,182.5h-3.4v5.5h-4v-5.5h-11.6v-3.1l11.6-16.7h4v16.5h3.4V182.5z M177.8,179.1v-6.4
			c0-2.3,0.1-4.1,0.2-5.6h-0.1c-0.3,0.8-0.8,1.7-1.5,2.8l-6.3,9.1H177.8z"/>
	</g>
	<g class="st2">
		<path class="st1" d="M110.7,201.2c2.6,0,4.6,0.7,6.1,2s2.2,3.2,2.2,5.5c0,2.7-0.8,4.8-2.5,6.3c-1.7,1.5-4.1,2.3-7.2,2.3
			c-2.8,0-5.1-0.5-6.7-1.4v-3.7c0.9,0.5,2,0.9,3.2,1.2c1.2,0.3,2.3,0.4,3.4,0.4c1.8,0,3.2-0.4,4.2-1.2s1.4-2,1.4-3.6
			c0-3-1.9-4.5-5.8-4.5c-0.5,0-1.2,0.1-2,0.2c-0.8,0.1-1.5,0.2-2.1,0.4l-1.8-1.1l1-12.4h13.2v3.6h-9.6l-0.6,6.3
			c0.4-0.1,0.9-0.1,1.5-0.2S109.8,201.2,110.7,201.2z"/>
	</g>
	<g class="st2">
		<path class="st1" d="M14,125.4l10-21.7H10.8v-3.6h17.5v2.8l-10,22.5H14z"/>
	</g>
	<path class="st1" d="M110.7,57.3h1.4c1.7,0,3,1.3,3,3v50.8c0,1.7-1.3,3-3,3h-1.4c-1.7,0-3-1.3-3-3V60.3
		C107.7,58.6,109,57.3,110.7,57.3z"/>
	<circle class="st1" cx="111.4" cy="114.4" r="11"/>
</g>
</svg>
