<?xml version="1.0" encoding="utf-8"?>
<!-- Generator: Adobe Illustrator 27.5.0, SVG Export Plug-In . SVG Version: 6.00 Build 0)  -->
<svg version="1.1" id="Layer_1" xmlns="http://www.w3.org/2000/svg" xmlns:xlink="http://www.w3.org/1999/xlink" x="0px" y="0px"
	 viewBox="0 0 224.2 227" style="enable-background:new 0 0 224.2 227;" xml:space="preserve">
<style type="text/css">
	.st0{fill:#3F3F3F;}
	.st1{fill:#F3F3F3;}
	.st2{enable-background:new    ;}
</style>
<g>
	<circle class="st0" cx="112.8" cy="113.4" r="111.4"/>
	<path class="st1" d="M111.1,0h3.4c1.1,0,2,0.9,2,2v18c0,1.1-0.9,2-2,2h-3.4c-1.1,0-2-0.9-2-2V2C109.1,0.9,110,0,111.1,0z"/>
	<path class="st1" d="M2,109.7h18c1.1,0,2,0.9,2,2v3.4c0,1.1-0.9,2-2,2H2c-1.1,0-2-0.9-2-2v-3.4C0,110.6,0.9,109.7,2,109.7z"/>
	<path class="st1" d="M175.9,179.1l2.4-2.4c0.8-0.8,2-0.8,2.8,0l12.7,12.7c0.8,0.8,0.8,2,0,2.8l-2.4,2.4c-0.8,0.8-2,0.8-2.8,0
		l-12.7-12.7C175.1,181.1,175.1,179.9,175.9,179.1z"/>
	<g class="st2">
		<path class="st1" d="M185.5,61.4h-17.2v-3.1l6.5-6.6c1.9-2,3.2-3.4,3.8-4.2s1.1-1.6,1.4-2.3c0.3-0.7,0.4-1.5,0.4-2.3
			c0-1.1-0.3-2-1-2.7c-0.7-0.7-1.6-1-2.9-1c-1,0-1.9,0.2-2.8,0.5s-2,1-3.1,1.9l-2.2-2.7c1.4-1.2,2.8-2,4.1-2.5
			c1.3-0.5,2.7-0.7,4.2-0.7c2.4,0,4.2,0.6,5.7,1.8c1.4,1.2,2.1,2.9,2.1,5c0,1.1-0.2,2.2-0.6,3.3s-1,2.1-1.9,3.2
			c-0.8,1.1-2.3,2.6-4.2,4.4l-4.4,4.3v0.2h12V61.4z"/>
	</g>
	<g class="st2">
		<path class="st1" d="M215.2,105.9c0,1.6-0.5,2.9-1.4,4c-0.9,1.1-2.3,1.8-4,2.2v0.1c2,0.3,3.6,0.9,4.6,1.9c1,1,1.5,2.4,1.5,4
			c0,2.4-0.9,4.3-2.6,5.6c-1.7,1.3-4.2,2-7.3,2c-2.8,0-5.2-0.5-7.1-1.4v-3.6c1.1,0.5,2.2,0.9,3.4,1.2c1.2,0.3,2.4,0.4,3.5,0.4
			c2,0,3.4-0.4,4.4-1.1c1-0.7,1.5-1.9,1.5-3.4c0-1.4-0.5-2.3-1.6-3c-1.1-0.6-2.8-1-5.1-1h-2.2v-3.3h2.2c4,0,6.1-1.4,6.1-4.2
			c0-1.1-0.4-1.9-1.1-2.5c-0.7-0.6-1.7-0.9-3.1-0.9c-1,0-1.9,0.1-2.8,0.4c-0.9,0.3-1.9,0.8-3.2,1.6l-2-2.8c2.3-1.7,5-2.6,8.1-2.6
			c2.6,0,4.5,0.5,6,1.6S215.2,104,215.2,105.9z"/>
	</g>
	<g class="st2">
		<path class="st1" d="M112.1,201.2c2.6,0,4.6,0.7,6.1,2s2.2,3.2,2.2,5.5c0,2.7-0.8,4.8-2.5,6.3c-1.7,1.5-4.1,2.3-7.2,2.3
			c-2.8,0-5.1-0.5-6.7-1.4v-3.7c0.9,0.5,2,0.9,3.2,1.2c1.2,0.3,2.3,0.4,3.4,0.4c1.8,0,3.2-0.4,4.2-1.2s1.4-2,1.4-3.6
			c0-3-1.9-4.5-5.8-4.5c-0.5,0-1.2,0.1-2,0.2c-0.8,0.1-1.5,0.2-2.1,0.4l-1.8-1.1l1-12.4h13.2v3.6h-9.6l-0.6,6.3
			c0.4-0.1,0.9-0.1,1.5-0.2S111.3,201.2,112.1,201.2z"/>
	</g>
	<g class="st2">
		<path class="st1" d="M38.7,177.2c0-9.9,4-14.9,12.1-14.9c1.3,0,2.3,0.1,3.2,0.3v3.4c-0.9-0.3-1.9-0.4-3.1-0.4
			c-2.7,0-4.8,0.7-6.1,2.2c-1.4,1.5-2.1,3.8-2.2,7h0.2c0.5-0.9,1.3-1.7,2.3-2.2s2.1-0.8,3.5-0.8c2.3,0,4.1,0.7,5.4,2.1
			s1.9,3.3,1.9,5.7c0,2.7-0.7,4.8-2.2,6.3s-3.5,2.3-6.1,2.3c-1.8,0-3.4-0.4-4.7-1.3c-1.3-0.9-2.4-2.1-3.1-3.8
			C39.1,181.5,38.7,179.5,38.7,177.2z M47.6,185c1.4,0,2.5-0.5,3.2-1.4c0.8-0.9,1.1-2.2,1.1-3.9c0-1.5-0.4-2.6-1.1-3.4
			c-0.7-0.8-1.8-1.2-3.2-1.2c-0.9,0-1.7,0.2-2.4,0.6c-0.7,0.4-1.3,0.9-1.8,1.5c-0.4,0.7-0.6,1.3-0.6,2c0,1.6,0.4,3,1.3,4.1
			S46.2,185,47.6,185z"/>
	</g>
	<g class="st2">
		<path class="st1" d="M47.9,35.7c2.4,0,4.3,0.6,5.7,1.7c1.4,1.1,2.1,2.6,2.1,4.4c0,2.6-1.6,4.7-4.7,6.2c2,1,3.4,2,4.2,3.1
			c0.8,1.1,1.3,2.3,1.3,3.7c0,2.1-0.8,3.8-2.3,5c-1.5,1.3-3.6,1.9-6.2,1.9c-2.7,0-4.9-0.6-6.4-1.8s-2.3-2.8-2.3-5
			c0-1.4,0.4-2.7,1.2-3.8c0.8-1.1,2.1-2.1,3.9-3c-1.5-0.9-2.7-1.9-3.3-2.9s-1-2.2-1-3.5c0-1.8,0.7-3.3,2.2-4.4
			C43.7,36.3,45.6,35.7,47.9,35.7z M43.2,54.8c0,1.2,0.4,2.1,1.3,2.8c0.8,0.7,2,1,3.4,1c1.5,0,2.6-0.3,3.5-1
			c0.8-0.7,1.2-1.6,1.2-2.8c0-0.9-0.4-1.8-1.1-2.6c-0.8-0.8-1.9-1.5-3.5-2.1l-0.5-0.2c-1.5,0.7-2.6,1.4-3.3,2.2
			C43.6,52.8,43.2,53.8,43.2,54.8z M47.9,38.8c-1.2,0-2.1,0.3-2.8,0.9C44.4,40.3,44,41,44,42c0,0.6,0.1,1.1,0.4,1.6
			c0.3,0.5,0.6,0.9,1.1,1.3c0.5,0.4,1.3,0.9,2.5,1.4c1.4-0.6,2.4-1.3,2.9-1.9s0.9-1.5,0.9-2.4c0-1-0.4-1.8-1.1-2.3
			C50,39.1,49.1,38.8,47.9,38.8z"/>
	</g>
	<path class="st1" d="M57.6,109.7h50.8c1.7,0,3,1.3,3,3v1.4c0,1.7-1.3,3-3,3H57.6c-1.7,0-3-1.3-3-3v-1.4
		C54.6,111,55.9,109.7,57.6,109.7z"/>
	<circle class="st1" cx="111.7" cy="113.4" r="11"/>
</g>
</svg>
