<?xml version="1.0" encoding="utf-8"?>
<!-- Generator: Adobe Illustrator 27.5.0, SVG Export Plug-In . SVG Version: 6.00 Build 0)  -->
<svg version="1.1" id="Layer_1" xmlns="http://www.w3.org/2000/svg" xmlns:xlink="http://www.w3.org/1999/xlink" x="0px" y="0px"
	 viewBox="0 0 226.8 226.8" style="enable-background:new 0 0 226.8 226.8;" xml:space="preserve">
<style type="text/css">
	.st0{fill:#3F3F3F;}
	.st1{fill:#F3F3F3;}
	.st2{enable-background:new    ;}
</style>
<g>
	<rect x="2.4" y="2.7" class="st0" width="222.8" height="222.8"/>
</g>
<g>
	<path class="st1" d="M113.9,1h3.4c1.1,0,2,0.9,2,2v18c0,1.1-0.9,2-2,2h-3.4c-1.1,0-2-0.9-2-2V3C111.9,1.9,112.8,1,113.9,1z"/>
</g>
<g>
	<path class="st1" d="M74.9,148l35.9-35.9c1.2-1.2,3.1-1.2,4.2,0l1,1c1.2,1.2,1.2,3.1,0,4.2l-35.9,35.9c-1.2,1.2-3.1,1.2-4.2,0l-1-1
		C73.8,151,73.8,149.1,74.9,148z"/>
</g>
<g>
	<circle class="st1" cx="115.8" cy="112.3" r="11"/>
</g>
<g class="st2">
	<path class="st1" d="M13.8,125.4l10-21.7H10.6v-3.6h17.5v2.8l-10,22.5H13.8z"/>
</g>
<g class="st2">
	<path class="st1" d="M217,208.4h-3.4v5.5h-4v-5.5H198v-3.1l11.6-16.7h4V205h3.4V208.4z M209.6,205v-6.4c0-2.3,0.1-4.1,0.2-5.6h-0.1
		c-0.3,0.8-0.8,1.7-1.5,2.8l-6.3,9.1L209.6,205L209.6,205z"/>
</g>
<g>
	<path class="st1" d="M111.2,204.3h3.4c1.1,0,2,0.9,2,2v18c0,1.1-0.9,2-2,2h-3.4c-1.1,0-2-0.9-2-2v-18
		C109.2,205.2,110.1,204.3,111.2,204.3z"/>
</g>
<g class="st2">
	<path class="st1" d="M216,36.7h-17.2v-3.1l6.5-6.6c1.9-2,3.2-3.4,3.8-4.2s1.1-1.6,1.4-2.3c0.3-0.7,0.4-1.5,0.4-2.3
		c0-1.1-0.3-2-1-2.7s-1.6-1-2.9-1c-1,0-1.9,0.2-2.8,0.5s-2,1-3.1,1.9l-2.2-2.7c1.4-1.2,2.8-2,4.1-2.5s2.7-0.7,4.2-0.7
		c2.4,0,4.2,0.6,5.7,1.8c1.4,1.2,2.1,2.9,2.1,5c0,1.1-0.2,2.2-0.6,3.3s-1,2.1-1.9,3.2c-0.8,1.1-2.3,2.6-4.2,4.4l-4.4,4.3v0.2h12
		L216,36.7L216,36.7z"/>
</g>
<g class="st2">
	<path class="st1" d="M217.1,105.9c0,1.6-0.5,2.9-1.4,4s-2.3,1.8-4,2.2v0.1c2,0.3,3.6,0.9,4.6,1.9s1.5,2.4,1.5,4
		c0,2.4-0.9,4.3-2.6,5.6c-1.7,1.3-4.2,2-7.3,2c-2.8,0-5.2-0.5-7.1-1.4v-3.6c1.1,0.5,2.2,0.9,3.4,1.2c1.2,0.3,2.4,0.4,3.5,0.4
		c2,0,3.4-0.4,4.4-1.1s1.5-1.9,1.5-3.4c0-1.4-0.5-2.3-1.6-3c-1.1-0.6-2.8-1-5.1-1h-2.2v-3.3h2.2c4,0,6.1-1.4,6.1-4.2
		c0-1.1-0.4-1.9-1.1-2.5c-0.7-0.6-1.7-0.9-3.1-0.9c-1,0-1.9,0.1-2.8,0.4c-0.9,0.3-1.9,0.8-3.2,1.6l-2-2.8c2.3-1.7,5-2.6,8.1-2.6
		c2.6,0,4.5,0.5,6,1.6S217.1,103.9,217.1,105.9z"/>
</g>
<g class="st2">
	<path class="st1" d="M19.4,11c2.4,0,4.3,0.6,5.7,1.7c1.4,1.1,2.1,2.6,2.1,4.4c0,2.6-1.6,4.7-4.7,6.2c2,1,3.4,2,4.2,3.1
		c0.8,1.1,1.3,2.3,1.3,3.7c0,2.1-0.8,3.8-2.3,5c-1.5,1.3-3.6,1.9-6.2,1.9c-2.7,0-4.9-0.6-6.4-1.8s-2.3-2.8-2.3-5
		c0-1.4,0.4-2.7,1.2-3.8c0.8-1.1,2.1-2.1,3.9-3c-1.5-0.9-2.7-1.9-3.3-2.9s-1-2.2-1-3.5c0-1.8,0.7-3.3,2.2-4.4
		C15.2,11.6,17.1,11,19.4,11z M14.7,30.1c0,1.2,0.4,2.1,1.3,2.8c0.8,0.7,2,1,3.4,1c1.5,0,2.6-0.3,3.5-1c0.8-0.7,1.2-1.6,1.2-2.8
		c0-0.9-0.4-1.8-1.1-2.6c-0.8-0.8-1.9-1.5-3.5-2.1L19,25.1c-1.5,0.7-2.6,1.4-3.3,2.2C15.1,28.2,14.7,29.1,14.7,30.1z M19.4,14.2
		c-1.2,0-2.1,0.3-2.8,0.9c-0.7,0.6-1.1,1.3-1.1,2.3c0,0.6,0.1,1.1,0.4,1.6s0.6,0.9,1.1,1.3s1.3,0.9,2.5,1.4c1.4-0.6,2.4-1.3,2.9-1.9
		s0.9-1.5,0.9-2.4c0-1-0.4-1.8-1.1-2.3C21.5,14.4,20.6,14.2,19.4,14.2z"/>
</g>
<g>
	<path class="st1" d="M1.7,219.6L18.3,203c0.8-0.8,2-0.8,2.8,0l2.4,2.4c0.8,0.8,0.8,2,0,2.8L7,224.8c-0.8,0.8-2,0.8-2.8,0l-2.4-2.4
		C1,221.6,1,220.4,1.7,219.6z"/>
</g>
<g>
	<path class="st0" d="M226.8,226.8H0V0h226.8V226.8z M4,222.8h218.8V4H4V222.8z"/>
</g>
</svg>
