<?xml version="1.0" encoding="utf-8"?>
<!-- Generator: Adobe Illustrator 27.5.0, SVG Export Plug-In . SVG Version: 6.00 Build 0)  -->
<svg version="1.1" id="Layer_1" xmlns="http://www.w3.org/2000/svg" xmlns:xlink="http://www.w3.org/1999/xlink" x="0px" y="0px"
	 viewBox="0 0 226.8 226.8" style="enable-background:new 0 0 226.8 226.8;" xml:space="preserve">
<style type="text/css">
	.st0{fill:#F3F3F3;}
	.st1{fill:#3F3F3F;}
	.st2{enable-background:new    ;}
</style>
<g>
	<rect x="2.4" y="2.7" class="st0" width="222.8" height="222.8"/>
	<path class="st1" d="M227.2,227.5H0.4V0.7h226.8V227.5z M4.4,223.5h218.8V4.7H4.4V223.5z"/>
</g>
<g>
	<path class="st1" d="M113.9,1h3.4c1.1,0,2,0.9,2,2v18c0,1.1-0.9,2-2,2h-3.4c-1.1,0-2-0.9-2-2V3C111.9,1.9,112.8,1,113.9,1z"/>
</g>
<g>
	<path class="st1" d="M205,18l15.6-15.6c0.8-0.8,2-0.8,2.8,0l2.4,2.4c0.8,0.8,0.8,2,0,2.8l-15.6,15.6c-0.8,0.8-2,0.8-2.8,0l-2.4-2.4
		C204.2,20.1,204.2,18.8,205,18z"/>
</g>
<g>
	<path class="st1" d="M4,5.4L6.4,3c0.8-0.8,2-0.8,2.8,0l16.3,16.3c0.8,0.8,0.8,2,0,2.8l-2.4,2.4c-0.8,0.8-2,0.8-2.8,0L4,8.2
		C3.2,7.4,3.2,6.2,4,5.4z"/>
</g>
<g>
	<path class="st1" d="M114.3,57.3h1.4c1.7,0,3,1.3,3,3v50.8c0,1.7-1.3,3-3,3h-1.4c-1.7,0-3-1.3-3-3V60.3
		C111.3,58.6,112.6,57.3,114.3,57.3z"/>
</g>
<g>
	<circle class="st1" cx="115" cy="114.4" r="11"/>
</g>
<g class="st2">
	<path class="st1" d="M13.8,125.4l10-21.7H10.6v-3.6h17.5v2.8l-10,22.5H13.8z"/>
</g>
<g class="st2">
	<path class="st1" d="M217.1,105.9c0,1.6-0.5,2.9-1.4,4s-2.3,1.8-4,2.2v0.1c2,0.3,3.6,0.9,4.6,1.9s1.5,2.4,1.5,4
		c0,2.4-0.9,4.3-2.6,5.6c-1.7,1.3-4.2,2-7.3,2c-2.8,0-5.2-0.5-7.1-1.4v-3.6c1.1,0.5,2.2,0.9,3.4,1.2c1.2,0.3,2.4,0.4,3.5,0.4
		c2,0,3.4-0.4,4.4-1.1s1.5-1.9,1.5-3.4c0-1.4-0.5-2.3-1.6-3c-1.1-0.6-2.8-1-5.1-1h-2.2v-3.3h2.2c4,0,6.1-1.4,6.1-4.2
		c0-1.1-0.4-1.9-1.1-2.5c-0.7-0.6-1.7-0.9-3.1-0.9c-1,0-1.9,0.1-2.8,0.4c-0.9,0.3-1.9,0.8-3.2,1.6l-2-2.8c2.3-1.7,5-2.6,8.1-2.6
		c2.6,0,4.5,0.5,6,1.6S217.1,103.9,217.1,105.9z"/>
</g>
<g class="st2">
	<path class="st1" d="M217,208.4h-3.4v5.5h-4v-5.5H198v-3.1l11.6-16.7h4V205h3.4V208.4z M209.6,205v-6.4c0-2.3,0.1-4.1,0.2-5.6h-0.1
		c-0.3,0.8-0.8,1.7-1.5,2.8l-6.3,9.1L209.6,205L209.6,205z"/>
</g>
<g class="st2">
	<path class="st1" d="M115.2,198.1c2.6,0,4.6,0.7,6.1,2s2.2,3.2,2.2,5.5c0,2.7-0.8,4.8-2.5,6.3s-4.1,2.3-7.2,2.3
		c-2.8,0-5.1-0.5-6.7-1.4v-3.7c0.9,0.5,2,0.9,3.2,1.2s2.3,0.4,3.4,0.4c1.8,0,3.2-0.4,4.2-1.2s1.4-2,1.4-3.6c0-3-1.9-4.5-5.8-4.5
		c-0.5,0-1.2,0.1-2,0.2c-0.8,0.1-1.5,0.2-2.1,0.4l-1.8-1.1l1-12.4h13.2v3.6h-9.6l-0.6,6.3c0.4-0.1,0.9-0.1,1.5-0.2
		S114.3,198.1,115.2,198.1z"/>
</g>
<g class="st2">
	<path class="st1" d="M10.9,203.1c0-9.9,4-14.9,12.1-14.9c1.3,0,2.3,0.1,3.2,0.3v3.4c-0.9-0.3-1.9-0.4-3.1-0.4
		c-2.7,0-4.8,0.7-6.1,2.2c-1.4,1.5-2.1,3.8-2.2,7H15c0.5-0.9,1.3-1.7,2.3-2.2s2.1-0.8,3.5-0.8c2.3,0,4.1,0.7,5.4,2.1
		s1.9,3.3,1.9,5.7c0,2.7-0.7,4.8-2.2,6.3s-3.5,2.3-6.1,2.3c-1.8,0-3.4-0.4-4.7-1.3c-1.3-0.9-2.4-2.1-3.1-3.8
		C11.3,207.5,10.9,205.5,10.9,203.1z M19.8,210.9c1.4,0,2.5-0.5,3.2-1.4c0.8-0.9,1.1-2.2,1.1-3.9c0-1.5-0.4-2.6-1.1-3.4
		c-0.7-0.8-1.8-1.2-3.2-1.2c-0.9,0-1.7,0.2-2.4,0.6c-0.7,0.4-1.3,0.9-1.8,1.5c-0.4,0.7-0.6,1.3-0.6,2c0,1.6,0.4,3,1.3,4.1
		C17.2,210.3,18.4,210.9,19.8,210.9z"/>
</g>
<g>
	<path class="st1" d="M226.8,226.8H0V0h226.8V226.8z M4,222.8h218.8V4H4V222.8z"/>
</g>
</svg>
