<?xml version="1.0" encoding="utf-8"?>
<!-- Generator: Adobe Illustrator 27.5.0, SVG Export Plug-In . SVG Version: 6.00 Build 0)  -->
<svg version="1.1" id="Layer_1" xmlns="http://www.w3.org/2000/svg" xmlns:xlink="http://www.w3.org/1999/xlink" x="0px" y="0px"
	 viewBox="0 0 227.8 227.8" style="enable-background:new 0 0 227.8 227.8;" xml:space="preserve">
<style type="text/css">
	.st0{fill:#F3F3F3;}
	.st1{fill:#3F3F3F;}
	.st2{enable-background:new    ;}
</style>
<g>
	<circle class="st0" cx="113.9" cy="113.9" r="111.4"/>
	<path class="st1" d="M113.9,227.8C51.1,227.8,0,176.7,0,113.9S51.1,0,113.9,0s113.9,51.1,113.9,113.9S176.7,227.8,113.9,227.8z
		 M113.9,5C53.8,5,5,53.8,5,113.9c0,60,48.8,108.9,108.9,108.9S222.8,174,222.8,113.9S173.9,5,113.9,5z"/>
</g>
<g>
	<path class="st1" d="M112.2,204.7h3.4c1.1,0,2,0.9,2,2v18c0,1.1-0.9,2-2,2h-3.4c-1.1,0-2-0.9-2-2v-18
		C110.2,205.6,111.1,204.7,112.2,204.7z"/>
</g>
<g>
	<path class="st1" d="M32.9,189.8l12.7-12.7c0.8-0.8,2-0.8,2.8,0l2.4,2.4c0.8,0.8,0.8,2,0,2.8L38.1,195c-0.8,0.8-2,0.8-2.8,0
		l-2.4-2.4C32.1,191.9,32.1,190.6,32.9,189.8z"/>
</g>
<g>
	<path class="st1" d="M74.9,150.1l35.9-35.9c1.2-1.2,3.1-1.2,4.2,0l1,1c1.2,1.2,1.2,3.1,0,4.2l-35.9,35.9c-1.2,1.2-3.1,1.2-4.2,0
		l-1-1C73.7,153.2,73.7,151.3,74.9,150.1z"/>
</g>
<g>
	<circle class="st1" cx="115.8" cy="114.5" r="11"/>
</g>
<g class="st2">
	<path class="st1" d="M116.5,36.1h-4.1V19.8c0-2,0-3.5,0.1-4.6c-0.3,0.3-0.6,0.6-1,0.9s-1.7,1.4-3.9,3.2l-2-2.6l7.5-5.9h3.4V36.1z"
		/>
</g>
<g class="st2">
	<path class="st1" d="M187.7,183h-3.4v5.5h-4V183h-11.6v-3.1l11.6-16.7h4v16.5h3.4V183z M180.3,179.6v-6.4c0-2.3,0.1-4.1,0.2-5.6
		h-0.1c-0.3,0.8-0.8,1.7-1.5,2.8l-6.3,9.1L180.3,179.6L180.3,179.6z"/>
</g>
<g class="st2">
	<path class="st1" d="M49,36.2c2.4,0,4.3,0.6,5.7,1.7c1.4,1.1,2.1,2.6,2.1,4.4c0,2.6-1.6,4.7-4.7,6.2c2,1,3.4,2,4.2,3.1
		s1.3,2.3,1.3,3.7c0,2.1-0.8,3.8-2.3,5c-1.5,1.3-3.6,1.9-6.2,1.9c-2.7,0-4.9-0.6-6.4-1.8s-2.3-2.8-2.3-5c0-1.4,0.4-2.7,1.2-3.8
		s2.1-2.1,3.9-3c-1.5-0.9-2.7-1.9-3.3-2.9s-1-2.2-1-3.5c0-1.8,0.7-3.3,2.2-4.4C44.8,36.8,46.6,36.2,49,36.2z M44.3,55.3
		c0,1.2,0.4,2.1,1.3,2.8c0.8,0.7,2,1,3.4,1c1.5,0,2.6-0.3,3.5-1c0.8-0.7,1.2-1.6,1.2-2.8c0-0.9-0.4-1.8-1.1-2.6
		c-0.8-0.8-1.9-1.5-3.5-2.1l-0.5-0.2c-1.5,0.7-2.6,1.4-3.3,2.2C44.6,53.3,44.3,54.3,44.3,55.3z M48.9,39.3c-1.2,0-2.1,0.3-2.8,0.9
		c-0.7,0.6-1.1,1.3-1.1,2.3c0,0.6,0.1,1.1,0.4,1.6c0.3,0.5,0.6,0.9,1.1,1.3c0.5,0.4,1.3,0.9,2.5,1.4c1.4-0.6,2.4-1.3,2.9-1.9
		s0.9-1.5,0.9-2.4c0-1-0.4-1.8-1.1-2.3C51.1,39.6,50.1,39.3,48.9,39.3z"/>
</g>
<g class="st2">
	<path class="st1" d="M186.6,61.9h-17.2v-3.1l6.5-6.6c1.9-2,3.2-3.4,3.8-4.2s1.1-1.6,1.4-2.3c0.3-0.7,0.4-1.5,0.4-2.3
		c0-1.1-0.3-2-1-2.7s-1.6-1-2.9-1c-1,0-1.9,0.2-2.8,0.5s-2,1-3.1,1.9l-2.2-2.7c1.4-1.2,2.8-2,4.1-2.5s2.7-0.7,4.2-0.7
		c2.4,0,4.2,0.6,5.7,1.8c1.4,1.2,2.1,2.9,2.1,5c0,1.1-0.2,2.2-0.6,3.3s-1,2.1-1.9,3.2c-0.8,1.1-2.3,2.6-4.2,4.4l-4.4,4.3v0.2h12
		L186.6,61.9L186.6,61.9z"/>
</g>
<g class="st2">
	<path class="st1" d="M216.3,106.4c0,1.6-0.5,2.9-1.4,4s-2.3,1.8-4,2.2v0.1c2,0.3,3.6,0.9,4.6,1.9s1.5,2.4,1.5,4
		c0,2.4-0.9,4.3-2.6,5.6c-1.7,1.3-4.2,2-7.3,2c-2.8,0-5.2-0.5-7.1-1.4v-3.6c1.1,0.5,2.2,0.9,3.4,1.2c1.2,0.3,2.4,0.4,3.5,0.4
		c2,0,3.4-0.4,4.4-1.1s1.5-1.9,1.5-3.4c0-1.4-0.5-2.3-1.6-3c-1.1-0.6-2.8-1-5.1-1h-2.2V111h2.2c4,0,6.1-1.4,6.1-4.2
		c0-1.1-0.4-1.9-1.1-2.5c-0.7-0.6-1.7-0.9-3.1-0.9c-1,0-1.9,0.1-2.8,0.4s-1.9,0.8-3.2,1.6l-2-2.8c2.3-1.7,5-2.6,8.1-2.6
		c2.6,0,4.5,0.5,6,1.6C215.6,103,216.3,104.5,216.3,106.4z"/>
</g>
<g>
	<path class="st1" d="M3,110.2h18c1.1,0,2,0.9,2,2v3.4c0,1.1-0.9,2-2,2H3c-1.1,0-2-0.9-2-2v-3.4C1,111.1,1.9,110.2,3,110.2z"/>
</g>
</svg>
