<?xml version="1.0" encoding="utf-8"?>
<!-- Generator: Adobe Illustrator 27.5.0, SVG Export Plug-In . SVG Version: 6.00 Build 0)  -->
<svg version="1.1" id="Layer_1" xmlns="http://www.w3.org/2000/svg" xmlns:xlink="http://www.w3.org/1999/xlink" x="0px" y="0px"
	 viewBox="0 0 227.8 227.8" style="enable-background:new 0 0 227.8 227.8;" xml:space="preserve">
<style type="text/css">
	.st0{fill:#F3F3F3;stroke:#3F3F3F;stroke-width:5;stroke-miterlimit:10;}
	.st1{fill:#3F3F3F;}
	.st2{enable-background:new    ;}
</style>
<circle class="st0" cx="113.9" cy="113.9" r="111.4"/>
<path class="st1" d="M112.2,0.5h3.4c1.1,0,2,0.9,2,2v18c0,1.1-0.9,2-2,2h-3.4c-1.1,0-2-0.9-2-2v-18C110.2,1.4,111.1,0.5,112.2,0.5z"
	/>
<path class="st1" d="M206.8,110.2h18c1.1,0,2,0.9,2,2v3.4c0,1.1-0.9,2-2,2h-18c-1.1,0-2-0.9-2-2v-3.4
	C204.8,111.1,205.7,110.2,206.8,110.2z"/>
<path class="st1" d="M176.9,179.6l2.4-2.4c0.8-0.8,2-0.8,2.8,0l12.7,12.7c0.8,0.8,0.8,2,0,2.8l-2.4,2.4c-0.8,0.8-2,0.8-2.8,0
	l-12.7-12.7C176.2,181.6,176.2,180.4,176.9,179.6z"/>
<path class="st1" d="M118.8,110.2h50.8c1.7,0,3,1.3,3,3v1.4c0,1.7-1.3,3-3,3h-50.8c-1.7,0-3-1.3-3-3v-1.4
	C115.8,111.5,117.1,110.2,118.8,110.2z"/>
<circle class="st1" cx="115.5" cy="113.9" r="11"/>
<g class="st2">
	<path class="st1" d="M186.6,61.9h-17.2v-3.1l6.5-6.6c1.9-2,3.2-3.4,3.8-4.2c0.6-0.8,1.1-1.6,1.4-2.3c0.3-0.7,0.4-1.5,0.4-2.3
		c0-1.1-0.3-2-1-2.7c-0.7-0.7-1.6-1-2.9-1c-1,0-1.9,0.2-2.8,0.5c-0.9,0.4-2,1-3.1,1.9l-2.2-2.7c1.4-1.2,2.8-2,4.1-2.5
		c1.3-0.5,2.7-0.7,4.2-0.7c2.4,0,4.2,0.6,5.7,1.8s2.1,2.9,2.1,5c0,1.1-0.2,2.2-0.6,3.3c-0.4,1-1,2.1-1.9,3.2
		c-0.8,1.1-2.3,2.6-4.2,4.4l-4.4,4.3v0.2h12V61.9z"/>
</g>
<g class="st2">
	<path class="st1" d="M113.2,201.7c2.6,0,4.6,0.7,6.1,2s2.2,3.2,2.2,5.5c0,2.7-0.8,4.8-2.5,6.3c-1.7,1.5-4.1,2.3-7.2,2.3
		c-2.8,0-5.1-0.5-6.7-1.4v-3.7c0.9,0.5,2,0.9,3.2,1.2c1.2,0.3,2.3,0.4,3.4,0.4c1.8,0,3.2-0.4,4.2-1.2c1-0.8,1.4-2,1.4-3.6
		c0-3-1.9-4.5-5.8-4.5c-0.5,0-1.2,0.1-2,0.2c-0.8,0.1-1.5,0.2-2.1,0.4l-1.8-1.1l1-12.4h13.2v3.6h-9.6l-0.6,6.3
		c0.4-0.1,0.9-0.1,1.5-0.2S112.3,201.7,113.2,201.7z"/>
</g>
<g class="st2">
	<path class="st1" d="M39.8,177.7c0-9.9,4-14.9,12.1-14.9c1.3,0,2.3,0.1,3.2,0.3v3.4c-0.9-0.3-1.9-0.4-3.1-0.4
		c-2.7,0-4.8,0.7-6.1,2.2c-1.4,1.5-2.1,3.8-2.2,7h0.2c0.5-0.9,1.3-1.7,2.3-2.2s2.1-0.8,3.5-0.8c2.3,0,4.1,0.7,5.4,2.1
		s1.9,3.3,1.9,5.7c0,2.7-0.7,4.8-2.2,6.3s-3.5,2.3-6.1,2.3c-1.8,0-3.4-0.4-4.7-1.3c-1.3-0.9-2.4-2.1-3.1-3.8
		C40.1,182,39.8,180,39.8,177.7z M48.6,185.5c1.4,0,2.5-0.5,3.2-1.4c0.8-0.9,1.1-2.2,1.1-3.9c0-1.5-0.4-2.6-1.1-3.4
		c-0.7-0.8-1.8-1.2-3.2-1.2c-0.9,0-1.7,0.2-2.4,0.6c-0.7,0.4-1.3,0.9-1.8,1.5c-0.4,0.7-0.6,1.3-0.6,2c0,1.6,0.4,3,1.3,4.1
		S47.3,185.5,48.6,185.5z"/>
</g>
<g class="st2">
	<path class="st1" d="M16.5,125.9l10-21.7H13.3v-3.6h17.5v2.8l-10,22.5H16.5z"/>
</g>
<g class="st2">
	<path class="st1" d="M49,36.2c2.4,0,4.3,0.6,5.7,1.7c1.4,1.1,2.1,2.6,2.1,4.4c0,2.6-1.6,4.7-4.7,6.2c2,1,3.4,2,4.2,3.1
		c0.8,1.1,1.3,2.3,1.3,3.7c0,2.1-0.8,3.8-2.3,5c-1.5,1.3-3.6,1.9-6.2,1.9c-2.7,0-4.9-0.6-6.4-1.8s-2.3-2.8-2.3-5
		c0-1.4,0.4-2.7,1.2-3.8c0.8-1.1,2.1-2.1,3.9-3c-1.5-0.9-2.7-1.9-3.3-2.9s-1-2.2-1-3.5c0-1.8,0.7-3.3,2.2-4.4
		C44.8,36.8,46.6,36.2,49,36.2z M44.3,55.3c0,1.2,0.4,2.1,1.3,2.8c0.8,0.7,2,1,3.4,1c1.5,0,2.6-0.3,3.5-1c0.8-0.7,1.2-1.6,1.2-2.8
		c0-0.9-0.4-1.8-1.1-2.6c-0.8-0.8-1.9-1.5-3.5-2.1l-0.5-0.2c-1.5,0.7-2.6,1.4-3.3,2.2C44.6,53.3,44.3,54.3,44.3,55.3z M48.9,39.3
		c-1.2,0-2.1,0.3-2.8,0.9c-0.7,0.6-1.1,1.3-1.1,2.3c0,0.6,0.1,1.1,0.4,1.6c0.3,0.5,0.6,0.9,1.1,1.3c0.5,0.4,1.3,0.9,2.5,1.4
		c1.4-0.6,2.4-1.3,2.9-1.9s0.9-1.5,0.9-2.4c0-1-0.4-1.8-1.1-2.3C51.1,39.6,50.1,39.3,48.9,39.3z"/>
</g>
</svg>
