<?xml version="1.0" encoding="utf-8"?>
<!-- Generator: Adobe Illustrator 27.5.0, SVG Export Plug-In . SVG Version: 6.00 Build 0)  -->
<svg version="1.1" id="Layer_1" xmlns="http://www.w3.org/2000/svg" xmlns:xlink="http://www.w3.org/1999/xlink" x="0px" y="0px"
	 viewBox="0 0 226.8 226.8" style="enable-background:new 0 0 226.8 226.8;" xml:space="preserve">
<style type="text/css">
	.st0{fill:#F3F3F3;}
	.st1{fill:#3F3F3F;}
	.st2{enable-background:new    ;}
</style>
<g>
	<rect x="2" y="2" class="st0" width="222.8" height="222.8"/>
	<path class="st1" d="M226.8,226.8H0V0h226.8V226.8z M4,222.8h218.8V4H4V222.8z"/>
</g>
<g>
	<path class="st1" d="M113.5,0.3h3.4c1.1,0,2,0.9,2,2v18c0,1.1-0.9,2-2,2h-3.4c-1.1,0-2-0.9-2-2v-18C111.5,1.2,112.3,0.3,113.5,0.3z
		"/>
</g>
<g>
	<path class="st1" d="M59.2,109.7H110c1.7,0,3,1.3,3,3v1.4c0,1.7-1.3,3-3,3H59.2c-1.7,0-3-1.3-3-3v-1.4
		C56.2,111,57.5,109.7,59.2,109.7z"/>
</g>
<g>
	<circle class="st1" cx="113.3" cy="113.4" r="11"/>
</g>
<g class="st2">
	<path class="st1" d="M10.5,202.4c0-9.9,4-14.9,12.1-14.9c1.3,0,2.3,0.1,3.2,0.3v3.4c-0.9-0.3-1.9-0.4-3.1-0.4
		c-2.7,0-4.8,0.7-6.1,2.2c-1.4,1.5-2.1,3.8-2.2,7h0.2c0.5-0.9,1.3-1.7,2.3-2.2s2.1-0.8,3.5-0.8c2.3,0,4.1,0.7,5.4,2.1
		s1.9,3.3,1.9,5.7c0,2.7-0.7,4.8-2.2,6.3s-3.5,2.3-6.1,2.3c-1.8,0-3.4-0.4-4.7-1.3c-1.3-0.9-2.4-2.1-3.1-3.8
		C10.9,206.8,10.5,204.8,10.5,202.4z M19.3,210.2c1.4,0,2.5-0.5,3.2-1.4c0.8-0.9,1.1-2.2,1.1-3.9c0-1.5-0.4-2.6-1.1-3.4
		c-0.7-0.8-1.8-1.2-3.2-1.2c-0.9,0-1.7,0.2-2.4,0.6c-0.7,0.4-1.3,0.9-1.8,1.5c-0.4,0.7-0.6,1.3-0.6,2c0,1.6,0.4,3,1.3,4.1
		C16.7,209.6,18,210.2,19.3,210.2z"/>
</g>
<g class="st2">
	<path class="st1" d="M215.6,36h-17.2v-3.1l6.5-6.6c1.9-2,3.2-3.4,3.8-4.2s1.1-1.6,1.4-2.3c0.3-0.7,0.4-1.5,0.4-2.3
		c0-1.1-0.3-2-1-2.7s-1.6-1-2.9-1c-1,0-1.9,0.2-2.8,0.5s-2,1-3.1,1.9l-2.2-2.7c1.4-1.2,2.8-2,4.1-2.5s2.7-0.7,4.2-0.7
		c2.4,0,4.2,0.6,5.7,1.8c1.4,1.2,2.1,2.9,2.1,5c0,1.1-0.2,2.2-0.6,3.3s-1,2.1-1.9,3.2c-0.8,1.1-2.3,2.6-4.2,4.4l-4.4,4.3v0.2h12
		L215.6,36L215.6,36z"/>
</g>
<g class="st2">
	<path class="st1" d="M216.7,105.2c0,1.6-0.5,2.9-1.4,4s-2.3,1.8-4,2.2v0.1c2,0.3,3.6,0.9,4.6,1.9s1.5,2.4,1.5,4
		c0,2.4-0.9,4.3-2.6,5.6c-1.7,1.3-4.2,2-7.3,2c-2.8,0-5.2-0.5-7.1-1.4V120c1.1,0.5,2.2,0.9,3.4,1.2c1.2,0.3,2.4,0.4,3.5,0.4
		c2,0,3.4-0.4,4.4-1.1s1.5-1.9,1.5-3.4c0-1.4-0.5-2.3-1.6-3c-1.1-0.6-2.8-1-5.1-1h-2.2V110h2.2c4,0,6.1-1.4,6.1-4.2
		c0-1.1-0.4-1.9-1.1-2.5c-0.7-0.6-1.7-0.9-3.1-0.9c-1,0-1.9,0.1-2.8,0.4c-0.9,0.3-1.9,0.8-3.2,1.6l-2-2.8c2.3-1.7,5-2.6,8.1-2.6
		c2.6,0,4.5,0.5,6,1.6S216.7,103.2,216.7,105.2z"/>
</g>
<g class="st2">
	<path class="st1" d="M216.6,207.7h-3.4v5.5h-4v-5.5h-11.6v-3.1l11.6-16.7h4v16.5h3.4V207.7z M209.2,204.3V198
		c0-2.3,0.1-4.1,0.2-5.6h-0.1c-0.3,0.8-0.8,1.7-1.5,2.8l-6.3,9.1H209.2z"/>
</g>
<g class="st2">
	<path class="st1" d="M114.7,197.4c2.6,0,4.6,0.7,6.1,2s2.2,3.2,2.2,5.5c0,2.7-0.8,4.8-2.5,6.3s-4.1,2.3-7.2,2.3
		c-2.8,0-5.1-0.5-6.7-1.4v-3.7c0.9,0.5,2,0.9,3.2,1.2s2.3,0.4,3.4,0.4c1.8,0,3.2-0.4,4.2-1.2s1.4-2,1.4-3.6c0-3-1.9-4.5-5.8-4.5
		c-0.5,0-1.2,0.1-2,0.2c-0.8,0.1-1.5,0.2-2.1,0.4l-1.8-1.1l1-12.4h13.2v3.6h-9.6l-0.6,6.3c0.4-0.1,0.9-0.1,1.5-0.2
		S113.9,197.4,114.7,197.4z"/>
</g>
<g>
	<path class="st1" d="M2.6,109h18c1.1,0,2,0.9,2,2v3.4c0,1.1-0.9,2-2,2h-18c-1.1,0-2-0.9-2-2V111C0.6,109.9,1.5,109,2.6,109z"/>
</g>
<g>
	<path class="st1" d="M1.8,3.8l2.4-2.4c0.8-0.8,2-0.8,2.8,0l16.3,16.3c0.8,0.8,0.8,2,0,2.8l-2.4,2.4c-0.8,0.8-2,0.8-2.8,0L1.8,6.6
		C1,5.8,1,4.5,1.8,3.8z"/>
</g>
<g>
	<path class="st1" d="M226.3,226.1H-0.4V-0.7h226.8v226.8H226.3z M3.6,222.1h218.8V3.3H3.6V222.1z"/>
</g>
</svg>
