<?xml version="1.0" encoding="utf-8"?>
<!-- Generator: Adobe Illustrator 26.0.3, SVG Export Plug-In . SVG Version: 6.00 Build 0)  -->
<svg version="1.1" id="Layer_1" xmlns="http://www.w3.org/2000/svg" xmlns:xlink="http://www.w3.org/1999/xlink" x="0px" y="0px"
	 viewBox="0 0 197.4 197.5" style="enable-background:new 0 0 197.4 197.5;" xml:space="preserve">
<style type="text/css">
	.st0{fill:#3A3A3A;}
</style>
<g>
	<g>
		<path class="st0" d="M168.5,28.9C130-9.6,67.5-9.6,28.9,28.9C-9.6,67.5-9.6,130,28.9,168.6c38.6,38.6,101.1,38.6,139.6,0
			C207.1,130,207.1,67.5,168.5,28.9z M37.8,159.7c-33.1-33.1-33.1-86.9,0-120s86.9-33.1,120,0s33.1,86.9,0,120
			C124.6,192.9,70.9,192.9,37.8,159.7z"/>
		
			<rect x="90.5" y="12" transform="matrix(0.7071 -0.7071 0.7071 0.7071 -41.8718 98.1156)" class="st0" width="14" height="175.2"/>
	</g>
</g>
</svg>
