<?xml version="1.0" encoding="utf-8"?>
<!-- Generator: Adobe Illustrator 26.1.0, SVG Export Plug-In . SVG Version: 6.00 Build 0)  -->
<svg version="1.1" id="Layer_1" xmlns="http://www.w3.org/2000/svg" xmlns:xlink="http://www.w3.org/1999/xlink" x="0px" y="0px"
	 viewBox="0 0 252 252" style="enable-background:new 0 0 252 252;" xml:space="preserve">
<style type="text/css">
	.st0{fill:#FFFFFF;}
	.st1{fill:#DB7E21;}
</style>
<g>
	<g>
		<line class="st0" x1="126" y1="121.2" x2="126" y2="1.3"/>
		<path class="st1" d="M126,123.2c-1.1,0-2-0.9-2-2v-14c0-1.1,0.9-2,2-2s2,0.9,2,2v14C128,122.3,127.1,123.2,126,123.2z M126,95.2
			c-1.1,0-2-0.9-2-2v-14c0-1.1,0.9-2,2-2s2,0.9,2,2v14C128,94.3,127.1,95.2,126,95.2z M126,67.2c-1.1,0-2-0.9-2-2v-14
			c0-1.1,0.9-2,2-2s2,0.9,2,2v14C128,66.3,127.1,67.2,126,67.2z M126,39.2c-1.1,0-2-0.9-2-2v-14c0-1.1,0.9-2,2-2s2,0.9,2,2v14
			C128,38.3,127.1,39.2,126,39.2z M126,11.2c-1.1,0-2-0.9-2-2V1.3c0-1.1,0.9-2,2-2s2,0.9,2,2v7.9C128,10.3,127.1,11.2,126,11.2z"/>
	</g>
	<g>
		<line class="st0" x1="121.2" y1="126" x2="1.3" y2="126"/>
		<path class="st1" d="M121.2,128h-14c-1.1,0-2-0.9-2-2s0.9-2,2-2h14c1.1,0,2,0.9,2,2S122.3,128,121.2,128z M93.2,128h-14
			c-1.1,0-2-0.9-2-2s0.9-2,2-2h14c1.1,0,2,0.9,2,2S94.3,128,93.2,128z M65.2,128h-14c-1.1,0-2-0.9-2-2s0.9-2,2-2h14c1.1,0,2,0.9,2,2
			S66.3,128,65.2,128z M37.2,128h-14c-1.1,0-2-0.9-2-2s0.9-2,2-2h14c1.1,0,2,0.9,2,2S38.3,128,37.2,128z M9.2,128H1.3
			c-1.1,0-2-0.9-2-2s0.9-2,2-2h7.9c1.1,0,2,0.9,2,2S10.3,128,9.2,128z"/>
	</g>
	<g>
		<line class="st0" x1="126" y1="130.8" x2="126" y2="250.7"/>
		<path class="st1" d="M126,252.7c-1.1,0-2-0.9-2-2v-7.9c0-1.1,0.9-2,2-2s2,0.9,2,2v7.9C128,251.8,127.1,252.7,126,252.7z
			 M126,230.8c-1.1,0-2-0.9-2-2v-14c0-1.1,0.9-2,2-2s2,0.9,2,2v14C128,230,127.1,230.8,126,230.8z M126,202.8c-1.1,0-2-0.9-2-2v-14
			c0-1.1,0.9-2,2-2s2,0.9,2,2v14C128,202,127.1,202.8,126,202.8z M126,174.8c-1.1,0-2-0.9-2-2v-14c0-1.1,0.9-2,2-2s2,0.9,2,2v14
			C128,174,127.1,174.8,126,174.8z M126,146.8c-1.1,0-2-0.9-2-2v-14c0-1.1,0.9-2,2-2s2,0.9,2,2v14C128,146,127.1,146.8,126,146.8z"
			/>
	</g>
	<g>
		<line class="st0" x1="130.8" y1="126" x2="250.7" y2="126"/>
		<path class="st1" d="M250.7,128h-7.9c-1.1,0-2-0.9-2-2s0.9-2,2-2h7.9c1.1,0,2,0.9,2,2S251.8,128,250.7,128z M228.8,128h-14
			c-1.1,0-2-0.9-2-2s0.9-2,2-2h14c1.1,0,2,0.9,2,2S230,128,228.8,128z M200.8,128h-14c-1.1,0-2-0.9-2-2s0.9-2,2-2h14
			c1.1,0,2,0.9,2,2S202,128,200.8,128z M172.8,128h-14c-1.1,0-2-0.9-2-2s0.9-2,2-2h14c1.1,0,2,0.9,2,2S174,128,172.8,128z
			 M144.8,128h-14c-1.1,0-2-0.9-2-2s0.9-2,2-2h14c1.1,0,2,0.9,2,2S146,128,144.8,128z"/>
	</g>
</g>
</svg>
