<svg xmlns="http://www.w3.org/2000/svg" xmlns:xlink="http://www.w3.org/1999/xlink" viewBox="0 0 67.98 74.58"><defs><style>.cls-1{isolation:isolate;}.cls-2,.cls-34,.cls-7{fill:#b1b1b1;}.cls-3{fill:url(#linear-gradient);}.cls-4{fill:url(#linear-gradient-2);}.cls-5{fill:url(#linear-gradient-3);}.cls-6{fill:url(#linear-gradient-4);}.cls-7{opacity:0.5;}.cls-14,.cls-26,.cls-27,.cls-34,.cls-7{mix-blend-mode:multiply;}.cls-8{fill:url(#linear-gradient-5);}.cls-9{fill:url(#linear-gradient-6);}.cls-10{fill:url(#linear-gradient-7);}.cls-11{fill:url(#linear-gradient-8);}.cls-12{fill:url(#linear-gradient-9);}.cls-13{fill:url(#linear-gradient-10);}.cls-14{opacity:0.7;}.cls-15{fill:url(#linear-gradient-11);}.cls-16{fill:url(#linear-gradient-12);}.cls-17{fill:url(#linear-gradient-13);}.cls-18{fill:url(#linear-gradient-14);}.cls-19{fill:url(#linear-gradient-15);}.cls-20{fill:url(#linear-gradient-16);}.cls-21{fill:url(#linear-gradient-17);}.cls-22{fill:url(#linear-gradient-18);}.cls-23{fill:url(#linear-gradient-19);}.cls-24{fill:url(#linear-gradient-20);}.cls-25{fill:url(#linear-gradient-21);}.cls-103,.cls-26{fill:#34424c;}.cls-28{fill:url(#linear-gradient-22);}.cls-29{fill:url(#linear-gradient-23);}.cls-30{fill:#1d1d1b;}.cls-31{fill:url(#linear-gradient-24);}.cls-32{fill:url(#linear-gradient-25);}.cls-33{fill:url(#linear-gradient-26);}.cls-35{fill:url(#linear-gradient-27);}.cls-36{fill:url(#linear-gradient-28);}.cls-37{fill:url(#linear-gradient-29);}.cls-38{fill:url(#linear-gradient-30);}.cls-39{fill:url(#linear-gradient-31);}.cls-40{fill:url(#linear-gradient-32);}.cls-41{fill:url(#linear-gradient-33);}.cls-42{fill:url(#linear-gradient-34);}.cls-43{fill:url(#linear-gradient-35);}.cls-44{fill:url(#linear-gradient-36);}.cls-45{fill:url(#linear-gradient-37);}.cls-46{fill:url(#linear-gradient-38);}.cls-47{fill:url(#linear-gradient-39);}.cls-48{fill:url(#linear-gradient-40);}.cls-49{fill:url(#linear-gradient-41);}.cls-50{fill:url(#linear-gradient-42);}.cls-51{fill:url(#linear-gradient-43);}.cls-52{fill:url(#linear-gradient-44);}.cls-53{fill:url(#linear-gradient-45);}.cls-54{fill:url(#linear-gradient-46);}.cls-55{fill:url(#linear-gradient-47);}.cls-56{fill:url(#linear-gradient-48);}.cls-57{fill:url(#linear-gradient-49);}.cls-58{fill:url(#linear-gradient-50);}.cls-59{fill:url(#linear-gradient-51);}.cls-60{fill:url(#linear-gradient-52);}.cls-61{fill:url(#linear-gradient-53);}.cls-62{fill:url(#linear-gradient-54);}.cls-63{fill:url(#linear-gradient-55);}.cls-64{fill:url(#linear-gradient-56);}.cls-65{fill:url(#linear-gradient-57);}.cls-66{fill:url(#linear-gradient-58);}.cls-67{fill:url(#linear-gradient-59);}.cls-68{fill:url(#linear-gradient-60);}.cls-69{fill:url(#linear-gradient-61);}.cls-70{fill:url(#linear-gradient-62);}.cls-71{fill:url(#linear-gradient-63);}.cls-72{fill:url(#linear-gradient-64);}.cls-73{fill:url(#linear-gradient-65);}.cls-74{fill:url(#linear-gradient-66);}.cls-75{fill:url(#linear-gradient-67);}.cls-76{fill:url(#linear-gradient-68);}.cls-77{fill:url(#linear-gradient-69);}.cls-78{fill:url(#linear-gradient-70);}.cls-79{fill:url(#linear-gradient-71);}.cls-80{fill:url(#linear-gradient-72);}.cls-81{fill:url(#linear-gradient-73);}.cls-82{fill:url(#linear-gradient-74);}.cls-83{fill:url(#linear-gradient-75);}.cls-84{fill:url(#linear-gradient-76);}.cls-85{fill:url(#linear-gradient-77);}.cls-86{fill:url(#linear-gradient-78);}.cls-87{fill:url(#linear-gradient-79);}.cls-88{fill:url(#linear-gradient-80);}.cls-89{fill:url(#linear-gradient-81);}.cls-90{fill:url(#linear-gradient-82);}.cls-91{fill:url(#linear-gradient-83);}.cls-92{fill:url(#linear-gradient-84);}.cls-93{fill:url(#linear-gradient-85);}.cls-94{fill:url(#linear-gradient-86);}.cls-95{fill:url(#linear-gradient-87);}.cls-96{fill:url(#linear-gradient-88);}.cls-97{fill:url(#linear-gradient-89);}.cls-98{fill:url(#linear-gradient-90);}.cls-99{fill:url(#linear-gradient-91);}.cls-100{fill:url(#linear-gradient-92);}.cls-101{fill:url(#linear-gradient-93);}.cls-102{fill:url(#linear-gradient-94);}.cls-104{fill:url(#linear-gradient-95);}.cls-105{fill:url(#linear-gradient-96);}</style><linearGradient id="linear-gradient" x1="5097.5" y1="231.81" x2="5097.5" y2="228.55" gradientTransform="translate(-207.5 5120.28) rotate(-90)" gradientUnits="userSpaceOnUse"><stop offset="0" stop-color="#868686"/><stop offset="0.11" stop-color="#d8d8d7"/><stop offset="0.22" stop-color="#575756"/><stop offset="0.35" stop-color="#6f6f6e"/><stop offset="0.55" stop-color="#d9d9d9"/><stop offset="0.84" stop-color="#fff"/><stop offset="1" stop-color="#9c9b9b"/></linearGradient><linearGradient id="linear-gradient-2" x1="5090.34" y1="229.21" x2="5090.34" y2="232.28" gradientTransform="translate(-207.5 5120.28) rotate(-90)" gradientUnits="userSpaceOnUse"><stop offset="0" stop-color="#c6c6c5"/><stop offset="0.32" stop-color="#fff"/><stop offset="1" stop-color="#9c9b9b"/></linearGradient><linearGradient id="linear-gradient-3" x1="5091.23" y1="232.43" x2="5091.23" y2="228.21" xlink:href="#linear-gradient"/><linearGradient id="linear-gradient-4" x1="5094.39" y1="228" x2="5094.39" y2="232.56" xlink:href="#linear-gradient-2"/><linearGradient id="linear-gradient-5" x1="5093.42" y1="229.86" x2="5093.42" y2="230.82" xlink:href="#linear-gradient-2"/><linearGradient id="linear-gradient-6" x1="5080.37" y1="217.24" x2="5080.37" y2="218.21" xlink:href="#linear-gradient-2"/><linearGradient id="linear-gradient-7" x1="5082.72" y1="224.87" x2="5082.72" y2="225.83" xlink:href="#linear-gradient-2"/><linearGradient id="linear-gradient-8" x1="5084.14" y1="231.33" x2="5084.14" y2="232.3" xlink:href="#linear-gradient-2"/><linearGradient id="linear-gradient-9" x1="5084.52" y1="229.53" x2="5084.52" y2="230.5" xlink:href="#linear-gradient-2"/><linearGradient id="linear-gradient-10" x1="5078.28" y1="208.57" x2="5091.85" y2="243.75" gradientTransform="translate(-207.5 5120.28) rotate(-90)" gradientUnits="userSpaceOnUse"><stop offset="0" stop-color="#c3c3c3"/><stop offset="0.28" stop-color="#e3e3e2"/><stop offset="0.99" stop-color="#929191"/></linearGradient><linearGradient id="linear-gradient-11" x1="5097.5" y1="14309.63" x2="5097.5" y2="14306.37" gradientTransform="matrix(0, -1, -1, 0, 14353.46, 5120.28)" xlink:href="#linear-gradient"/><linearGradient id="linear-gradient-12" x1="5090.34" y1="14307.03" x2="5090.34" y2="14310.1" gradientTransform="matrix(0, -1, -1, 0, 14353.46, 5120.28)" xlink:href="#linear-gradient-2"/><linearGradient id="linear-gradient-13" x1="5091.23" y1="14310.26" x2="5091.23" y2="14306.03" gradientTransform="matrix(0, -1, -1, 0, 14353.46, 5120.28)" xlink:href="#linear-gradient"/><linearGradient id="linear-gradient-14" x1="5094.39" y1="14305.82" x2="5094.39" y2="14310.38" gradientTransform="matrix(0, -1, -1, 0, 14353.46, 5120.28)" xlink:href="#linear-gradient-2"/><linearGradient id="linear-gradient-15" x1="5093.42" y1="14307.68" x2="5093.42" y2="14308.64" gradientTransform="matrix(0, -1, -1, 0, 14353.46, 5120.28)" xlink:href="#linear-gradient-2"/><linearGradient id="linear-gradient-16" x1="5080.37" y1="14295.06" x2="5080.37" y2="14296.03" gradientTransform="matrix(0, -1, -1, 0, 14353.46, 5120.28)" xlink:href="#linear-gradient-2"/><linearGradient id="linear-gradient-17" x1="5082.72" y1="14302.69" x2="5082.72" y2="14303.65" gradientTransform="matrix(0, -1, -1, 0, 14353.46, 5120.28)" xlink:href="#linear-gradient-2"/><linearGradient id="linear-gradient-18" x1="5084.14" y1="14309.15" x2="5084.14" y2="14310.12" gradientTransform="matrix(0, -1, -1, 0, 14353.46, 5120.28)" xlink:href="#linear-gradient-2"/><linearGradient id="linear-gradient-19" x1="5084.52" y1="14307.35" x2="5084.52" y2="14308.32" gradientTransform="matrix(0, -1, -1, 0, 14353.46, 5120.28)" xlink:href="#linear-gradient-2"/><linearGradient id="linear-gradient-20" x1="5078.28" y1="14286.39" x2="5091.85" y2="14321.57" gradientTransform="matrix(0, -1, -1, 0, 14353.46, 5120.28)" xlink:href="#linear-gradient-10"/><linearGradient id="linear-gradient-21" x1="5050.58" y1="231.05" x2="5054.93" y2="243.85" gradientTransform="translate(-207.5 5120.28) rotate(-90)" gradientUnits="userSpaceOnUse"><stop offset="0" stop-color="#fff"/><stop offset="1" stop-color="#c6c6c5"/></linearGradient><linearGradient id="linear-gradient-22" x1="5050.55" y1="14851.07" x2="5054.9" y2="14863.88" gradientTransform="matrix(0, -1, -1, 0, 14895.77, 5120.28)" xlink:href="#linear-gradient-21"/><linearGradient id="linear-gradient-23" x1="5082.99" y1="249.64" x2="5082.99" y2="236.51" gradientTransform="translate(-207.5 5120.28) rotate(-90)" gradientUnits="userSpaceOnUse"><stop offset="0.09" stop-color="#545453"/><stop offset="0.45" stop-color="#9c9b9b"/><stop offset="0.7" stop-color="#eaeaea"/><stop offset="0.91" stop-color="#c6c6c5"/></linearGradient><linearGradient id="linear-gradient-24" x1="5074.4" y1="241.66" x2="5076.05" y2="241.66" gradientTransform="translate(-207.5 5120.28) rotate(-90)" gradientUnits="userSpaceOnUse"><stop offset="0" stop-color="#ececec"/><stop offset="1" stop-color="#c6c6c5"/></linearGradient><linearGradient id="linear-gradient-25" x1="5088.43" y1="241.66" x2="5090.07" y2="241.66" xlink:href="#linear-gradient-24"/><linearGradient id="linear-gradient-26" x1="5109.01" y1="241.66" x2="5110.65" y2="241.66" xlink:href="#linear-gradient-24"/><linearGradient id="linear-gradient-27" x1="5098.67" y1="245.54" x2="5098.67" y2="245.3" gradientTransform="translate(-207.5 5120.28) rotate(-90)" gradientUnits="userSpaceOnUse"><stop offset="0" stop-color="#1d1d1b"/><stop offset="1" stop-color="#575756"/></linearGradient><linearGradient id="linear-gradient-28" x1="5100.01" y1="245.54" x2="5100.01" y2="245.3" xlink:href="#linear-gradient-27"/><linearGradient id="linear-gradient-29" x1="5097.33" y1="245.54" x2="5097.33" y2="245.3" xlink:href="#linear-gradient-27"/><linearGradient id="linear-gradient-30" x1="5101.35" y1="245.54" x2="5101.35" y2="245.3" xlink:href="#linear-gradient-27"/><linearGradient id="linear-gradient-31" x1="5093.31" y1="245.54" x2="5093.31" y2="245.3" xlink:href="#linear-gradient-27"/><linearGradient id="linear-gradient-32" x1="5095.99" y1="245.54" x2="5095.99" y2="245.3" xlink:href="#linear-gradient-27"/><linearGradient id="linear-gradient-33" x1="5094.65" y1="245.54" x2="5094.65" y2="245.3" xlink:href="#linear-gradient-27"/><linearGradient id="linear-gradient-34" x1="5063.79" y1="245.14" x2="5063.79" y2="244.89" xlink:href="#linear-gradient-27"/><linearGradient id="linear-gradient-35" x1="5065.15" y1="245.23" x2="5065.15" y2="244.98" xlink:href="#linear-gradient-27"/><linearGradient id="linear-gradient-36" x1="5066.5" y1="245.33" x2="5066.5" y2="245.09" xlink:href="#linear-gradient-27"/><linearGradient id="linear-gradient-37" x1="5067.85" y1="245.54" x2="5067.85" y2="245.3" xlink:href="#linear-gradient-27"/><linearGradient id="linear-gradient-38" x1="5090.63" y1="245.54" x2="5090.63" y2="245.3" xlink:href="#linear-gradient-27"/><linearGradient id="linear-gradient-39" x1="5102.68" y1="245.54" x2="5102.68" y2="245.3" xlink:href="#linear-gradient-27"/><linearGradient id="linear-gradient-40" x1="5104.02" y1="245.54" x2="5104.02" y2="245.3" xlink:href="#linear-gradient-27"/><linearGradient id="linear-gradient-41" x1="5106.7" y1="245.54" x2="5106.7" y2="245.3" xlink:href="#linear-gradient-27"/><linearGradient id="linear-gradient-42" x1="5105.36" y1="245.54" x2="5105.36" y2="245.3" xlink:href="#linear-gradient-27"/><linearGradient id="linear-gradient-43" x1="5091.97" y1="245.54" x2="5091.97" y2="245.3" xlink:href="#linear-gradient-27"/><linearGradient id="linear-gradient-44" x1="5071.88" y1="245.54" x2="5071.88" y2="245.3" xlink:href="#linear-gradient-27"/><linearGradient id="linear-gradient-45" x1="5074.56" y1="245.54" x2="5074.56" y2="245.3" xlink:href="#linear-gradient-27"/><linearGradient id="linear-gradient-46" x1="5073.22" y1="245.54" x2="5073.22" y2="245.3" xlink:href="#linear-gradient-27"/><linearGradient id="linear-gradient-47" x1="5075.9" y1="245.54" x2="5075.9" y2="245.3" xlink:href="#linear-gradient-27"/><linearGradient id="linear-gradient-48" x1="5108.04" y1="245.54" x2="5108.04" y2="245.3" xlink:href="#linear-gradient-27"/><linearGradient id="linear-gradient-49" x1="5077.24" y1="245.54" x2="5077.24" y2="245.3" xlink:href="#linear-gradient-27"/><linearGradient id="linear-gradient-50" x1="5070.54" y1="245.54" x2="5070.54" y2="245.3" xlink:href="#linear-gradient-27"/><linearGradient id="linear-gradient-51" x1="5089.29" y1="245.54" x2="5089.29" y2="245.3" xlink:href="#linear-gradient-27"/><linearGradient id="linear-gradient-52" x1="5069.2" y1="245.54" x2="5069.2" y2="245.3" xlink:href="#linear-gradient-27"/><linearGradient id="linear-gradient-53" x1="5083.93" y1="245.54" x2="5083.93" y2="245.3" xlink:href="#linear-gradient-27"/><linearGradient id="linear-gradient-54" x1="5085.27" y1="245.54" x2="5085.27" y2="245.3" xlink:href="#linear-gradient-27"/><linearGradient id="linear-gradient-55" x1="5086.61" y1="245.54" x2="5086.61" y2="245.3" xlink:href="#linear-gradient-27"/><linearGradient id="linear-gradient-56" x1="5078.58" y1="245.54" x2="5078.58" y2="245.3" xlink:href="#linear-gradient-27"/><linearGradient id="linear-gradient-57" x1="5087.95" y1="245.54" x2="5087.95" y2="245.3" xlink:href="#linear-gradient-27"/><linearGradient id="linear-gradient-58" x1="5079.92" y1="245.54" x2="5079.92" y2="245.3" xlink:href="#linear-gradient-27"/><linearGradient id="linear-gradient-59" x1="5081.25" y1="245.54" x2="5081.25" y2="245.3" xlink:href="#linear-gradient-27"/><linearGradient id="linear-gradient-60" x1="5082.59" y1="245.54" x2="5082.59" y2="245.3" xlink:href="#linear-gradient-27"/><linearGradient id="linear-gradient-61" x1="5098.67" y1="14797.36" x2="5098.67" y2="14797.11" gradientTransform="matrix(0, -1, -1, 0, 14827.64, 5120.28)" xlink:href="#linear-gradient-27"/><linearGradient id="linear-gradient-62" x1="5100.01" y1="14797.36" x2="5100.01" y2="14797.11" gradientTransform="matrix(0, -1, -1, 0, 14827.64, 5120.28)" xlink:href="#linear-gradient-27"/><linearGradient id="linear-gradient-63" x1="5097.33" y1="14797.36" x2="5097.33" y2="14797.11" gradientTransform="matrix(0, -1, -1, 0, 14827.64, 5120.28)" xlink:href="#linear-gradient-27"/><linearGradient id="linear-gradient-64" x1="5101.35" y1="14797.36" x2="5101.35" y2="14797.11" gradientTransform="matrix(0, -1, -1, 0, 14827.64, 5120.28)" xlink:href="#linear-gradient-27"/><linearGradient id="linear-gradient-65" x1="5093.31" y1="14797.36" x2="5093.31" y2="14797.11" gradientTransform="matrix(0, -1, -1, 0, 14827.64, 5120.28)" xlink:href="#linear-gradient-27"/><linearGradient id="linear-gradient-66" x1="5095.99" y1="14797.36" x2="5095.99" y2="14797.11" gradientTransform="matrix(0, -1, -1, 0, 14827.64, 5120.28)" xlink:href="#linear-gradient-27"/><linearGradient id="linear-gradient-67" x1="5094.65" y1="14797.36" x2="5094.65" y2="14797.11" gradientTransform="matrix(0, -1, -1, 0, 14827.64, 5120.28)" xlink:href="#linear-gradient-27"/><linearGradient id="linear-gradient-68" x1="5063.79" y1="14796.9" x2="5063.79" y2="14796.66" gradientTransform="matrix(0, -1, -1, 0, 14827.64, 5120.28)" xlink:href="#linear-gradient-27"/><linearGradient id="linear-gradient-69" x1="5065.15" y1="14797.04" x2="5065.15" y2="14796.8" gradientTransform="matrix(0, -1, -1, 0, 14827.64, 5120.28)" xlink:href="#linear-gradient-27"/><linearGradient id="linear-gradient-70" x1="5066.5" y1="14797.21" x2="5066.5" y2="14796.96" gradientTransform="matrix(0, -1, -1, 0, 14827.64, 5120.28)" xlink:href="#linear-gradient-27"/><linearGradient id="linear-gradient-71" x1="5067.85" y1="14797.36" x2="5067.85" y2="14797.11" gradientTransform="matrix(0, -1, -1, 0, 14827.64, 5120.28)" xlink:href="#linear-gradient-27"/><linearGradient id="linear-gradient-72" x1="5090.63" y1="14797.36" x2="5090.63" y2="14797.11" gradientTransform="matrix(0, -1, -1, 0, 14827.64, 5120.28)" xlink:href="#linear-gradient-27"/><linearGradient id="linear-gradient-73" x1="5102.68" y1="14797.36" x2="5102.68" y2="14797.11" gradientTransform="matrix(0, -1, -1, 0, 14827.64, 5120.28)" xlink:href="#linear-gradient-27"/><linearGradient id="linear-gradient-74" x1="5104.02" y1="14797.36" x2="5104.02" y2="14797.11" gradientTransform="matrix(0, -1, -1, 0, 14827.64, 5120.28)" xlink:href="#linear-gradient-27"/><linearGradient id="linear-gradient-75" x1="5106.7" y1="14797.36" x2="5106.7" y2="14797.11" gradientTransform="matrix(0, -1, -1, 0, 14827.64, 5120.28)" xlink:href="#linear-gradient-27"/><linearGradient id="linear-gradient-76" x1="5105.36" y1="14797.36" x2="5105.36" y2="14797.11" gradientTransform="matrix(0, -1, -1, 0, 14827.64, 5120.28)" xlink:href="#linear-gradient-27"/><linearGradient id="linear-gradient-77" x1="5091.97" y1="14797.36" x2="5091.97" y2="14797.11" gradientTransform="matrix(0, -1, -1, 0, 14827.64, 5120.28)" xlink:href="#linear-gradient-27"/><linearGradient id="linear-gradient-78" x1="5071.88" y1="14797.36" x2="5071.88" y2="14797.11" gradientTransform="matrix(0, -1, -1, 0, 14827.64, 5120.28)" xlink:href="#linear-gradient-27"/><linearGradient id="linear-gradient-79" x1="5074.56" y1="14797.36" x2="5074.56" y2="14797.11" gradientTransform="matrix(0, -1, -1, 0, 14827.64, 5120.28)" xlink:href="#linear-gradient-27"/><linearGradient id="linear-gradient-80" x1="5073.22" y1="14797.36" x2="5073.22" y2="14797.11" gradientTransform="matrix(0, -1, -1, 0, 14827.64, 5120.28)" xlink:href="#linear-gradient-27"/><linearGradient id="linear-gradient-81" x1="5075.9" y1="14797.36" x2="5075.9" y2="14797.11" gradientTransform="matrix(0, -1, -1, 0, 14827.64, 5120.28)" xlink:href="#linear-gradient-27"/><linearGradient id="linear-gradient-82" x1="5108.04" y1="14797.36" x2="5108.04" y2="14797.11" gradientTransform="matrix(0, -1, -1, 0, 14827.64, 5120.28)" xlink:href="#linear-gradient-27"/><linearGradient id="linear-gradient-83" x1="5077.24" y1="14797.36" x2="5077.24" y2="14797.11" gradientTransform="matrix(0, -1, -1, 0, 14827.64, 5120.28)" xlink:href="#linear-gradient-27"/><linearGradient id="linear-gradient-84" x1="5070.54" y1="14797.36" x2="5070.54" y2="14797.11" gradientTransform="matrix(0, -1, -1, 0, 14827.64, 5120.28)" xlink:href="#linear-gradient-27"/><linearGradient id="linear-gradient-85" x1="5089.29" y1="14797.36" x2="5089.29" y2="14797.11" gradientTransform="matrix(0, -1, -1, 0, 14827.64, 5120.28)" xlink:href="#linear-gradient-27"/><linearGradient id="linear-gradient-86" x1="5069.2" y1="14797.36" x2="5069.2" y2="14797.11" gradientTransform="matrix(0, -1, -1, 0, 14827.64, 5120.28)" xlink:href="#linear-gradient-27"/><linearGradient id="linear-gradient-87" x1="5083.93" y1="14797.36" x2="5083.93" y2="14797.11" gradientTransform="matrix(0, -1, -1, 0, 14827.64, 5120.28)" xlink:href="#linear-gradient-27"/><linearGradient id="linear-gradient-88" x1="5085.27" y1="14797.36" x2="5085.27" y2="14797.11" gradientTransform="matrix(0, -1, -1, 0, 14827.64, 5120.28)" xlink:href="#linear-gradient-27"/><linearGradient id="linear-gradient-89" x1="5086.61" y1="14797.36" x2="5086.61" y2="14797.11" gradientTransform="matrix(0, -1, -1, 0, 14827.64, 5120.28)" xlink:href="#linear-gradient-27"/><linearGradient id="linear-gradient-90" x1="5078.58" y1="14797.36" x2="5078.58" y2="14797.11" gradientTransform="matrix(0, -1, -1, 0, 14827.64, 5120.28)" xlink:href="#linear-gradient-27"/><linearGradient id="linear-gradient-91" x1="5087.95" y1="14797.36" x2="5087.95" y2="14797.11" gradientTransform="matrix(0, -1, -1, 0, 14827.64, 5120.28)" xlink:href="#linear-gradient-27"/><linearGradient id="linear-gradient-92" x1="5079.92" y1="14797.36" x2="5079.92" y2="14797.11" gradientTransform="matrix(0, -1, -1, 0, 14827.64, 5120.28)" xlink:href="#linear-gradient-27"/><linearGradient id="linear-gradient-93" x1="5081.25" y1="14797.36" x2="5081.25" y2="14797.11" gradientTransform="matrix(0, -1, -1, 0, 14827.64, 5120.28)" xlink:href="#linear-gradient-27"/><linearGradient id="linear-gradient-94" x1="5082.59" y1="14797.36" x2="5082.59" y2="14797.11" gradientTransform="matrix(0, -1, -1, 0, 14827.64, 5120.28)" xlink:href="#linear-gradient-27"/><linearGradient id="linear-gradient-95" x1="-1542.67" y1="9350.61" x2="-1542.2" y2="9350.61" gradientTransform="translate(2957.24 -8961.35) rotate(8.81)" xlink:href="#linear-gradient-10"/><linearGradient id="linear-gradient-96" x1="13230.21" y1="7060.38" x2="13230.68" y2="7060.38" gradientTransform="matrix(-0.99, 0.15, 0.15, 0.99, 12060.17, -8961.35)" xlink:href="#linear-gradient-10"/></defs><title>Artboard 2</title><g class="cls-1"><g id="Layer_1" data-name="Layer 1"><path class="cls-2" d="M31.77,62.82c.14,0,.19.58-1.21,1.83s-9.22,6.27-9.22,6.27v2.76S32.69,71.12,32.83,71,31.77,62.82,31.77,62.82Z"/><path class="cls-2" d="M36.48,62.85c-.15,0-.19.58,1.2,1.83S46.9,71,46.9,71v2.75s-11.34-2.56-11.48-2.66S36.48,62.85,36.48,62.85Z"/><path class="cls-3" d="M21.08,22.78l0,.34h3.43l0-.34a.36.36,0,0,0-.36-.34H21.63C21.44,22.44,21.09,22.59,21.08,22.78Z"/><path class="cls-4" d="M24.42,29.94v-.59H21.36l0,.59c0,.33.15.59.32.59h2.4C24.26,30.53,24.41,30.27,24.42,29.94Z"/><path class="cls-5" d="M24.88,29.05l0-.42H20.65l0,.42a.46.46,0,0,0,.45.42h3.31A.46.46,0,0,0,24.88,29.05Z"/><path class="cls-6" d="M24.3,23a.41.41,0,0,1,.41.38l.34,5a.35.35,0,0,1-.36.38H20.86a.35.35,0,0,1-.36-.38l.34-5a.41.41,0,0,1,.41-.38Z"/><polygon class="cls-7" points="24.85 24.76 24.84 24.57 20.71 24.57 20.7 24.76 24.85 24.76"/><polygon class="cls-7" points="24.97 26.86 24.96 26.67 20.59 26.67 20.58 26.86 24.97 26.86"/><rect class="cls-8" x="22.37" y="23.71" width="1.03" height="6.31" rx="0.37"/><path class="cls-9" d="M10.44,37a.36.36,0,0,1,.35.38l-.23,5.08c0,.2-.14.37-.29.37s-.27-.17-.28-.37l-.23-5.08a.36.36,0,0,1,.35-.38Z"/><path class="cls-10" d="M18.06,34.65a.35.35,0,0,1,.36.37l-.24,5.08c0,.2-.13.37-.28.37s-.27-.17-.28-.37L17.38,35a.35.35,0,0,1,.36-.37Z"/><path class="cls-11" d="M24.53,33.23a.35.35,0,0,1,.35.37l-.23,5.08c0,.21-.14.37-.28.37s-.28-.16-.29-.37l-.23-5.08a.35.35,0,0,1,.36-.37Z"/><path class="cls-12" d="M22.73,32.84a.35.35,0,0,1,.35.37l-.23,5.09c0,.2-.14.37-.28.37s-.28-.17-.29-.37l-.23-5.09a.35.35,0,0,1,.35-.37Z"/><path class="cls-2" d="M30.43,37.94H21.55L.46,44.36s-.29-2.8.92-3.42l27.9-14.68a20.46,20.46,0,0,1,1.15-2.55C30.58,23.71,30.43,37.94,30.43,37.94Z"/><path class="cls-13" d="M30.37,37.82H21.49L.4,44.23s-.29-2.79.91-3.42l27.9-14.67a19.29,19.29,0,0,1,1.16-2.56C30.51,23.58,30.37,37.82,30.37,37.82Z"/><g class="cls-14"><polygon class="cls-2" points="1.76 42.46 1.76 43.82 1.86 43.79 1.86 42.53 7.27 40.51 7.27 42.14 7.36 42.11 7.36 40.37 1.76 42.46"/><path class="cls-2" d="M21.79,35s-.09,0-13.64,4.94l0,0v2l.09,0V40C12.82,38.28,21.52,35.1,21.78,35s3.35,0,4.39,0v.34h4.22v-.1H26.27v-.34h-.05C25,35,21.91,35,21.79,35Z"/><path class="cls-2" d="M30.61,36.46v.1H21.54C17,38.14,8.39,41.16,8.19,41.28l0,0H8.12s0-.1,13.4-4.76h9.09Z"/><rect class="cls-2" x="21.63" y="34.94" width="0.1" height="1.57"/><rect class="cls-2" x="26.17" y="35.33" width="0.1" height="1.2"/><rect class="cls-2" x="21.49" y="36.51" width="0.1" height="1.33"/><polygon class="cls-2" points="11.62 39.99 11.53 40.02 11.19 38.83 11.29 38.8 11.62 39.99"/><rect class="cls-2" x="14.32" y="37.73" width="0.1" height="1.24" transform="translate(-9.88 5.35) rotate(-15.78)"/><rect class="cls-2" x="17.51" y="36.59" width="0.1" height="1.24" transform="translate(-9.47 6.19) rotate(-15.81)"/><polygon class="cls-2" points="20.78 36.75 20.69 36.77 20.32 35.5 20.42 35.47 20.78 36.75"/><path class="cls-2" d="M29.72,24.9c0,.08-.07.16-.1.23v2.23l-6.15,2.92V29.16l-.1.05v1.22l6.32-3h0V24.9Z"/><path class="cls-2" d="M21.92,30V31.1l-20,10.24,0,0v1.06H2v-1L22,31.17h0V29.92Z"/><path class="cls-2" d="M1.92,41.39H2v-1l-.09.05Z"/><path class="cls-2" d="M6.45,39.05h.1v-1l-.1,0Z"/><path class="cls-2" d="M11.51,35.45v1h.1V35.4Z"/><path class="cls-2" d="M16.4,32.87V34h.1V32.82A.31.31,0,0,1,16.4,32.87Z"/></g><path class="cls-15" d="M47.06,22.78l0,.34H43.65l0-.34a.36.36,0,0,1,.36-.34h2.48C46.7,22.44,47.05,22.59,47.06,22.78Z"/><path class="cls-16" d="M43.72,29.94v-.59h3.07l0,.59c0,.33-.15.59-.32.59H44C43.88,30.53,43.73,30.27,43.72,29.94Z"/><path class="cls-17" d="M43.26,29.05l0-.42h4.25l0,.42a.45.45,0,0,1-.44.42H43.71A.46.46,0,0,1,43.26,29.05Z"/><path class="cls-18" d="M43.84,23a.41.41,0,0,0-.41.38l-.34,5a.35.35,0,0,0,.36.38h3.83a.35.35,0,0,0,.36-.38l-.34-5a.41.41,0,0,0-.41-.38Z"/><polygon class="cls-7" points="43.29 24.76 43.3 24.57 47.43 24.57 47.44 24.76 43.29 24.76"/><polygon class="cls-7" points="43.17 26.86 43.18 26.67 47.55 26.67 47.56 26.86 43.17 26.86"/><rect class="cls-19" x="44.74" y="23.71" width="1.03" height="6.31" rx="0.37"/><path class="cls-20" d="M57.7,37a.36.36,0,0,0-.35.38l.23,5.08c0,.2.14.37.29.37s.27-.17.28-.37l.23-5.08A.36.36,0,0,0,58,37Z"/><path class="cls-21" d="M50.08,34.65a.35.35,0,0,0-.36.37L50,40.1c0,.2.13.37.28.37s.27-.17.28-.37L50.76,35a.35.35,0,0,0-.36-.37Z"/><path class="cls-22" d="M43.61,33.23a.35.35,0,0,0-.35.37l.23,5.08c0,.21.13.37.28.37s.28-.16.29-.37l.23-5.08a.35.35,0,0,0-.36-.37Z"/><path class="cls-23" d="M45.41,32.84a.35.35,0,0,0-.35.37l.23,5.09c0,.2.14.37.28.37s.28-.17.29-.37l.23-5.09a.35.35,0,0,0-.35-.37Z"/><path class="cls-2" d="M37.71,37.94h8.88l21.09,6.42s.29-2.8-.92-3.42L38.87,26.26a20.55,20.55,0,0,0-1.16-2.55C37.56,23.71,37.71,37.94,37.71,37.94Z"/><path class="cls-24" d="M37.77,37.82h8.88l21.09,6.41s.29-2.79-.91-3.42L38.93,26.14a19.29,19.29,0,0,0-1.16-2.56C37.63,23.58,37.77,37.82,37.77,37.82Z"/><g class="cls-14"><polygon class="cls-2" points="66.38 42.46 66.38 43.82 66.28 43.79 66.28 42.53 60.87 40.51 60.87 42.14 60.78 42.11 60.78 40.37 66.38 42.46"/><path class="cls-2" d="M46.35,35s.09,0,13.64,4.94l0,0v2l-.1,0V40C55.32,38.28,46.61,35.1,46.36,35S43,35.05,42,35v.34H37.75v-.1h4.12v-.34h.05C43.11,35,46.23,35,46.35,35Z"/><path class="cls-2" d="M37.53,36.46v.1H46.6c4.53,1.58,13.15,4.6,13.34,4.72l0,0H60s0-.1-13.4-4.76H37.53Z"/><rect class="cls-2" x="46.41" y="34.94" width="0.1" height="1.57"/><rect class="cls-2" x="41.87" y="35.33" width="0.1" height="1.2"/><rect class="cls-2" x="46.56" y="36.51" width="0.1" height="1.33"/><polygon class="cls-2" points="56.52 39.99 56.61 40.02 56.95 38.83 56.85 38.8 56.52 39.99"/><rect class="cls-2" x="53.15" y="38.3" width="1.24" height="0.1" transform="translate(2.29 79.72) rotate(-74.28)"/><rect class="cls-2" x="49.97" y="37.16" width="1.24" height="0.1" transform="translate(0.94 75.65) rotate(-74.09)"/><polygon class="cls-2" points="47.36 36.75 47.45 36.77 47.82 35.5 47.72 35.47 47.36 36.75"/><path class="cls-2" d="M38.43,24.9l.09.23v2.23l6.15,2.92V29.16l.1.05v1.22l-6.32-3h0V24.9Z"/><path class="cls-2" d="M46.22,30V31.1l20,10.24,0,0v1.06h-.09v-1l-20-10.25h0V29.92Z"/><path class="cls-2" d="M66.22,41.39h-.09v-1l.09.05Z"/><path class="cls-2" d="M61.69,39.05h-.1v-1l.1,0Z"/><path class="cls-2" d="M56.63,35.45v1h-.1V35.4Z"/><path class="cls-2" d="M51.74,32.87V34h-.1V32.82Z"/></g><path class="cls-25" d="M31.77,62.62c.14,0,.19.58-1.21,1.84s-9.22,6.27-9.22,6.27v2.75s11.35-2.56,11.49-2.65S31.77,62.62,31.77,62.62Z"/><path class="cls-26" d="M31.77,62.62c.14,0,.19.58-1.21,1.84s-9.22,6.27-9.22,6.27v2.75s11.35-2.56,11.49-2.65S31.77,62.62,31.77,62.62Z"/><g class="cls-27"><path class="cls-2" d="M21.9,70.38v1.9l.09,0V70.32Z"/><path class="cls-2" d="M22.53,73.22V72.06h-.06v1.17Z"/><polygon class="cls-2" points="21.34 72.49 32.62 68.67 32.59 68.58 21.34 72.39 21.34 72.49"/></g><path class="cls-28" d="M36.48,62.66c-.15,0-.19.57,1.2,1.83s9.22,6.27,9.22,6.27v2.75S35.56,71,35.42,70.86,36.48,62.66,36.48,62.66Z"/><path class="cls-26" d="M36.48,62.66c-.15,0-.19.57,1.2,1.83s9.22,6.27,9.22,6.27v2.75S35.56,71,35.42,70.86,36.48,62.66,36.48,62.66Z"/><g class="cls-27"><path class="cls-2" d="M46.35,70.41v1.9l-.1,0V70.35Z"/><path class="cls-2" d="M45.72,73.25V72.09h.05v1.18Z"/><polygon class="cls-2" points="46.9 72.52 35.63 68.71 35.66 68.62 46.9 72.42 46.9 72.52"/></g><path class="cls-29" d="M34.22,74.58c.51,0,.77-.65.77-.65s1.67-10.42,2.12-13.32.9-8.49.9-8.49V11.32S38.33,2,34.17,0h0C30,2,30.31,11.32,30.31,11.32v40.8s.45,5.6.9,8.49,2.12,13.32,2.12,13.32.26.65.77.65Z"/><path class="cls-2" d="M30.34,9.37h.87a.16.16,0,0,1,.16.16v1.31a.16.16,0,0,1-.16.16H30.3v.06h.91a.22.22,0,0,0,.22-.22V9.53a.22.22,0,0,0-.22-.22h-.86Z"/><path class="cls-2" d="M36.89,9.53v1.31a.22.22,0,0,0,.22.22H38V11h-.91a.16.16,0,0,1-.16-.16V9.53a.16.16,0,0,1,.16-.16H38V9.31h-.87A.22.22,0,0,0,36.89,9.53Z"/><path class="cls-30" d="M31.51,5.43h.84a8.72,8.72,0,0,1,.4-.81l-.67-.39A9.17,9.17,0,0,0,31.51,5.43Z"/><path class="cls-30" d="M32.85,4.46A2.3,2.3,0,0,1,34,3.32V2.54a2.76,2.76,0,0,0-1.8,1.53Z"/><path class="cls-30" d="M36.09,4l-.67.39a9.63,9.63,0,0,1,.57,1h.86A11,11,0,0,0,36.09,4Z"/><path class="cls-30" d="M31.43,5.62c-.13.34-.22.84-.27,1h.74c.1-.31.22-.65.36-1Z"/><path class="cls-30" d="M34.16,3.32c.37,0,.77.43,1.15,1l.67-.4a2.73,2.73,0,0,0-1.82-1.34Z"/><path class="cls-30" d="M36.09,5.62c.13.28.25.56.34.81h.73a8.29,8.29,0,0,0-.22-.81Z"/><path class="cls-26" d="M31.21,60.61c.45,2.9,2.12,13.32,2.12,13.32s.26.65.77.65h.12c.51,0,.77-.65.77-.65s1.67-10.42,2.12-13.32.9-8.49.9-8.49V43.19c-3.89-1.82-5.95-.74-7.7.57v8.36S30.76,57.72,31.21,60.61Z"/><rect class="cls-31" x="33.94" y="44.23" width="0.43" height="1.64" rx="0.09"/><rect class="cls-32" x="33.94" y="30.21" width="0.43" height="1.64" rx="0.09"/><rect class="cls-33" x="33.94" y="9.63" width="0.43" height="1.64" rx="0.09"/><path class="cls-2" d="M34.6,34.27v1h-.87v-1Zm-.1.91v-.82h-.68v.82Z"/><path class="cls-2" d="M34.5,39.24v1h-.68v-1Zm-.1.92v-.82h-.48v.82Z"/><path class="cls-2" d="M30.91,58.33h.83a.17.17,0,0,1,.16.17v1.35a.16.16,0,0,1-.16.16h-.62a.13.13,0,0,0,0,.06h.61a.22.22,0,0,0,.22-.22V58.5a.23.23,0,0,0-.22-.23H30.9Z"/><path class="cls-2" d="M36.3,58.5v1.35a.22.22,0,0,0,.22.22h.56V60h-.56a.16.16,0,0,1-.16-.16V58.5a.17.17,0,0,1,.16-.17h.78v-.06h-.78A.23.23,0,0,0,36.3,58.5Z"/><path class="cls-34" d="M35,73.76v-.1H33.29s0,.07,0,.1Z"/><path class="cls-34" d="M35.49,70.81a.29.29,0,0,1,0-.09H32.82v.09Z"/><path class="cls-34" d="M37.12,60.56s0-.07,0-.1H31.19s0,.07,0,.1Z"/><path class="cls-35" d="M37.77,21.86v-.5a.09.09,0,0,1,.1-.09H38V22h-.15A.09.09,0,0,1,37.77,21.86Z"/><path class="cls-36" d="M37.77,20.52V20a.09.09,0,0,1,.1-.1H38v.69h-.15A.09.09,0,0,1,37.77,20.52Z"/><path class="cls-37" d="M37.77,23.2v-.5a.09.09,0,0,1,.1-.09H38v.69h-.15A.09.09,0,0,1,37.77,23.2Z"/><path class="cls-38" d="M37.77,19.18v-.49a.09.09,0,0,1,.1-.1H38v.69h-.15A.09.09,0,0,1,37.77,19.18Z"/><path class="cls-39" d="M37.77,27.22v-.5a.09.09,0,0,1,.1-.09H38v.69h-.15A.1.1,0,0,1,37.77,27.22Z"/><path class="cls-40" d="M37.77,24.54V24a.09.09,0,0,1,.1-.09H38v.69h-.15A.09.09,0,0,1,37.77,24.54Z"/><path class="cls-41" d="M37.77,25.88v-.5a.09.09,0,0,1,.1-.09H38V26h-.15A.1.1,0,0,1,37.77,25.88Z"/><path class="cls-42" d="M37.35,56.74v-.5a.1.1,0,0,1,.1-.1h.2c0,.23,0,.46-.07.69h-.13A.1.1,0,0,1,37.35,56.74Z"/><path class="cls-43" d="M37.45,55.38v-.49a.09.09,0,0,1,.09-.1h.24q0,.33-.06.69h-.18A.09.09,0,0,1,37.45,55.38Z"/><path class="cls-44" d="M37.56,54v-.5a.09.09,0,0,1,.1-.09h.25q0,.31-.06.69h-.19A.09.09,0,0,1,37.56,54Z"/><path class="cls-45" d="M37.8,52.09H38v0s0,.24-.06.66H37.8a.1.1,0,0,1-.09-.1v-.5A.09.09,0,0,1,37.8,52.09Z"/><path class="cls-46" d="M37.77,29.9v-.5a.09.09,0,0,1,.1-.09H38V30h-.15A.1.1,0,0,1,37.77,29.9Z"/><path class="cls-47" d="M37.77,17.85v-.5a.09.09,0,0,1,.1-.1H38v.69h-.15A.09.09,0,0,1,37.77,17.85Z"/><path class="cls-48" d="M37.77,16.51V16a.09.09,0,0,1,.1-.1H38v.69h-.15A.09.09,0,0,1,37.77,16.51Z"/><path class="cls-49" d="M37.77,13.83v-.5a.1.1,0,0,1,.1-.1H38v.69h-.15A.09.09,0,0,1,37.77,13.83Z"/><path class="cls-50" d="M37.77,15.17v-.5a.1.1,0,0,1,.1-.1H38v.69h-.15A.09.09,0,0,1,37.77,15.17Z"/><path class="cls-51" d="M37.77,28.56v-.5a.09.09,0,0,1,.1-.09H38v.69h-.15A.1.1,0,0,1,37.77,28.56Z"/><path class="cls-52" d="M37.77,48.65v-.5a.1.1,0,0,1,.1-.1H38v.7h-.15A.1.1,0,0,1,37.77,48.65Z"/><path class="cls-53" d="M37.77,46v-.5a.09.09,0,0,1,.1-.09H38v.69h-.15A.1.1,0,0,1,37.77,46Z"/><path class="cls-54" d="M37.77,47.31v-.5a.09.09,0,0,1,.1-.09H38v.69h-.15A.1.1,0,0,1,37.77,47.31Z"/><path class="cls-55" d="M37.77,44.63v-.5a.09.09,0,0,1,.1-.09H38v.69h-.15A.09.09,0,0,1,37.77,44.63Z"/><path class="cls-56" d="M38,12.58h-.15a.09.09,0,0,1-.1-.09V12a.1.1,0,0,1,.1-.1H38Z"/><path class="cls-57" d="M37.77,43.29V42.8a.09.09,0,0,1,.1-.1H38v.69h-.15A.09.09,0,0,1,37.77,43.29Z"/><path class="cls-58" d="M37.77,50v-.5a.09.09,0,0,1,.1-.09H38v.69h-.15A.1.1,0,0,1,37.77,50Z"/><path class="cls-59" d="M37.77,31.24v-.5a.1.1,0,0,1,.1-.1H38v.7h-.15A.1.1,0,0,1,37.77,31.24Z"/><path class="cls-60" d="M37.77,51.33v-.5a.1.1,0,0,1,.1-.1H38v.7h-.15A.1.1,0,0,1,37.77,51.33Z"/><path class="cls-61" d="M37.77,36.6v-.5a.09.09,0,0,1,.1-.1H38v.69h-.15A.09.09,0,0,1,37.77,36.6Z"/><path class="cls-62" d="M37.77,35.26v-.5a.1.1,0,0,1,.1-.1H38v.69h-.15A.09.09,0,0,1,37.77,35.26Z"/><path class="cls-63" d="M37.77,33.92v-.5a.1.1,0,0,1,.1-.1H38V34h-.15A.09.09,0,0,1,37.77,33.92Z"/><path class="cls-64" d="M37.77,42v-.49a.09.09,0,0,1,.1-.1H38v.69h-.15A.09.09,0,0,1,37.77,42Z"/><path class="cls-65" d="M37.77,32.58v-.5a.1.1,0,0,1,.1-.1H38v.7h-.15A.1.1,0,0,1,37.77,32.58Z"/><path class="cls-66" d="M37.77,40.62v-.5a.09.09,0,0,1,.1-.1H38v.69h-.15A.09.09,0,0,1,37.77,40.62Z"/><path class="cls-67" d="M37.77,39.28v-.5a.09.09,0,0,1,.1-.1H38v.69h-.15A.09.09,0,0,1,37.77,39.28Z"/><path class="cls-68" d="M37.77,37.94v-.5a.09.09,0,0,1,.1-.1H38V38h-.15A.09.09,0,0,1,37.77,37.94Z"/><path class="cls-69" d="M30.55,21.86v-.5a.09.09,0,0,0-.09-.09H30.3V22h.16A.09.09,0,0,0,30.55,21.86Z"/><path class="cls-70" d="M30.55,20.52V20a.09.09,0,0,0-.09-.1H30.3v.69h.16A.09.09,0,0,0,30.55,20.52Z"/><path class="cls-71" d="M30.55,23.2v-.5a.09.09,0,0,0-.09-.09H30.3v.69h.16A.09.09,0,0,0,30.55,23.2Z"/><path class="cls-72" d="M30.55,19.18v-.49a.09.09,0,0,0-.09-.1H30.3v.69h.16A.09.09,0,0,0,30.55,19.18Z"/><path class="cls-73" d="M30.55,27.22v-.5a.09.09,0,0,0-.09-.09H30.3v.69h.16A.1.1,0,0,0,30.55,27.22Z"/><path class="cls-74" d="M30.55,24.54V24a.09.09,0,0,0-.09-.09H30.3v.69h.16A.09.09,0,0,0,30.55,24.54Z"/><path class="cls-75" d="M30.55,25.88v-.5a.09.09,0,0,0-.09-.09H30.3V26h.16A.1.1,0,0,0,30.55,25.88Z"/><path class="cls-76" d="M31,56.74v-.5a.09.09,0,0,0-.1-.1h-.2c0,.23,0,.46.07.69h.13A.09.09,0,0,0,31,56.74Z"/><path class="cls-77" d="M30.87,55.38v-.49a.09.09,0,0,0-.09-.1h-.24l.06.69h.18A.09.09,0,0,0,30.87,55.38Z"/><path class="cls-78" d="M30.76,54v-.5a.09.09,0,0,0-.1-.09h-.25c0,.21,0,.44.07.69h.18A.09.09,0,0,0,30.76,54Z"/><path class="cls-79" d="M30.52,52.09H30.3v0s0,.24.06.66h.16a.11.11,0,0,0,.1-.1v-.5A.1.1,0,0,0,30.52,52.09Z"/><path class="cls-80" d="M30.55,29.9v-.5a.09.09,0,0,0-.09-.09H30.3V30h.16A.1.1,0,0,0,30.55,29.9Z"/><path class="cls-81" d="M30.55,17.85v-.5a.09.09,0,0,0-.09-.1H30.3v.69h.16A.09.09,0,0,0,30.55,17.85Z"/><path class="cls-82" d="M30.55,16.51V16a.09.09,0,0,0-.09-.1H30.3v.69h.16A.09.09,0,0,0,30.55,16.51Z"/><path class="cls-83" d="M30.55,13.83v-.5a.1.1,0,0,0-.09-.1H30.3v.69h.16A.09.09,0,0,0,30.55,13.83Z"/><path class="cls-84" d="M30.55,15.17v-.5a.1.1,0,0,0-.09-.1H30.3v.69h.16A.09.09,0,0,0,30.55,15.17Z"/><path class="cls-85" d="M30.55,28.56v-.5a.09.09,0,0,0-.09-.09H30.3v.69h.16A.1.1,0,0,0,30.55,28.56Z"/><path class="cls-86" d="M30.55,48.65v-.5a.1.1,0,0,0-.09-.1H30.3v.7h.16A.1.1,0,0,0,30.55,48.65Z"/><path class="cls-87" d="M30.55,46v-.5a.09.09,0,0,0-.09-.09H30.3v.69h.16A.1.1,0,0,0,30.55,46Z"/><path class="cls-88" d="M30.55,47.31v-.5a.09.09,0,0,0-.09-.09H30.3v.69h.16A.1.1,0,0,0,30.55,47.31Z"/><path class="cls-89" d="M30.55,44.63v-.5a.09.09,0,0,0-.09-.09H30.3v.69h.16A.09.09,0,0,0,30.55,44.63Z"/><path class="cls-90" d="M30.3,12.58h.16a.09.09,0,0,0,.09-.09V12a.1.1,0,0,0-.09-.1H30.3Z"/><path class="cls-91" d="M30.55,43.29V42.8a.09.09,0,0,0-.09-.1H30.3v.69h.16A.09.09,0,0,0,30.55,43.29Z"/><path class="cls-92" d="M30.55,50v-.5a.09.09,0,0,0-.09-.09H30.3v.69h.16A.1.1,0,0,0,30.55,50Z"/><path class="cls-93" d="M30.55,31.24v-.5a.1.1,0,0,0-.09-.1H30.3v.7h.16A.1.1,0,0,0,30.55,31.24Z"/><path class="cls-94" d="M30.55,51.33v-.5a.1.1,0,0,0-.09-.1H30.3v.7h.16A.1.1,0,0,0,30.55,51.33Z"/><path class="cls-95" d="M30.55,36.6v-.5a.09.09,0,0,0-.09-.1H30.3v.69h.16A.09.09,0,0,0,30.55,36.6Z"/><path class="cls-96" d="M30.55,35.26v-.5a.1.1,0,0,0-.09-.1H30.3v.69h.16A.09.09,0,0,0,30.55,35.26Z"/><path class="cls-97" d="M30.55,33.92v-.5a.1.1,0,0,0-.09-.1H30.3V34h.16A.09.09,0,0,0,30.55,33.92Z"/><path class="cls-98" d="M30.55,42v-.49a.09.09,0,0,0-.09-.1H30.3v.69h.16A.09.09,0,0,0,30.55,42Z"/><path class="cls-99" d="M30.55,32.58v-.5a.1.1,0,0,0-.09-.1H30.3v.7h.16A.1.1,0,0,0,30.55,32.58Z"/><path class="cls-100" d="M30.55,40.62v-.5a.09.09,0,0,0-.09-.1H30.3v.69h.16A.09.09,0,0,0,30.55,40.62Z"/><path class="cls-101" d="M30.55,39.28v-.5a.09.09,0,0,0-.09-.1H30.3v.69h.16A.09.09,0,0,0,30.55,39.28Z"/><path class="cls-102" d="M30.55,37.94v-.5a.09.09,0,0,0-.09-.1H30.3V38h.16A.09.09,0,0,0,30.55,37.94Z"/><path class="cls-103" d="M34.16,55.26v0h0v0a63.43,63.43,0,0,0,0,18.08v0h0A63.45,63.45,0,0,0,34.16,55.26Z"/><path class="cls-103" d="M34.16,55.26v0h0v0a63.43,63.43,0,0,0,0,18.08v0h0A63.45,63.45,0,0,0,34.16,55.26Z"/><path class="cls-26" d="M34.16,73.34v0h0c0-.18.06-.36.08-.54v-17c0-.31-.07-.51-.08-.56v0h0v0c0,.05,0,.24-.08.56v17C34.1,73,34.13,73.16,34.16,73.34Z"/><path class="cls-104" d="M.47,44.31a.2.2,0,0,1-.21.16l-.1,0A.19.19,0,0,1,0,44.24l.52-3.32a.18.18,0,0,1,.21-.15h.1A.19.19,0,0,1,1,41Z"/><path class="cls-105" d="M67.51,44.31a.2.2,0,0,0,.21.16l.11,0a.18.18,0,0,0,.15-.21l-.51-3.32a.19.19,0,0,0-.22-.15h-.1A.19.19,0,0,0,67,41Z"/></g></g></svg>