<?xml version="1.0" encoding="utf-8"?>
<!-- Generator: Adobe Illustrator 26.0.3, SVG Export Plug-In . SVG Version: 6.00 Build 0)  -->
<svg version="1.1" id="Layer_1" xmlns="http://www.w3.org/2000/svg" xmlns:xlink="http://www.w3.org/1999/xlink" x="0px" y="0px"
	 viewBox="0 0 55.2 69.3" style="enable-background:new 0 0 55.2 69.3;" xml:space="preserve">
<style type="text/css">
	.st0{fill:#B0B0B0;}
</style>
<path class="st0" d="M32.3,36.9L52,44.7c1.2,0.5,2.5-0.1,3-1.2c0.1-0.4,0.2-0.7,0.2-1.1L55,39.7c0-0.7-0.4-1.3-1-1.7
	c-14.5-10.1-12.9-9.2-21.6-15.3V4c0-2.7-2.4-4.1-4.8-4s-4.8,1.3-4.8,4v18.7c-8.7,6.1-7.2,5.2-21.6,15.3c-0.6,0.4-0.9,1-1,1.7L0,42.3
	c-0.1,1.3,0.8,2.4,2.1,2.5c0.3,0,0.7,0,1-0.2l19.7-7.8c0,0-0.1,23,0,23.4l-7.3,5c-0.6,0.4-1,1.1-1,1.9l0,0c0,1.3,1.1,2.3,2.4,2.2
	c0.2,0,0.4,0,0.7-0.1l7.5-2.6H30l7.5,2.6c1.2,0.4,2.5-0.3,2.9-1.5c0.1-0.2,0.1-0.4,0.1-0.7l0,0c0-0.8-0.4-1.5-1-1.9l-7.3-5
	C32.4,59.9,32.3,36.9,32.3,36.9z"/>
</svg>
