<?xml version="1.0" encoding="utf-8"?>
<!-- Generator: Adobe Illustrator 26.0.3, SVG Export Plug-In . SVG Version: 6.00 Build 0)  -->
<svg version="1.1" id="Layer_1" xmlns="http://www.w3.org/2000/svg" xmlns:xlink="http://www.w3.org/1999/xlink" x="0px" y="0px"
	 viewBox="0 0 102.3 162.6" style="enable-background:new 0 0 102.3 162.6;" xml:space="preserve">
<style type="text/css">
	.st0{fill:#E0A522;}
	.st1{fill:none;stroke:#E0A522;stroke-width:5;stroke-miterlimit:10;}
</style>
<g>
	<path class="st0" d="M51.2,35.8c3.3,0,6.9,1.7,6.9,5.5V76v1l0.9,0.6c7.4,5.2,10.9,7.7,14.9,10.6c4.7,3.4,10.6,7.6,25,17.8
		c0.4,0.4,0.9,0.9,1,1.8l0.4,4.7c0,0.4-0.1,0.8-0.2,1.2c-0.3,0.8-1.1,1.4-2,1.4c-0.3,0-0.6-0.1-0.9-0.2l-36.5-14.4L58,99.4l0,2.9
		c0,16.5,0.1,41.5,0,43.2l-0.2,1.1l1,0.7l13.3,9.2c0.6,0.4,1,1.1,1,1.8c0,0,0,0.3-0.1,0.8c-0.3,0.9-1.1,1.5-2.1,1.5
		c-0.2,0-0.5,0-0.8-0.1l-14-4.8l-0.3-0.1h-0.3h-9.1h-0.3l-0.3,0.1l-13.9,4.8c-0.3,0.1-0.5,0.1-0.7,0.1h0l0,0l-0.1,0
		c-1.2,0-2.1-1-2.1-2.2c0-0.7,0.4-1.4,1-1.8l13.5-9.2l1.1-0.7l-0.2-1.2c-0.1-1.9,0-26.7,0-43.2l0-2.9l-2.7,1.1L5.1,114.8l-0.1,0
		l-0.1,0C4.8,115,4.6,115,4.4,115c0,0-0.1,0-0.1,0l-0.1,0l-0.1,0c-1.3-0.1-2.2-1.2-2.1-2.4l0.4-4.8c0-0.4,0.2-1.2,0.9-1.7l0,0l0,0
		c14.4-10.1,20.3-14.3,25-17.7c4.2-3,7.6-5.4,15.1-10.7l0.9-0.6v-1V41.3C44.3,37,48.7,35.8,51.2,35.8 M51.2,33.8
		c-4.4,0-8.9,2.4-8.9,7.5V76C26.1,87.3,29,85.6,2.2,104.4c-1.1,0.7-1.7,1.9-1.8,3.2L0,112.4c-0.2,2.4,1.6,4.4,3.9,4.6
		c0.2,0,0.3,0,0.5,0c0.5,0,1-0.1,1.4-0.3l36.5-14.4c0,0-0.1,42.8,0,43.4l-13.5,9.2c-1.2,0.8-1.9,2.1-1.9,3.5c0,2.3,1.9,4.2,4.1,4.2
		c0.1,0,0.1,0,0.2,0c0.5,0,0.9-0.1,1.3-0.2l14-4.8h9.1l14,4.8c0.5,0.2,0.9,0.2,1.4,0.2c1.8,0,3.4-1.1,4-2.9c0.1-0.4,0.2-0.9,0.2-1.3
		c0-1.4-0.7-2.7-1.9-3.5L60,145.7c0.1-0.7,0-43.4,0-43.4l36.5,14.4c0.5,0.2,1.1,0.3,1.6,0.3c1.7,0,3.3-1,3.9-2.7
		c0.2-0.6,0.3-1.3,0.3-1.9l-0.4-4.8c-0.1-1.3-0.8-2.4-1.8-3.2C73.3,85.6,76.3,87.3,60.1,76V41.3C60.1,36.3,55.6,33.8,51.2,33.8
		L51.2,33.8z"/>
</g>
<line class="st1" x1="51.2" y1="22" x2="51.2" y2="12.6"/>
<polygon class="st0" points="60,15.1 51.2,0 42.5,15.1 "/>
</svg>
