<svg id="Layer_1" data-name="Layer 1" xmlns="http://www.w3.org/2000/svg" viewBox="0 0 318.8 318.8"><defs><style>.cls-1{fill:#545454;}.cls-2{isolation:isolate;}.cls-3{fill:#fff;}.cls-4,.cls-5{fill:none;stroke:#fff;stroke-miterlimit:10;}.cls-4{stroke-width:5px;}.cls-5{stroke-width:2px;}</style></defs><circle class="cls-1" cx="159.4" cy="159.4" r="159.4"/><g class="cls-2"><path class="cls-3" d="M165.68,42.28h-3.34L154.14,29h-.09l0,.74c.11,1.41.16,2.7.16,3.87v8.67h-2.47V25.61h3.31l8.17,13.21h.07c0-.17-.05-.81-.09-1.9s-.07-2-.07-2.58V25.61h2.5Z" transform="translate(0 0)"/></g><g class="cls-2"><path class="cls-3" d="M233.31,50.81a3.81,3.81,0,0,1-.89,2.61,4.51,4.51,0,0,1-2.54,1.36v.09a4.77,4.77,0,0,1,3,1.28,3.73,3.73,0,0,1,1,2.69,4.38,4.38,0,0,1-1.65,3.67,7.55,7.55,0,0,1-4.7,1.28,13.85,13.85,0,0,1-2.42-.2,8.38,8.38,0,0,1-2.14-.7v-1.8a11,11,0,0,0,4.63,1.09q4.32,0,4.32-3.39,0-3-4.76-3h-1.65V54.13h1.67a5,5,0,0,0,3.09-.86,2.82,2.82,0,0,0,1.14-2.39,2.34,2.34,0,0,0-.84-1.91,3.42,3.42,0,0,0-2.27-.7,7,7,0,0,0-2.07.3A9.12,9.12,0,0,0,224,49.66l-1-1.28a8.16,8.16,0,0,1,2.37-1.27,8.77,8.77,0,0,1,2.82-.46A5.75,5.75,0,0,1,232,47.76,3.74,3.74,0,0,1,233.31,50.81Z" transform="translate(0 0)"/></g><g class="cls-2"><path class="cls-3" d="M265.54,101.89q0-4.9,1.91-7.34a6.74,6.74,0,0,1,5.65-2.44,7.27,7.27,0,0,1,2,.22V94a6.43,6.43,0,0,0-2-.29,5.09,5.09,0,0,0-4.1,1.67,8.6,8.6,0,0,0-1.55,5.25h.14a4.39,4.39,0,0,1,4-2,4.7,4.7,0,0,1,3.54,1.36,5.13,5.13,0,0,1,1.29,3.68,5.65,5.65,0,0,1-1.42,4.09,5,5,0,0,1-3.83,1.49,4.93,4.93,0,0,1-4.11-2A8.6,8.6,0,0,1,265.54,101.89Zm5.6,5.75a3.18,3.18,0,0,0,2.52-1,4.37,4.37,0,0,0,.89-3,3.83,3.83,0,0,0-.83-2.6,3.14,3.14,0,0,0-2.49-.94,4.22,4.22,0,0,0-1.88.42,3.5,3.5,0,0,0-1.36,1.16,2.7,2.7,0,0,0-.51,1.54,5.21,5.21,0,0,0,.46,2.19,3.82,3.82,0,0,0,1.29,1.61A3.27,3.27,0,0,0,271.14,107.64Z" transform="translate(0 0)"/></g><g class="cls-2"><path class="cls-3" d="M293.35,168.55h-9.43V151.88h9.43v2.3h-6.7v4.54h6.28V161h-6.28v5.24h6.7Z" transform="translate(0 0)"/></g><g class="cls-2"><path class="cls-3" d="M164.51,287.08a4.16,4.16,0,0,1-1.61,3.49,7,7,0,0,1-4.43,1.27,10.5,10.5,0,0,1-4.63-.88v-2.58a12.83,12.83,0,0,0,2.42.85,10.55,10.55,0,0,0,2.39.3,3.8,3.8,0,0,0,2.39-.61,2,2,0,0,0,.77-1.65,2.07,2.07,0,0,0-.71-1.59,10.56,10.56,0,0,0-2.92-1.54A7.63,7.63,0,0,1,155,282a4.48,4.48,0,0,1-.94-2.85,4,4,0,0,1,1.49-3.28,6.12,6.12,0,0,1,4-1.2,11.67,11.67,0,0,1,4.76,1.05l-.87,2.22a10.43,10.43,0,0,0-4-.93,3.09,3.09,0,0,0-2,.57,1.9,1.9,0,0,0-.68,1.53,2.17,2.17,0,0,0,.27,1.11,2.69,2.69,0,0,0,.9.87,14.83,14.83,0,0,0,2.26,1.08,12.48,12.48,0,0,1,2.69,1.43,4.14,4.14,0,0,1,1.25,1.49A4.46,4.46,0,0,1,164.51,287.08Z" transform="translate(0 0)"/></g><g class="cls-2"><path class="cls-3" d="M259.86,221.75H258V209.87c0-1,0-1.92.09-2.8l-.54.5-2.71,2.22-1-1.3,4.42-3.41h1.59Z" transform="translate(0 0)"/><path class="cls-3" d="M277.16,221.75h-11v-1.63l4.39-4.41a33.54,33.54,0,0,0,2.65-2.9,7.45,7.45,0,0,0,.95-1.69,4.63,4.63,0,0,0,.32-1.76,2.81,2.81,0,0,0-.81-2.12,3.08,3.08,0,0,0-2.24-.78,5.87,5.87,0,0,0-2,.34,8,8,0,0,0-2.07,1.25l-1-1.29a7.66,7.66,0,0,1,5-1.92,5.28,5.28,0,0,1,3.69,1.21,4.11,4.11,0,0,1,1.33,3.23,6.16,6.16,0,0,1-.89,3.13,19.49,19.49,0,0,1-3.33,3.92l-3.65,3.57V220h8.58Z" transform="translate(0 0)"/></g><g class="cls-2"><path class="cls-3" d="M89.28,269.47h-11v-1.63l4.39-4.41a31.33,31.33,0,0,0,2.64-2.9,7.15,7.15,0,0,0,1-1.69,4.63,4.63,0,0,0,.32-1.76,2.81,2.81,0,0,0-.81-2.12,3.1,3.1,0,0,0-2.24-.78,5.82,5.82,0,0,0-2,.34,8,8,0,0,0-2.07,1.25l-1-1.29a7.64,7.64,0,0,1,5-1.92,5.32,5.32,0,0,1,3.69,1.2A4.15,4.15,0,0,1,88.57,257a6.26,6.26,0,0,1-.89,3.13,19.49,19.49,0,0,1-3.33,3.92l-3.65,3.57v.09h8.58Z" transform="translate(0 0)"/><path class="cls-3" d="M98.68,269.47H96.84V257.59c0-1,0-1.92.09-2.8l-.54.5-2.71,2.22-1-1.3,4.42-3.41h1.59Z" transform="translate(0 0)"/></g><g class="cls-2"><path class="cls-3" d="M56,221.75H45v-1.63l4.39-4.41a31.33,31.33,0,0,0,2.64-2.9,7.15,7.15,0,0,0,1-1.69,4.63,4.63,0,0,0,.32-1.76,2.81,2.81,0,0,0-.81-2.12,3.1,3.1,0,0,0-2.24-.78,5.82,5.82,0,0,0-2,.34,8,8,0,0,0-2.07,1.25l-1-1.29a7.64,7.64,0,0,1,5-1.92A5.28,5.28,0,0,1,54,206.05a4.11,4.11,0,0,1,1.33,3.23,6.26,6.26,0,0,1-.89,3.13,19.49,19.49,0,0,1-3.33,3.92l-3.65,3.57V220H56Z" transform="translate(0 0)"/><path class="cls-3" d="M70.13,217.92H67.66v3.83H65.85v-3.83H57.74v-1.65L65.65,205h2V216.2h2.47Zm-4.28-1.72v-5.54c0-1.09,0-2.32.11-3.69h-.09a16.4,16.4,0,0,1-1,1.82l-5.21,7.41Z" transform="translate(0 0)"/></g><g class="cls-2"><path class="cls-3" d="M40.8,168.55h-3L35,158.61c-.12-.43-.27-1.06-.46-1.88s-.29-1.38-.33-1.7c-.07.48-.2,1.12-.37,1.89s-.31,1.35-.43,1.73l-2.75,9.9h-3l-2.15-8.35-2.19-8.32h2.78l2.38,9.71c.37,1.56.64,2.94.8,4.13.08-.64.21-1.37.38-2.16s.32-1.45.45-1.94l2.72-9.74h2.7l2.78,9.78a34.78,34.78,0,0,1,.84,4.06,31.38,31.38,0,0,1,.82-4.15l2.38-9.69h2.76Z" transform="translate(0 0)"/></g><g class="cls-2"><path class="cls-3" d="M93.85,50.81a3.76,3.76,0,0,1-.9,2.61,4.45,4.45,0,0,1-2.53,1.36v.09a4.77,4.77,0,0,1,3,1.28,3.73,3.73,0,0,1,1,2.69,4.38,4.38,0,0,1-1.65,3.67A7.55,7.55,0,0,1,88,63.79a13.85,13.85,0,0,1-2.42-.2,8.38,8.38,0,0,1-2.14-.7v-1.8a11,11,0,0,0,4.63,1.09q4.32,0,4.32-3.39,0-3-4.76-3H86V54.13h1.67a5,5,0,0,0,3.09-.86,2.82,2.82,0,0,0,1.14-2.39A2.34,2.34,0,0,0,91.05,49a3.42,3.42,0,0,0-2.27-.7,7,7,0,0,0-2.07.3,9.12,9.12,0,0,0-2.21,1.09l-1-1.28a8.16,8.16,0,0,1,2.37-1.27,8.77,8.77,0,0,1,2.82-.46,5.75,5.75,0,0,1,3.77,1.11A3.74,3.74,0,0,1,93.85,50.81Z" transform="translate(0 0)"/><path class="cls-3" d="M107.2,50.81a3.81,3.81,0,0,1-.89,2.61,4.51,4.51,0,0,1-2.54,1.36v.09a4.77,4.77,0,0,1,3,1.28,3.73,3.73,0,0,1,1,2.69,4.38,4.38,0,0,1-1.65,3.67,7.55,7.55,0,0,1-4.7,1.28,13.85,13.85,0,0,1-2.42-.2,8.38,8.38,0,0,1-2.14-.7v-1.8a11,11,0,0,0,4.63,1.09q4.32,0,4.32-3.39,0-3-4.76-3H99.35V54.13H101a5,5,0,0,0,3.09-.86,2.82,2.82,0,0,0,1.14-2.39A2.34,2.34,0,0,0,104.4,49a3.42,3.42,0,0,0-2.27-.7,7,7,0,0,0-2.07.3,9.12,9.12,0,0,0-2.21,1.09l-1-1.28a8.16,8.16,0,0,1,2.37-1.27,8.77,8.77,0,0,1,2.82-.46,5.79,5.79,0,0,1,3.78,1.11A3.76,3.76,0,0,1,107.2,50.81Z" transform="translate(0 0)"/></g><line class="cls-4" x1="159.3" x2="159.3" y2="17"/><line class="cls-4" x1="159.3" y1="301.7" x2="159.3" y2="318.7"/><line class="cls-4" x1="318.7" y1="159.3" x2="301.7" y2="159.3"/><line class="cls-4" x1="17" y1="159.3" y2="159.3"/><line class="cls-4" x1="246.3" y1="292.9" x2="237.1" y2="278.6"/><line class="cls-4" x1="81.6" y1="40.1" x2="72.3" y2="25.8"/><line class="cls-4" x1="299.9" y1="234.5" x2="284.9" y2="226.4"/><line class="cls-4" x1="33.8" y1="92.4" x2="18.8" y2="84.4"/><line class="cls-4" x1="72.4" y1="292.9" x2="81.7" y2="278.7"/><line class="cls-4" x1="237.1" y1="40.1" x2="246.4" y2="25.9"/><line class="cls-4" x1="18.8" y1="234.5" x2="33.8" y2="226.5"/><line class="cls-4" x1="284.9" y1="92.4" x2="299.9" y2="84.4"/><g class="cls-2"><path class="cls-3" d="M223.85,269.47H222V257.59c0-1,0-1.92.1-2.8l-.54.5-2.71,2.22-1-1.3,4.42-3.41h1.59Z" transform="translate(0 0)"/><path class="cls-3" d="M235.4,259.29a6.14,6.14,0,0,1,4.15,1.3,4.51,4.51,0,0,1,1.51,3.58,5.17,5.17,0,0,1-1.65,4.06,6.58,6.58,0,0,1-4.54,1.47,8.37,8.37,0,0,1-4.3-.9V267a6.7,6.7,0,0,0,2,.81,10,10,0,0,0,2.34.29,4.67,4.67,0,0,0,3.12-.95,3.39,3.39,0,0,0,1.11-2.74q0-3.48-4.28-3.48a17,17,0,0,0-2.89.33l-1-.63.62-7.8h8.29v1.75h-6.67l-.42,5A13.75,13.75,0,0,1,235.4,259.29Z" transform="translate(0 0)"/></g><g class="cls-2"><path class="cls-3" d="M55.37,96.27a3.76,3.76,0,0,1-.9,2.61,4.45,4.45,0,0,1-2.53,1.36v.09a4.77,4.77,0,0,1,3,1.28,3.73,3.73,0,0,1,1,2.69A4.38,4.38,0,0,1,54.23,108a7.55,7.55,0,0,1-4.7,1.28,13.85,13.85,0,0,1-2.42-.2,8.38,8.38,0,0,1-2.14-.7v-1.8a11,11,0,0,0,4.63,1.09q4.32,0,4.32-3.39,0-3-4.76-3H47.51V99.59h1.67a5,5,0,0,0,3.09-.86,2.82,2.82,0,0,0,1.14-2.39,2.34,2.34,0,0,0-.84-1.91,3.42,3.42,0,0,0-2.27-.7,7,7,0,0,0-2.07.3A9.5,9.5,0,0,0,46,95.12l-1-1.27a8.18,8.18,0,0,1,2.37-1.28,8.77,8.77,0,0,1,2.82-.46A5.75,5.75,0,0,1,54,93.22,3.74,3.74,0,0,1,55.37,96.27Z" transform="translate(0 0)"/><path class="cls-3" d="M69.44,100.66c0,2.88-.46,5-1.36,6.46a5,5,0,0,1-8.26-.05,11.9,11.9,0,0,1-1.41-6.41c0-2.9.46-5,1.36-6.46a5,5,0,0,1,8.26.09A11.87,11.87,0,0,1,69.44,100.66Zm-9.11,0a12.24,12.24,0,0,0,.85,5.3,3.07,3.07,0,0,0,5.47,0,12.26,12.26,0,0,0,.85-5.28,12.19,12.19,0,0,0-.85-5.26,3.08,3.08,0,0,0-5.47,0A12.14,12.14,0,0,0,60.33,100.66Z" transform="translate(0 0)"/></g><line class="cls-5" x1="206.8" y1="7.6" x2="201.7" y2="23.8"/><line class="cls-5" x1="118.1" y1="295.8" x2="113.2" y2="312.1"/><line class="cls-5" x1="313.9" y1="198" x2="297.4" y2="193.9"/><line class="cls-5" x1="21.2" y1="124.8" x2="4.7" y2="120.6"/><line class="cls-5" x1="205.5" y1="312" x2="199.9" y2="295.9"/><line class="cls-5" x1="117.9" y1="23" x2="113.2" y2="6.7"/><line class="cls-5" x1="277.5" y1="266.3" x2="264.9" y2="254.9"/><line class="cls-5" x1="53.8" y1="63.9" x2="41.2" y2="52.5"/><line class="cls-5" x1="42.6" y1="267.8" x2="55" y2="256.3"/><line class="cls-5" x1="263.7" y1="62.6" x2="276.2" y2="51"/><line class="cls-5" x1="4.7" y1="198.1" x2="21.2" y2="194"/><line class="cls-5" x1="297.4" y1="124.9" x2="313.9" y2="120.8"/></svg>