<?xml version="1.0" encoding="utf-8"?>
<!-- Generator: Adobe Illustrator 26.0.3, SVG Export Plug-In . SVG Version: 6.00 Build 0)  -->
<svg version="1.1" id="Layer_1" xmlns="http://www.w3.org/2000/svg" xmlns:xlink="http://www.w3.org/1999/xlink" x="0px" y="0px"
	 viewBox="0 0 102 102" style="enable-background:new 0 0 102 102;" xml:space="preserve">
<style type="text/css">
	.st0{fill:#E0A522;}
</style>
<g>
	<path class="st0" d="M51,3c26.5,0,48,21.5,48,48S77.5,99,51,99S3,77.5,3,51S24.5,3,51,3 M51,0C22.8,0,0,22.8,0,51s22.8,51,51,51
		s51-22.8,51-51S79.2,0,51,0L51,0z"/>
</g>
<g>
	<path class="st0" d="M51,20.7c16.7,0,30.3,13.6,30.3,30.3S67.7,81.3,51,81.3S20.7,67.7,20.7,51S34.3,20.7,51,20.7 M51,17.7
		c-18.4,0-33.3,14.9-33.3,33.3S32.6,84.3,51,84.3S84.3,69.4,84.3,51S69.4,17.7,51,17.7L51,17.7z"/>
</g>
<g>
	<path class="st0" d="M51,39.9c6.1,0,11.1,5,11.1,11.1s-5,11.1-11.1,11.1s-11.1-5-11.1-11.1S44.9,39.9,51,39.9 M51,36.9
		c-7.8,0-14.1,6.3-14.1,14.1S43.2,65.1,51,65.1S65.1,58.8,65.1,51S58.8,36.9,51,36.9L51,36.9z"/>
</g>
</svg>
