<?xml version="1.0" encoding="utf-8"?>
<!-- Generator: Adobe Illustrator 26.0.3, SVG Export Plug-In . SVG Version: 6.00 Build 0)  -->
<svg version="1.1" id="Layer_1" xmlns="http://www.w3.org/2000/svg" xmlns:xlink="http://www.w3.org/1999/xlink" x="0px" y="0px"
	 viewBox="0 0 123.3 188.9" style="enable-background:new 0 0 123.3 188.9;" xml:space="preserve">
<style type="text/css">
	.st0{fill:#444444;}
</style>
<g>
	<circle class="st0" cx="58.1" cy="167" r="21.9"/>
	<path class="st0" d="M59.6,0C25.5,0,0,23.4,0,48.1c0,0,0.6,13.8,16.4,13.8c24.1,0,11.8-33.4,45.3-33.4c13.6,0,23.4,8,23.4,22.7
		c0,22.7-44.7,31.1-44.7,60.3c0,9.8,7.3,17.1,16.2,17.1c17.8,0,15.5-16.2,22.9-23.6c9.9-9.9,43.8-24.3,43.8-54.2
		C123.4,18.7,97.4,0,59.6,0z"/>
</g>
</svg>
