<?xml version="1.0" encoding="utf-8"?>
<!-- Generator: Adobe Illustrator 26.0.3, SVG Export Plug-In . SVG Version: 6.00 Build 0)  -->
<svg version="1.1" id="Layer_1" xmlns="http://www.w3.org/2000/svg" xmlns:xlink="http://www.w3.org/1999/xlink" x="0px" y="0px"
	 viewBox="0 0 155 123.1" style="enable-background:new 0 0 155 123.1;" xml:space="preserve">
<style type="text/css">
	.st0{fill:#BABABA;}
</style>
<path class="st0" d="M77.5,109.9c0.1,3.9-3,7-6.9,7.1c-1.7,0-3.3-0.6-4.6-1.7L27.5,83.4H7c-3.9,0-7-3.1-7-7V48.3c0-3.9,3.1-7,7-7
	h20.5L66,9.4c2.9-2.5,7.4-2.2,9.9,0.8c1.1,1.3,1.7,2.9,1.7,4.6V109.9L77.5,109.9z M104.6,98.9c-0.2,0-0.3,0-0.5,0
	c-1.9,0-3.7-0.7-5-2.1l-0.9-0.9c-2.5-2.5-2.8-6.4-0.7-9.2c11.1-15,10.7-35.7-1.1-50.2c-2.3-2.8-2.1-6.9,0.5-9.4l1-0.9
	c1.4-1.4,3.3-2.2,5.3-2c2,0.1,3.8,1,5.1,2.6c16.3,20,16.9,48.6,1.5,69.4C108.5,97.7,106.6,98.7,104.6,98.9L104.6,98.9z M133.7,120.6
	c-1.3,1.5-3.1,2.4-5.1,2.5h-0.3c-1.9,0-3.7-0.7-5-2.1l-0.9-0.9c-2.6-2.6-2.8-6.7-0.4-9.5c23.9-28.5,23.4-70.2-1.2-98
	c-2.5-2.8-2.4-7,0.3-9.6l0.9-0.9c1.4-1.4,3.2-2.2,5.2-2.1c1.9,0.1,3.8,0.9,5.1,2.4C162,36,162.7,86.4,133.7,120.6L133.7,120.6z"/>
</svg>
