<?xml version="1.0" encoding="utf-8"?>
<!-- Generator: Adobe Illustrator 26.0.2, SVG Export Plug-In . SVG Version: 6.00 Build 0)  -->
<svg version="1.1" id="Layer_1" xmlns="http://www.w3.org/2000/svg" xmlns:xlink="http://www.w3.org/1999/xlink" x="0px" y="0px"
	 viewBox="0 0 91.3 91.3" style="enable-background:new 0 0 91.3 91.3;" xml:space="preserve">
<style type="text/css">
	.st0{fill:#00ACDD;}
	.st1{fill:#FFFFFF;}
</style>
<circle class="st0" cx="45.7" cy="45.7" r="45.7"/>
<path class="st1" d="M30,28.9h10.2c0.4,0,0.8,0.3,0.8,0.8v32c0,0.4-0.3,0.8-0.8,0.8H30c-0.4,0-0.8-0.3-0.8-0.8v-32
	C29.3,29.2,29.6,28.9,30,28.9z"/>
<path class="st1" d="M51.1,28.9h10.2c0.4,0,0.8,0.3,0.8,0.8v32c0,0.4-0.3,0.8-0.8,0.8H51.1c-0.4,0-0.8-0.3-0.8-0.8v-32
	C50.3,29.2,50.6,28.9,51.1,28.9z"/>
</svg>
