<?xml version="1.0" encoding="utf-8"?>
<!-- Generator: Adobe Illustrator 26.5.0, SVG Export Plug-In . SVG Version: 6.00 Build 0)  -->
<svg version="1.1" id="Layer_1" xmlns="http://www.w3.org/2000/svg" xmlns:xlink="http://www.w3.org/1999/xlink" x="0px" y="0px"
	 viewBox="0 0 212.7 125.1" style="enable-background:new 0 0 212.7 125.1;" xml:space="preserve">
<style type="text/css">
	.st0{fill:#FFFFFF;}
	.st1{fill:#00ACDD;}
</style>
<path class="st0" d="M1.8,43.2l0.3-0.3l50-41.4c1.2-1,2.7-1.5,4.3-1.5c3.5-0.1,6.4,2.5,6.5,6v0.1v16.5h51c0.5,0,1.1,0,1.8,0l4.7,0.2
	c3.5,0.1,6.9,0.5,10.4,1.2c20.8,3.4,39.8,13.5,54.4,28.7c8.4,8.8,15.1,19,19.9,30.1l0.2,0.6c1.7,4.2,3.1,8.6,4.3,13
	c0.1,0.6,0.3,1.2,0.5,1.8c0.4,1.3,0.7,2.7,0.9,4.1l0.5,3.3c0,0,0.4,2.5,0.4,2.9c0.2,1,0.3,2,0.4,2.9l0.3,5.4
	c0.2,2.3-0.6,4.6-2.1,6.4c-1.1,1.2-2.6,1.8-4.2,1.9l0,0h-36.1c-3.5,0-6.4-2.7-6.6-6.2l-0.1-1.4l-0.1-1.6c0-0.2-0.1-0.5-0.1-0.7
	s-0.1-0.7-0.2-1.1l-0.4-2.9c-0.1-0.4-0.2-0.8-0.3-1.2c-0.1-0.5-0.3-1-0.4-1.6c-0.4-1.5-0.8-3-1.4-4.5c-0.3-0.7-0.5-1.4-0.8-2.2
	c-2.4-5.5-5.8-10.5-10-14.9c-4.8-5-10.6-8.9-17-11.5c-3.3-1.3-6.6-2.2-10.1-2.8l-1.1-0.2c-1.3-0.2-2.6-0.4-3.8-0.4h0l-3.1-0.2H63
	v16.5c-0.1,3.5-2.9,6.2-6.4,6.1h-0.1c-1.6,0-3.1-0.5-4.3-1.5l-50-41.3l-0.3-0.3c-2.2-1.8-2.6-5-0.8-7.2C1.3,43.7,1.6,43.4,1.8,43.2
	L1.8,43.2z"/>
<path class="st1" d="M208.3,114.7c-0.1-0.8-0.1-1.8-0.2-2.9s-0.3-2.4-0.5-3.9s-0.5-3.1-0.8-4.8s-0.8-3.6-1.3-5.6
	c-1.1-4.5-2.6-8.9-4.3-13.1c-4.6-10.6-11-20.3-19-28.7c-13.9-14.5-32.2-24.1-52-27.4c-3.2-0.6-6.5-1-9.8-1.1l-4.8-0.2
	c-0.9,0-1.5,0-2.1,0H58.7V6.1c0-1.7-2.4-2.5-3.8-1.3L4.6,46.5c-0.2,0.2-0.4,0.4-0.4,0.7c0,0.3,0.1,0.6,0.4,0.7l50.3,41.6
	c1.4,1.2,3.8,0.4,3.8-1.3V67.4h54.8c0.6,0,1.3,0,1.7,0l2.8,0.2c1.9,0.1,3.7,0.3,5.6,0.6c11.3,1.8,21.7,7.3,29.5,15.6
	c4.5,4.8,8.2,10.3,10.8,16.3c1,2.4,1.8,4.9,2.4,7.4c0.3,1,0.6,2.1,0.8,3.2c0.1,1,0.3,1.9,0.4,2.8s0.3,1.6,0.3,2.2s0.1,1.2,0.1,1.7
	c0,0.9,0.1,1.4,0.1,1.4c0.1,1.2,1.1,2.1,2.4,2.1h36c1.2,0,2.2-1.7,2.1-3.7C208.4,117.2,208.4,116.3,208.3,114.7z"/>
</svg>
