<?xml version="1.0" encoding="utf-8"?>
<!-- Generator: Adobe Illustrator 26.5.0, SVG Export Plug-In . SVG Version: 6.00 Build 0)  -->
<svg version="1.1" id="Layer_1" xmlns="http://www.w3.org/2000/svg" xmlns:xlink="http://www.w3.org/1999/xlink" x="0px" y="0px"
	 viewBox="0 0 147.1 141.9" style="enable-background:new 0 0 147.1 141.9;" xml:space="preserve">
<style type="text/css">
	.st0{fill:#FFFFFF;}
	.st1{fill:#00ACDD;}
</style>
<path class="st0" d="M147.1,64.6l-0.1-3.1c-0.1-2.3-0.4-4.6-0.8-6.9c-0.8-4.6-2.1-9.2-3.9-13.5c-3.6-8.7-9-16.4-15.9-22.8
	c-6.1-5.6-13.2-10.1-20.9-13.3L105,4.8c-2.9-1.1-5.9-2.1-9-2.8l-1.3-0.3c-0.9-0.3-1.9-0.5-2.8-0.6l-2.3-0.4l-2-0.3
	c-0.7-0.1-1.4-0.2-2-0.2L81.9,0c-0.3,0-0.6,0-0.9,0l-3.7,0.2c-0.6,0-1.3,0.1-2,0.2l-2,0.3L71,1.1c-1,0.2-1.9,0.4-2.8,0.6L66.8,2
	c-3.1,0.7-6.1,1.7-9,2.8L57.4,5c-7.7,3.2-14.8,7.6-20.9,13.3c-6.9,6.3-12.3,14.1-15.9,22.8c-1.8,4.3-3.1,8.9-3.9,13.5
	c-0.4,2.3-0.7,4.6-0.8,6.9l-0.2,3.1c0,0.5,0,0.9,0,1.2v34H4.3c-2.4,0-4.3,1.9-4.3,4.3c0,0,0,0.1,0,0.1c0,1,0.4,2.1,1.1,2.9
	l28.6,33.3l0.2,0.2c1.3,1.5,3.6,1.7,5.1,0.4c0.1-0.1,0.3-0.3,0.4-0.4l0.2-0.2l28.6-33.3c0.7-0.8,1.1-1.8,1.1-2.9
	c0-2.4-1.8-4.3-4.2-4.3c0,0-0.1,0-0.1,0H49.6c0-9.1,0-34.1,0-34.1c0-0.1,0-0.3,0-0.4l0.1-2.1v-0.1c0-0.9,0.1-1.7,0.3-2.6l0.1-0.7
	c0.4-2.3,1.1-4.6,1.9-6.7c1.8-4.3,4.5-8.2,7.9-11.3c3-2.8,6.5-5,10.3-6.6l1.5-0.5c1-0.4,2.1-0.7,3.1-0.9c0.4-0.1,0.8-0.2,1.1-0.3
	c0.3-0.1,0.5-0.1,0.8-0.2l2-0.3l0.7-0.1c0.2,0,0.4-0.1,0.5-0.1h1.1h0.1h1.1c0.2,0,0.3,0,0.5,0.1l0.7,0.1l2,0.3
	c0.3,0,0.5,0.1,0.8,0.2c0.3,0.1,0.7,0.2,1.1,0.3c1.1,0.2,2.1,0.5,3.1,0.9c0.5,0.2,1,0.3,1.5,0.5c3.8,1.6,7.3,3.8,10.3,6.6
	c3.4,3.2,6.2,7,7.9,11.3c0.9,2.2,1.6,4.4,1.9,6.7l0.1,0.7c0.2,0.8,0.3,1.7,0.3,2.6v0.1l0.1,2.1c0,0.1,0,0.3,0,0.4v9
	c0,1.8,1.5,3.3,3.3,3.3l0,0h27.3c1.8,0,3.3-1.5,3.3-3.3v0v-8.9C147.1,65.5,147.1,65.1,147.1,64.6z"/>
<path class="st1" d="M144.2,64.8c-0.1-1.1-0.1-2.1-0.2-3.2c-0.1-2.2-0.4-4.4-0.8-6.5c-0.8-4.4-2-8.8-3.8-12.9
	c-3.4-8.3-8.6-15.7-15.2-21.7c-5.8-5.4-12.6-9.7-19.9-12.7c-2.9-1.2-5.9-2.1-9-2.9c-1.4-0.3-2.7-0.7-3.9-0.9l-3.3-0.5
	c-1-0.1-1.9-0.3-2.7-0.4l-2-0.1l-1.7-0.1c-0.1,0-0.2,0-0.3,0s-0.2,0-0.3,0L79.4,3l-2,0.1c-0.8,0-1.7,0.2-2.7,0.4l-3.3,0.5
	c-1.2,0.2-2.5,0.6-3.9,0.9c-3.1,0.8-6.1,1.7-9.1,2.9c-7.3,3-14,7.3-19.8,12.7C32,26.4,26.8,33.8,23.3,42.1c-1.7,4.2-3,8.5-3.8,12.9
	c-0.4,2.2-0.7,4.3-0.8,6.5c-0.1,1.1-0.1,2.2-0.2,3.2c0,0.6,0,1,0,1.4v36.5H4.2c-0.8,0.1-1.4,0.9-1.3,1.7c0,0.3,0.2,0.6,0.4,0.8
	l28.8,33.5c0.1,0.2,0.3,0.2,0.5,0.2c0.2,0,0.4-0.1,0.5-0.2l28.8-33.5c0.6-0.6,0.5-1.6-0.1-2.2c-0.2-0.2-0.5-0.3-0.8-0.4H46.7V66.2
	c0-0.4,0-0.7,0-1.1c0-0.6,0.1-1.2,0.1-1.8c0-1.2,0.2-2.5,0.4-3.7c0.5-2.5,1.2-5,2.2-7.3c1.9-4.7,4.9-8.9,8.7-12.4
	c3.3-3,7.1-5.5,11.3-7.2c1.7-0.6,3.4-1.2,5.2-1.6c0.7-0.2,1.5-0.4,2.2-0.5l1.9-0.3c0.6-0.1,1.1-0.2,1.5-0.2h1.2h0.3h1.2
	c0.4,0,1,0.2,1.5,0.2l1.9,0.3c0.7,0.1,1.5,0.3,2.2,0.5c1.7,0.4,3.5,1,5.1,1.6c4.2,1.7,8,4.2,11.3,7.2c3.8,3.4,6.7,7.7,8.7,12.4
	c1,2.4,1.7,4.8,2.1,7.3c0.2,1.2,0.4,2.5,0.4,3.7c0,0.6,0.1,1.2,0.1,1.8c0,0.3,0,0.7,0,1.1v7.2c0,0.8,0.7,1.5,1.5,1.5h25.1
	c0.8,0,1.5-0.7,1.5-1.5v-7.2C144.2,65.8,144.2,65.3,144.2,64.8z"/>
</svg>
