<?xml version="1.0" encoding="utf-8"?>
<!-- Generator: Adobe Illustrator 26.5.0, SVG Export Plug-In . SVG Version: 6.00 Build 0)  -->
<svg version="1.1" id="Layer_1" xmlns="http://www.w3.org/2000/svg" xmlns:xlink="http://www.w3.org/1999/xlink" x="0px" y="0px"
	 viewBox="0 0 212.8 125.2" style="enable-background:new 0 0 212.8 125.2;" xml:space="preserve">
<style type="text/css">
	.st0{fill:#FFFFFF;}
	.st1{fill:#00ACDD;}
</style>
<path class="st0" d="M210.9,43.2l-0.3-0.3l-50-41.4c-1.2-1-2.7-1.5-4.3-1.5c-3.5-0.1-6.4,2.5-6.5,6c0,0,0,0.1,0,0.1v16.5h-51
	c-0.5,0-1.1,0-1.8,0l-4.7,0.2c-3.5,0.2-6.9,0.6-10.3,1.2C61.1,27.5,42,37.5,27.4,52.7c-8.4,8.8-15.1,19-19.9,30.1l-0.2,0.6
	c-1.7,4.2-3.1,8.6-4.3,13c-0.1,0.6-0.3,1.2-0.5,1.8c-0.4,1.3-0.7,2.7-0.9,4.1l-0.5,3.4c0,0-0.4,2.5-0.4,2.9c-0.2,1-0.3,2-0.4,2.9
	L0,117c-0.2,2.3,0.6,4.6,2.1,6.4c1.1,1.2,2.6,1.8,4.2,1.9l0,0h36.1c3.5,0,6.4-2.7,6.6-6.2l0.1-1.4l0.1-1.6c0-0.2,0.1-0.5,0.1-0.7
	s0.1-0.7,0.2-1.1l0.4-2.9c0.1-0.4,0.2-0.8,0.3-1.2c0.1-0.5,0.3-1,0.4-1.6c0.4-1.5,0.8-3,1.4-4.5c0.3-0.7,0.5-1.4,0.8-2.2
	c2.4-5.5,5.8-10.5,9.9-14.9c4.8-5,10.6-8.9,17-11.5c3.3-1.3,6.6-2.2,10.1-2.8l1.1-0.2c1.3-0.2,2.6-0.4,3.8-0.4h0.2l3.1-0.2h51.8
	v16.5c0.1,3.5,2.9,6.2,6.4,6.1c0,0,0.1,0,0.1,0c1.6,0,3.1-0.5,4.3-1.5l50-41.3l0.3-0.3c2.2-1.8,2.6-5,0.8-7.2
	C211.4,43.7,211.2,43.4,210.9,43.2L210.9,43.2z"/>
<path class="st1" d="M4.4,114.7c0-0.8,0.1-1.8,0.2-2.9s0.3-2.4,0.5-3.9s0.5-3.1,0.8-4.8s0.8-3.6,1.3-5.6c1.1-4.5,2.6-8.9,4.3-13.1
	c4.6-10.6,11-20.3,19-28.7c13.9-14.5,32.2-24.1,52-27.4c3.2-0.6,6.5-1,9.8-1.1l4.8-0.2c0.9,0,1.5,0,2.1,0H154V6.1
	c0-1.7,2.4-2.5,3.8-1.3l50.3,41.6c0.2,0.2,0.4,0.4,0.4,0.7c0,0.3-0.1,0.6-0.4,0.7l-50.3,41.6c-1.4,1.2-3.8,0.4-3.8-1.3V67.4H99.2
	c-0.6,0-1.3,0-1.7,0l-2.8,0.2c-1.9,0.1-3.7,0.3-5.6,0.6c-11.3,1.8-21.7,7.3-29.6,15.6c-4.5,4.8-8.2,10.3-10.8,16.3
	c-1,2.4-1.8,4.9-2.4,7.4c-0.3,1-0.6,2.1-0.8,3.2c-0.2,1-0.3,1.9-0.4,2.8s-0.3,1.6-0.3,2.2s-0.1,1.2-0.1,1.7c0,0.9-0.1,1.4-0.1,1.4
	c-0.1,1.2-1.1,2.1-2.4,2.1h-36c-1.2,0-2.2-1.7-2.1-3.7C4.3,117.1,4.3,116.3,4.4,114.7z"/>
</svg>
