<?xml version="1.0" encoding="utf-8"?>
<!-- Generator: Adobe Illustrator 26.5.0, SVG Export Plug-In . SVG Version: 6.00 Build 0)  -->
<svg version="1.1" id="Layer_1" xmlns="http://www.w3.org/2000/svg" xmlns:xlink="http://www.w3.org/1999/xlink" x="0px" y="0px"
	 viewBox="0 0 108.8 138.3" style="enable-background:new 0 0 108.8 138.3;" xml:space="preserve">
<style type="text/css">
	.st0{fill:#FFFFFF;}
	.st1{fill:#74D813;}
</style>
<path class="st0" d="M7.1,72.7h19l-0.3,60c0,3.1,2.5,5.6,5.5,5.6c0,0,0,0,0,0h45.5c3.1,0,5.6-2.5,5.6-5.6l0.2-60.1h19
	c4-0.1,7.2-3.4,7.1-7.4c0,0,0-0.1,0-0.1c0-1.8-0.6-3.6-1.8-5L59.3,2.6L59,2.2c-2.1-2.6-5.8-3-8.3-0.9c-0.3,0.3-0.6,0.6-0.9,0.9
	l-0.3,0.4L1.8,60.2c-1.1,1.4-1.8,3.1-1.8,5c-0.2,4,3,7.4,7,7.5C7,72.7,7.1,72.7,7.1,72.7z"/>
<path class="st1" d="M103.2,63.3l-48-58c-0.2-0.3-0.5-0.4-0.8-0.4l0,0c-0.3,0-0.6,0.2-0.8,0.4l-48,58C4.2,65,5.1,67.7,7,67.7h24
	v29.8L31,131.1c0,1.4,1.1,2.5,2.5,2.5c0,0,0,0,0,0h41.8c1.4,0,2.5-1.1,2.5-2.5V67.7h24C103.6,67.8,104.6,65,103.2,63.3z"/>
</svg>
