<?xml version="1.0" encoding="utf-8"?>
<!-- Generator: Adobe Illustrator 25.4.1, SVG Export Plug-In . SVG Version: 6.00 Build 0)  -->
<svg version="1.1" id="Layer_1" xmlns="http://www.w3.org/2000/svg" xmlns:xlink="http://www.w3.org/1999/xlink" x="0px" y="0px"
	 viewBox="0 0 351.9 351.9" style="enable-background:new 0 0 351.9 351.9;" xml:space="preserve">
<style type="text/css">
	.st0{fill:#393939;}
	.st1{fill:#2C2B2D;}
	.st2{fill:#424342;}
	.st3{fill:#545454;}
	.st4{fill:#FE0202;}
	.st5{fill:#E8BF3D;}
	.st6{enable-background:new    ;}
	.st7{fill:#FFFFFF;}
	.st8{fill:#D3D3D3;}
	.st9{fill:none;stroke:#FFFFFF;stroke-width:3;stroke-miterlimit:10;}
	.st10{fill:#2BAF2B;}
	.st11{fill:none;stroke:#FFFFFF;stroke-width:1.5;stroke-miterlimit:10;}
</style>
<path class="st0" d="M11.9,0H340c6.6,0,11.9,5.3,11.9,11.9V340c0,6.6-5.3,11.9-11.9,11.9H11.9C5.3,351.9,0,346.6,0,340V11.8
	C0,5.3,5.3,0,11.9,0z"/>
<circle class="st1" cx="175.9" cy="175.9" r="168.5"/>
<circle class="st2" cx="175.9" cy="175.9" r="159.4"/>
<circle class="st3" cx="178.1" cy="175.9" r="159.4"/>
<path class="st4" d="M82.6,47.9c-20.8,15.4-37.4,35.6-48.5,59l6.8,3.4C51.5,88,67.4,68.5,87.2,53.7L82.6,47.9z"/>
<path class="st5" d="M27.3,159.3c1.8-17,6.4-33.6,13.7-49l-6.8-3.3C9.6,158.7,14.6,219.7,47.4,266.7l5.9-4.3
	C33.5,234,23.3,197.1,27.3,159.3z"/>
<g class="st6">
	<path class="st7" d="M146.6,121.6l-1.3-3.6h-5l-1.3,3.6h-2.3l4.9-13.2h2.3l4.9,13.2H146.6z M144.8,116.1l-1.2-3.6
		c-0.1-0.2-0.2-0.6-0.4-1.1s-0.3-0.9-0.3-1.1c-0.2,0.7-0.4,1.5-0.7,2.4l-1.2,3.4C141,116.1,144.8,116.1,144.8,116.1z"/>
	<path class="st7" d="M150.6,121.6v-13.1h2.1v13.1H150.6z"/>
	<path class="st7" d="M158.4,116.4v5.2h-2.1v-13.1h3.7c1.7,0,2.9,0.3,3.8,1c0.8,0.6,1.2,1.6,1.2,2.9c0,1.6-0.9,2.8-2.6,3.5l3.7,5.8
		h-2.4l-3.1-5.2h-2.2V116.4z M158.4,114.6h1.5c1,0,1.7-0.2,2.2-0.6c0.4-0.4,0.7-0.9,0.7-1.7c0-0.7-0.2-1.3-0.7-1.6s-1.2-0.5-2.2-0.5
		h-1.4v4.4H158.4z"/>
	<path class="st7" d="M175.6,118.1c0,1.2-0.4,2.1-1.3,2.7c-0.8,0.7-2,1-3.5,1s-2.7-0.2-3.6-0.7v-2c0.6,0.3,1.2,0.5,1.9,0.7
		s1.3,0.2,1.9,0.2c0.8,0,1.5-0.2,1.9-0.5s0.6-0.8,0.6-1.3s-0.2-0.9-0.6-1.2c-0.4-0.3-1.1-0.7-2.3-1.2s-2-1-2.5-1.7
		c-0.5-0.6-0.7-1.4-0.7-2.2c0-1.1,0.4-2,1.2-2.6s1.8-0.9,3.1-0.9s2.5,0.3,3.8,0.8l-0.7,1.8c-1.2-0.5-2.2-0.7-3.1-0.7
		c-0.7,0-1.2,0.2-1.6,0.5c-0.4,0.3-0.5,0.7-0.5,1.2c0,0.3,0.1,0.6,0.2,0.9c0.1,0.2,0.4,0.5,0.7,0.7s0.9,0.5,1.8,0.9
		c1,0.4,1.7,0.8,2.1,1.1c0.4,0.3,0.8,0.7,1,1.2C175.5,116.9,175.6,117.5,175.6,118.1z"/>
	<path class="st7" d="M186.8,112.5c0,1.4-0.4,2.4-1.3,3.2c-0.9,0.7-2.2,1.1-3.8,1.1h-1.4v4.9h-2.1v-13.1h3.8c1.6,0,2.9,0.3,3.7,1
		C186.4,110.2,186.8,111.2,186.8,112.5z M180.3,114.9h1.1c1.1,0,1.9-0.2,2.4-0.6s0.8-1,0.8-1.8s-0.2-1.3-0.7-1.7s-1.2-0.6-2.2-0.6
		h-1.5L180.3,114.9L180.3,114.9z"/>
	<path class="st7" d="M196.9,121.6h-7.4v-13.1h7.4v1.8h-5.3v3.6h4.9v1.8h-4.9v4.1h5.3V121.6z"/>
	<path class="st7" d="M207.1,121.6h-7.4v-13.1h7.4v1.8h-5.3v3.6h4.9v1.8h-4.9v4.1h5.3V121.6z"/>
	<path class="st7" d="M220.6,114.9c0,2.2-0.6,3.8-1.8,5c-1.2,1.1-2.9,1.7-5.2,1.7h-3.7v-13.1h4.1c2.1,0,3.7,0.6,4.9,1.7
		S220.6,112.9,220.6,114.9z M218.4,115c0-3.1-1.5-4.7-4.4-4.7h-1.9v9.5h1.5C216.8,119.8,218.4,118.2,218.4,115z"/>
</g>
<g class="st6">
	<path class="st7" d="M159.9,142.5v-10h1.2v10H159.9z"/>
	<path class="st7" d="M170.1,142.5l-1.2-3.2h-4l-1.2,3.2h-1.2l3.9-10h1l3.9,10H170.1z M168.5,138.3l-1.2-3.1
		c-0.2-0.4-0.3-0.9-0.5-1.4c-0.1,0.4-0.2,0.9-0.4,1.4l-1.2,3.1H168.5z"/>
	<path class="st7" d="M178.3,139.8c0,0.9-0.3,1.6-1,2.1s-1.5,0.7-2.6,0.7c-1.2,0-2.1-0.2-2.7-0.5V141c0.4,0.2,0.9,0.3,1.3,0.4
		c0.5,0.1,1,0.2,1.4,0.2c0.8,0,1.4-0.1,1.7-0.4c0.4-0.3,0.6-0.7,0.6-1.2c0-0.3-0.1-0.6-0.2-0.8s-0.4-0.4-0.7-0.6
		c-0.3-0.2-0.8-0.4-1.5-0.6c-0.9-0.3-1.6-0.7-2-1.2s-0.6-1-0.6-1.8s0.3-1.4,0.9-1.8c0.6-0.5,1.3-0.7,2.3-0.7s1.9,0.2,2.7,0.5l-0.4,1
		c-0.8-0.3-1.6-0.5-2.4-0.5c-0.6,0-1.1,0.1-1.4,0.4c-0.3,0.3-0.5,0.6-0.5,1.1c0,0.3,0.1,0.6,0.2,0.8c0.1,0.2,0.3,0.4,0.6,0.6
		c0.3,0.2,0.8,0.4,1.4,0.6c1,0.4,1.8,0.8,2.2,1.2C178.1,138.6,178.3,139.1,178.3,139.8z"/>
	<path class="st7" d="M191.2,142.5h-1.4l-3.6-4.8l-1,0.9v3.9H184v-10h1.2v4.9l4.5-4.9h1.4l-4,4.3L191.2,142.5z"/>
	<path class="st7" d="M194.8,141.7c0.2,0,0.4,0,0.6,0c0.2,0,0.3-0.1,0.4-0.1v0.9c-0.1,0.1-0.3,0.1-0.5,0.1s-0.5,0.1-0.6,0.1
		c-1.4,0-2.2-0.8-2.2-2.3V136h-1.1v-0.7l1.1-0.5l0.5-1.6h0.7v1.7h2.2v0.9h-2.2v4.4c0,0.5,0.1,0.8,0.3,1
		C194.1,141.6,194.4,141.7,194.8,141.7z"/>
</g>
<g class="st6">
	<path class="st7" d="M226,58.2h-1.3v2h-0.9v-2h-4.2v-0.9l4.1-5.8h1v5.8h1.3L226,58.2L226,58.2z M223.8,57.3v-2.8
		c0-0.6,0-1.2,0.1-1.9l0,0c-0.2,0.4-0.4,0.7-0.5,0.9l-2.7,3.8H223.8z"/>
	<path class="st7" d="M232.5,55.8c0,1.5-0.2,2.6-0.7,3.3s-1.2,1.1-2.1,1.1c-0.9,0-1.6-0.4-2.1-1.1s-0.7-1.8-0.7-3.3s0.2-2.6,0.7-3.3
		s1.2-1.1,2.1-1.1c0.9,0,1.6,0.4,2.1,1.1S232.5,54.4,232.5,55.8z M227.8,55.8c0,1.2,0.1,2.2,0.4,2.7s0.8,0.9,1.4,0.9
		c0.6,0,1.1-0.3,1.4-0.9s0.4-1.5,0.4-2.7s-0.1-2.1-0.4-2.7s-0.8-0.9-1.4-0.9c-0.6,0-1.1,0.3-1.4,0.8S227.8,54.6,227.8,55.8z"/>
</g>
<g class="st6">
	<path class="st7" d="M262.1,86c0.9,0,1.6,0.2,2.1,0.7s0.8,1.1,0.8,1.8c0,0.9-0.3,1.6-0.8,2.1s-1.3,0.8-2.3,0.8s-1.7-0.2-2.2-0.5V90
		c0.3,0.2,0.6,0.3,1,0.4s0.8,0.1,1.2,0.1c0.7,0,1.2-0.2,1.6-0.5s0.6-0.8,0.6-1.4c0-1.2-0.7-1.8-2.2-1.8c-0.4,0-0.9,0.1-1.5,0.2
		l-0.5-0.3l0.3-4h4.3v0.9h-3.4l-0.2,2.6C261.2,86.1,261.6,86,262.1,86z"/>
	<path class="st7" d="M271.9,87c0,1.5-0.2,2.6-0.7,3.3s-1.2,1.1-2.1,1.1s-1.6-0.4-2.1-1.1s-0.7-1.8-0.7-3.3s0.2-2.6,0.7-3.3
		s1.2-1.1,2.1-1.1s1.6,0.4,2.1,1.1S271.9,85.5,271.9,87z M267.2,87c0,1.2,0.1,2.2,0.4,2.7s0.8,0.9,1.4,0.9s1.1-0.3,1.4-0.9
		s0.4-1.5,0.4-2.7s-0.1-2.1-0.4-2.7s-0.8-0.9-1.4-0.9s-1.1,0.3-1.4,0.8S267.2,85.7,267.2,87z"/>
</g>
<g class="st6">
	<path class="st7" d="M287.2,125.9c0-1.7,0.3-2.9,1-3.8s1.6-1.3,2.9-1.3c0.4,0,0.8,0,1,0.1v0.8c-0.3-0.1-0.6-0.1-1-0.1
		c-0.9,0-1.6,0.3-2.1,0.9s-0.8,1.5-0.8,2.7h0.1c0.4-0.7,1.1-1,2-1c0.8,0,1.4,0.2,1.8,0.7s0.7,1.1,0.7,1.9c0,0.9-0.2,1.6-0.7,2.1
		s-1.1,0.8-2,0.8s-1.6-0.3-2.1-1S287.2,127.1,287.2,125.9z M290.1,128.8c0.6,0,1-0.2,1.3-0.5s0.5-0.9,0.5-1.5s-0.1-1-0.4-1.3
		s-0.7-0.5-1.3-0.5c-0.4,0-0.7,0.1-1,0.2s-0.5,0.3-0.7,0.6s-0.3,0.5-0.3,0.8c0,0.4,0.1,0.8,0.2,1.1s0.4,0.6,0.7,0.8
		S289.7,128.8,290.1,128.8z"/>
	<path class="st7" d="M299.6,125.3c0,1.5-0.2,2.6-0.7,3.3s-1.2,1.1-2.1,1.1s-1.6-0.4-2.1-1.1s-0.7-1.8-0.7-3.3s0.2-2.6,0.7-3.3
		s1.2-1.1,2.1-1.1s1.6,0.4,2.1,1.1S299.6,123.8,299.6,125.3z M294.9,125.3c0,1.2,0.1,2.2,0.4,2.7s0.8,0.9,1.4,0.9s1.1-0.3,1.4-0.9
		s0.4-1.5,0.4-2.7s-0.1-2.1-0.4-2.7s-0.8-0.9-1.4-0.9s-1.1,0.3-1.4,0.8S294.9,124,294.9,125.3z"/>
</g>
<path class="st8" d="M234.8,26.7l-2.6,6.9c78.2,29.9,117.4,117.7,87.4,195.9c-9,23.4-23.6,44.2-42.6,60.6l5.3,5.9
	c66.5-57.7,73.7-158.3,16-224.8C281.2,51.3,259.4,36.1,234.8,26.7z"/>
<line class="st9" x1="230.6" y1="39.5" x2="235.3" y2="26.9"/>
<path class="st10" d="M286.6,281.2c-28.6,29.5-67.9,46.1-109,46.1c-51.8,0-98-26.7-125.4-66.4l-6.2,3.9
	c29.5,43.3,77.4,70.1,132,70.1c39.9,0,82.8-15.5,114.2-48.2L286.6,281.2z"/>
<line class="st9" x1="280.3" y1="71.7" x2="289.8" y2="62.2"/>
<line class="st9" x1="313.2" y1="120.6" x2="325.7" y2="115.7"/>
<line class="st9" x1="324" y1="178.6" x2="337.4" y2="179.4"/>
<line class="st9" x1="310.8" y1="236.3" x2="323" y2="241.8"/>
<line class="st9" x1="276" y1="283.8" x2="285" y2="293.8"/>
<line class="st9" x1="224.6" y1="313.9" x2="229" y2="326.6"/>
<line class="st9" x1="166.3" y1="321.1" x2="165.4" y2="334.5"/>
<line class="st9" x1="109.8" y1="304.7" x2="103.6" y2="316.6"/>
<line class="st9" x1="64" y1="266.8" x2="53.7" y2="275.4"/>
<line class="st9" x1="37.5" y1="215.3" x2="24.6" y2="218.9"/>
<line class="st9" x1="33.2" y1="157.5" x2="19.8" y2="155.8"/>
<line class="st9" x1="51.7" y1="102.3" x2="40.1" y2="95.6"/>
<line class="st9" x1="91.3" y1="58.2" x2="83.6" y2="47.2"/>
<g class="st6">
	<path class="st7" d="M296.4,182l3.6-7.7h-4.7v-0.9h5.7v0.8l-3.5,7.8L296.4,182L296.4,182z"/>
	<path class="st7" d="M307.9,177.7c0,1.5-0.2,2.6-0.7,3.3s-1.2,1.1-2.1,1.1s-1.6-0.4-2.1-1.1s-0.7-1.8-0.7-3.3s0.2-2.6,0.7-3.3
		s1.2-1.1,2.1-1.1s1.6,0.4,2.1,1.1S307.9,176.2,307.9,177.7z M303.2,177.7c0,1.2,0.1,2.2,0.4,2.7s0.8,0.9,1.4,0.9s1.1-0.3,1.4-0.9
		s0.4-1.5,0.4-2.7s-0.1-2.1-0.4-2.7s-0.8-0.9-1.4-0.9s-1.1,0.3-1.4,0.8S303.2,176.4,303.2,177.7z"/>
</g>
<g class="st6">
	<path class="st7" d="M283.9,223.4c0.8,0,1.4,0.2,1.9,0.5s0.7,0.9,0.7,1.5c0,0.4-0.1,0.8-0.4,1.2s-0.7,0.7-1.3,0.9
		c0.7,0.3,1.2,0.7,1.5,1s0.4,0.8,0.4,1.3c0,0.7-0.2,1.3-0.7,1.7s-1.2,0.6-2,0.6c-0.9,0-1.6-0.2-2.1-0.6s-0.7-1-0.7-1.7
		c0-1,0.6-1.7,1.8-2.3c-0.5-0.3-0.9-0.6-1.2-1s-0.4-0.7-0.4-1.2c0-0.6,0.2-1.1,0.7-1.5S283.2,223.4,283.9,223.4z M282.1,229.9
		c0,0.5,0.2,0.8,0.5,1.1s0.8,0.4,1.4,0.4s1-0.1,1.4-0.4s0.5-0.6,0.5-1.1c0-0.4-0.2-0.7-0.5-1s-0.8-0.6-1.6-0.9
		c-0.6,0.2-1,0.5-1.3,0.8S282.1,229.5,282.1,229.9z M283.9,224.2c-0.5,0-0.9,0.1-1.1,0.4s-0.4,0.5-0.4,0.9s0.1,0.7,0.3,0.9
		s0.7,0.5,1.3,0.8c0.6-0.2,1-0.5,1.2-0.8s0.3-0.6,0.3-0.9c0-0.4-0.1-0.7-0.4-0.9S284.4,224.2,283.9,224.2z"/>
	<path class="st7" d="M293.6,227.8c0,1.5-0.2,2.6-0.7,3.3s-1.2,1.1-2.1,1.1s-1.6-0.4-2.1-1.1s-0.7-1.8-0.7-3.3s0.2-2.6,0.7-3.3
		s1.2-1.1,2.1-1.1s1.6,0.4,2.1,1.1S293.6,226.3,293.6,227.8z M288.9,227.8c0,1.2,0.1,2.2,0.4,2.7s0.8,0.9,1.4,0.9s1.1-0.3,1.4-0.9
		s0.4-1.5,0.4-2.7s-0.1-2.1-0.4-2.7s-0.8-0.9-1.4-0.9s-1.1,0.3-1.4,0.8S288.9,226.5,288.9,227.8z"/>
</g>
<g class="st6">
	<path class="st7" d="M258.9,266.2c0,3.4-1.3,5-3.9,5c-0.5,0-0.8,0-1.1-0.1v-0.8c0.3,0.1,0.7,0.2,1.1,0.2c0.9,0,1.6-0.3,2.1-0.9
		s0.7-1.5,0.8-2.7h-0.1c-0.2,0.3-0.5,0.6-0.9,0.7s-0.8,0.3-1.2,0.3c-0.8,0-1.4-0.2-1.8-0.7s-0.7-1.1-0.7-1.9c0-0.9,0.2-1.6,0.7-2.1
		s1.2-0.8,2-0.8c0.6,0,1.1,0.1,1.5,0.4s0.8,0.7,1,1.3S258.9,265.4,258.9,266.2z M256.1,263.3c-0.6,0-1,0.2-1.3,0.5s-0.5,0.9-0.5,1.5
		s0.1,1,0.4,1.3s0.7,0.5,1.3,0.5c0.4,0,0.7-0.1,1-0.2s0.5-0.3,0.7-0.6s0.3-0.5,0.3-0.8c0-0.4-0.1-0.8-0.2-1.1s-0.4-0.6-0.7-0.8
		S256.4,263.3,256.1,263.3z"/>
	<path class="st7" d="M265.9,266.8c0,1.5-0.2,2.6-0.7,3.3s-1.2,1.1-2.1,1.1s-1.6-0.4-2.1-1.1s-0.7-1.8-0.7-3.3s0.2-2.6,0.7-3.3
		s1.2-1.1,2.1-1.1s1.6,0.4,2.1,1.1S265.9,265.4,265.9,266.8z M261.2,266.8c0,1.2,0.1,2.2,0.4,2.7s0.8,0.9,1.4,0.9s1.1-0.3,1.4-0.9
		s0.4-1.5,0.4-2.7s-0.1-2.1-0.4-2.7s-0.8-0.9-1.4-0.9s-1.1,0.3-1.4,0.8S261.2,265.6,261.2,266.8z"/>
</g>
<g class="st6">
	<path class="st7" d="M213.5,294.6h-1v-6.1c0-0.5,0-1,0-1.4c-0.1,0.1-0.2,0.2-0.3,0.3s-0.6,0.5-1.4,1.1l-0.5-0.7l2.3-1.8h0.8
		L213.5,294.6L213.5,294.6z"/>
	<path class="st7" d="M222.4,290.3c0,1.5-0.2,2.6-0.7,3.3s-1.2,1.1-2.1,1.1c-0.9,0-1.6-0.4-2.1-1.1s-0.7-1.8-0.7-3.3
		s0.2-2.6,0.7-3.3s1.2-1.1,2.1-1.1c0.9,0,1.6,0.4,2.1,1.1S222.4,288.8,222.4,290.3z M217.8,290.3c0,1.2,0.1,2.2,0.4,2.7
		s0.8,0.9,1.4,0.9c0.6,0,1.1-0.3,1.4-0.9s0.4-1.5,0.4-2.7s-0.1-2.1-0.4-2.7s-0.8-0.9-1.4-0.9c-0.6,0-1.1,0.3-1.4,0.8
		S217.8,289,217.8,290.3z"/>
	<path class="st7" d="M229.3,290.3c0,1.5-0.2,2.6-0.7,3.3s-1.2,1.1-2.1,1.1c-0.9,0-1.6-0.4-2.1-1.1s-0.7-1.8-0.7-3.3
		s0.2-2.6,0.7-3.3s1.2-1.1,2.1-1.1c0.9,0,1.6,0.4,2.1,1.1S229.3,288.8,229.3,290.3z M224.6,290.3c0,1.2,0.1,2.2,0.4,2.7
		s0.8,0.9,1.4,0.9c0.6,0,1.1-0.3,1.4-0.9s0.4-1.5,0.4-2.7s-0.1-2.1-0.4-2.7s-0.8-0.9-1.4-0.9c-0.6,0-1.1,0.3-1.4,0.8
		S224.6,289,224.6,290.3z"/>
</g>
<g class="st6">
	<path class="st7" d="M161.9,300.3H161v-6.1c0-0.5,0-1,0-1.4c-0.1,0.1-0.2,0.2-0.3,0.3s-0.6,0.5-1.4,1.1l-0.5-0.7l2.3-1.8h0.8
		L161.9,300.3L161.9,300.3z"/>
	<path class="st7" d="M168.8,300.3h-0.9v-6.1c0-0.5,0-1,0-1.4c-0.1,0.1-0.2,0.2-0.3,0.3s-0.6,0.5-1.4,1.1l-0.5-0.7l2.3-1.8h0.8
		L168.8,300.3L168.8,300.3z"/>
	<path class="st7" d="M177.7,296c0,1.5-0.2,2.6-0.7,3.3s-1.2,1.1-2.1,1.1c-0.9,0-1.6-0.4-2.1-1.1s-0.7-1.8-0.7-3.3s0.2-2.6,0.7-3.3
		s1.2-1.1,2.1-1.1c0.9,0,1.6,0.4,2.1,1.1S177.7,294.6,177.7,296z M173,296c0,1.2,0.1,2.2,0.4,2.7s0.8,0.9,1.4,0.9
		c0.6,0,1.1-0.3,1.4-0.9s0.4-1.5,0.4-2.7s-0.1-2.1-0.4-2.7s-0.8-0.9-1.4-0.9c-0.6,0-1.1,0.3-1.4,0.8S173,294.7,173,296z"/>
</g>
<g class="st6">
	<path class="st7" d="M112.1,286.2h-0.9v-6.1c0-0.5,0-1,0-1.4c-0.1,0.1-0.2,0.2-0.3,0.3s-0.6,0.5-1.4,1.1l-0.5-0.7l2.3-1.8h0.8
		V286.2z"/>
	<path class="st7" d="M121,286.2h-5.6v-0.9l2.3-2.3c0.7-0.7,1.1-1.2,1.4-1.5s0.4-0.6,0.5-0.9s0.2-0.6,0.2-0.9c0-0.5-0.1-0.8-0.4-1.1
		s-0.7-0.4-1.2-0.4c-0.4,0-0.7,0.1-1,0.2s-0.7,0.3-1.1,0.6l-0.5-0.7c0.8-0.7,1.6-1,2.6-1c0.8,0,1.4,0.2,1.9,0.6s0.7,1,0.7,1.7
		c0,0.5-0.2,1.1-0.5,1.6s-0.9,1.2-1.7,2l-1.9,1.8l0,0h4.4v1.2H121z"/>
	<path class="st7" d="M127.9,281.9c0,1.5-0.2,2.6-0.7,3.3s-1.2,1.1-2.1,1.1c-0.9,0-1.6-0.4-2.1-1.1s-0.7-1.8-0.7-3.3
		s0.2-2.6,0.7-3.3s1.2-1.1,2.1-1.1c0.9,0,1.6,0.4,2.1,1.1S127.9,280.4,127.9,281.9z M123.3,281.9c0,1.2,0.1,2.2,0.4,2.7
		s0.8,0.9,1.4,0.9c0.6,0,1.1-0.3,1.4-0.9s0.4-1.5,0.4-2.7s-0.1-2.1-0.4-2.7s-0.8-0.9-1.4-0.9c-0.6,0-1.1,0.3-1.4,0.8
		S123.3,280.6,123.3,281.9z"/>
</g>
<g class="st6">
	<path class="st7" d="M80.9,254H80v-6.1c0-0.5,0-1,0-1.4c-0.1,0.1-0.2,0.2-0.3,0.3s-0.6,0.5-1.4,1.1l-0.5-0.7l2.3-1.8h0.8V254z"/>
	<path class="st7" d="M89.5,247.4c0,0.5-0.2,1-0.5,1.3s-0.7,0.6-1.3,0.7l0,0c0.7,0.1,1.2,0.3,1.5,0.7s0.5,0.8,0.5,1.4
		c0,0.8-0.3,1.4-0.8,1.9s-1.4,0.7-2.4,0.7c-0.5,0-0.9,0-1.2-0.1s-0.7-0.2-1.1-0.4v-0.9c0.4,0.2,0.8,0.3,1.2,0.4s0.8,0.1,1.2,0.1
		c1.5,0,2.2-0.6,2.2-1.7c0-1-0.8-1.6-2.4-1.6h-0.8v-0.8h0.9c0.7,0,1.2-0.1,1.6-0.4s0.6-0.7,0.6-1.2c0-0.4-0.1-0.7-0.4-1
		s-0.7-0.4-1.2-0.4c-0.4,0-0.7,0.1-1.1,0.2s-0.7,0.3-1.1,0.6l-0.5-0.7c0.4-0.3,0.8-0.5,1.2-0.7s0.9-0.2,1.5-0.2
		c0.8,0,1.5,0.2,1.9,0.6S89.5,246.8,89.5,247.4z"/>
	<path class="st7" d="M96.7,249.7c0,1.5-0.2,2.6-0.7,3.3s-1.2,1.1-2.1,1.1s-1.6-0.4-2.1-1.1s-0.7-1.8-0.7-3.3s0.2-2.6,0.7-3.3
		s1.2-1.1,2.1-1.1s1.6,0.4,2.1,1.1S96.7,248.2,96.7,249.7z M92,249.7c0,1.2,0.1,2.2,0.4,2.7s0.8,0.9,1.4,0.9s1.1-0.3,1.4-0.9
		s0.4-1.5,0.4-2.7s-0.1-2.1-0.4-2.7s-0.8-0.9-1.4-0.9s-1.1,0.3-1.4,0.8S92,248.4,92,249.7z"/>
</g>
<g class="st6">
	<path class="st7" d="M59.3,212.3h-0.9v-6.1c0-0.5,0-1,0-1.4c-0.1,0.1-0.2,0.2-0.3,0.3s-0.6,0.5-1.4,1.1l-0.5-0.7l2.3-1.8h0.8V212.3
		z"/>
	<path class="st7" d="M68.6,210.4h-1.3v2h-0.9v-2h-4.2v-0.8l4.1-5.8h1v5.8h1.3V210.4z M66.4,209.5v-2.8c0-0.6,0-1.2,0.1-1.9l0,0
		c-0.2,0.4-0.4,0.7-0.5,0.9l-2.7,3.8H66.4z"/>
	<path class="st7" d="M75.1,208c0,1.5-0.2,2.6-0.7,3.3s-1.2,1.1-2.1,1.1s-1.6-0.4-2.1-1.1s-0.7-1.8-0.7-3.3s0.2-2.6,0.7-3.3
		s1.2-1.1,2.1-1.1s1.6,0.4,2.1,1.1S75.1,206.6,75.1,208z M70.4,208c0,1.2,0.1,2.2,0.4,2.7s0.8,0.9,1.4,0.9s1.1-0.3,1.4-0.9
		s0.4-1.5,0.4-2.7s-0.1-2.1-0.4-2.7s-0.8-0.9-1.4-0.9s-1.1,0.3-1.4,0.8S70.4,206.8,70.4,208z"/>
</g>
<g class="st6">
	<path class="st7" d="M54,161.4h-0.9v-6.1c0-0.5,0-1,0-1.4c-0.1,0.1-0.2,0.2-0.3,0.3s-0.6,0.5-1.4,1.1l-0.5-0.7l2.3-1.8H54
		C54,152.8,54,161.4,54,161.4z"/>
	<path class="st7" d="M59.9,156.1c0.9,0,1.6,0.2,2.1,0.7s0.8,1.1,0.8,1.8c0,0.9-0.3,1.6-0.8,2.1s-1.3,0.8-2.3,0.8s-1.7-0.2-2.2-0.5
		v-0.9c0.3,0.2,0.6,0.3,1,0.4s0.8,0.1,1.2,0.1c0.7,0,1.2-0.2,1.6-0.5s0.6-0.8,0.6-1.4c0-1.2-0.7-1.8-2.2-1.8c-0.4,0-0.9,0.1-1.5,0.2
		l-0.5-0.3l0.3-4h4.3v0.9h-3.4l-0.2,2.6C59,156.2,59.5,156.1,59.9,156.1z"/>
	<path class="st7" d="M69.8,157.1c0,1.5-0.2,2.6-0.7,3.3s-1.2,1.1-2.1,1.1s-1.6-0.4-2.1-1.1s-0.7-1.8-0.7-3.3s0.2-2.6,0.7-3.3
		s1.2-1.1,2.1-1.1s1.6,0.4,2.1,1.1S69.8,155.6,69.8,157.1z M65.1,157.1c0,1.2,0.1,2.2,0.4,2.7s0.8,0.9,1.4,0.9s1.1-0.3,1.4-0.9
		s0.4-1.5,0.4-2.7s-0.1-2.1-0.4-2.7s-0.8-0.9-1.4-0.9s-1.1,0.3-1.4,0.8S65.1,155.8,65.1,157.1z"/>
</g>
<g class="st6">
	<path class="st7" d="M67.6,116.8h-0.9v-6.1c0-0.5,0-1,0-1.4c-0.1,0.1-0.2,0.2-0.3,0.3s-0.6,0.5-1.4,1.1l-0.5-0.7l2.3-1.8h0.8V116.8
		z"/>
	<path class="st7" d="M70.9,113.2c0-1.7,0.3-2.9,1-3.8s1.6-1.3,2.9-1.3c0.4,0,0.8,0,1,0.1v0.8c-0.3-0.1-0.6-0.1-1-0.1
		c-0.9,0-1.6,0.3-2.1,0.9s-0.8,1.5-0.8,2.7H72c0.4-0.7,1.1-1,2-1c0.8,0,1.4,0.2,1.8,0.7s0.7,1.1,0.7,1.9c0,0.9-0.2,1.6-0.7,2.1
		s-1.1,0.8-2,0.8s-1.6-0.3-2.1-1S70.9,114.3,70.9,113.2z M73.8,116.1c0.6,0,1-0.2,1.3-0.5s0.5-0.9,0.5-1.5s-0.1-1-0.4-1.3
		s-0.7-0.5-1.3-0.5c-0.4,0-0.7,0.1-1,0.2s-0.5,0.3-0.7,0.6s-0.3,0.5-0.3,0.8c0,0.4,0.1,0.8,0.2,1.1s0.4,0.6,0.7,0.8
		S73.5,116.1,73.8,116.1z"/>
	<path class="st7" d="M83.4,112.5c0,1.5-0.2,2.6-0.7,3.3s-1.2,1.1-2.1,1.1s-1.6-0.4-2.1-1.1s-0.7-1.8-0.7-3.3s0.2-2.6,0.7-3.3
		s1.2-1.1,2.1-1.1s1.6,0.4,2.1,1.1S83.4,111.1,83.4,112.5z M78.7,112.5c0,1.2,0.1,2.2,0.4,2.7s0.8,0.9,1.4,0.9s1.1-0.3,1.4-0.9
		s0.4-1.5,0.4-2.7s-0.1-2.1-0.4-2.7s-0.8-0.9-1.4-0.9s-1.1,0.3-1.4,0.8S78.7,111.3,78.7,112.5z"/>
</g>
<g class="st6">
	<path class="st7" d="M103.7,77.7h-0.9v-6.1c0-0.5,0-1,0-1.4c-0.1,0.1-0.2,0.2-0.3,0.3s-0.6,0.5-1.4,1.1l-0.5-0.7l2.3-1.8h0.8V77.7z
		"/>
	<path class="st7" d="M108,77.7l3.6-7.7h-4.7v-0.9h5.7v0.8l-3.5,7.8C109.1,77.7,108,77.7,108,77.7z"/>
	<path class="st7" d="M119.5,73.4c0,1.5-0.2,2.6-0.7,3.3s-1.2,1.1-2.1,1.1s-1.6-0.4-2.1-1.1s-0.7-1.8-0.7-3.3s0.2-2.6,0.7-3.3
		s1.2-1.1,2.1-1.1s1.6,0.4,2.1,1.1S119.5,72,119.5,73.4z M114.8,73.4c0,1.2,0.1,2.2,0.4,2.7s0.8,0.9,1.4,0.9s1.1-0.3,1.4-0.9
		s0.4-1.5,0.4-2.7s-0.1-2.1-0.4-2.7s-0.8-0.9-1.4-0.9s-1.1,0.3-1.4,0.8S114.8,72.1,114.8,73.4z"/>
</g>
<line class="st11" x1="238.3" y1="38.5" x2="242.1" y2="29.7"/>
<line class="st11" x1="243.5" y1="40.9" x2="247.7" y2="32.3"/>
<line class="st11" x1="249" y1="43.8" x2="253.6" y2="35.3"/>
<line class="st11" x1="254.2" y1="46.7" x2="259" y2="38.4"/>
<line class="st11" x1="259.4" y1="49.9" x2="264.5" y2="41.8"/>
<line class="st11" x1="264.2" y1="53.1" x2="269.6" y2="45.3"/>
<line class="st11" x1="269.3" y1="56.8" x2="275.1" y2="49.2"/>
<line class="st11" x1="273.8" y1="60.5" x2="279.9" y2="53.1"/>
<line class="st11" x1="278.2" y1="64.3" x2="284.6" y2="57.2"/>
<line class="st11" x1="287.6" y1="73.6" x2="294.6" y2="67"/>
<line class="st11" x1="291.4" y1="77.8" x2="298.7" y2="71.5"/>
<line class="st11" x1="295.4" y1="82.6" x2="302.9" y2="76.6"/>
<line class="st11" x1="299" y1="87.3" x2="306.7" y2="81.6"/>
<line class="st11" x1="302.5" y1="92.3" x2="310.4" y2="86.9"/>
<line class="st11" x1="305.6" y1="97.2" x2="313.7" y2="92.1"/>
<line class="st11" x1="308.9" y1="102.6" x2="317.2" y2="97.9"/>
<line class="st11" x1="311.6" y1="107.8" x2="320.1" y2="103.4"/>
<line class="st11" x1="314.1" y1="113" x2="322.8" y2="109"/>
<line class="st11" x1="319.3" y1="125.6" x2="328.3" y2="122.3"/>
<line class="st11" x1="321.1" y1="131" x2="330.3" y2="128.1"/>
<line class="st11" x1="322.8" y1="137" x2="332.1" y2="134.5"/>
<line class="st11" x1="324.2" y1="142.7" x2="333.5" y2="140.5"/>
<line class="st11" x1="325.4" y1="148.7" x2="334.8" y2="146.9"/>
<line class="st11" x1="326.3" y1="154.4" x2="335.8" y2="153"/>
<line class="st11" x1="327.1" y1="160.7" x2="336.6" y2="159.7"/>
<line class="st11" x1="327.5" y1="166.6" x2="337.1" y2="165.9"/>
<line class="st11" x1="327.8" y1="172.3" x2="337.3" y2="172.1"/>
<line class="st11" x1="327.5" y1="185.5" x2="337.1" y2="186.1"/>
<line class="st11" x1="327" y1="191.2" x2="336.6" y2="192.2"/>
<line class="st11" x1="326.2" y1="197.4" x2="335.7" y2="198.8"/>
<line class="st11" x1="325.2" y1="203.2" x2="334.7" y2="204.9"/>
<line class="st11" x1="324" y1="209.2" x2="333.4" y2="211.2"/>
<line class="st11" x1="322.5" y1="214.8" x2="331.8" y2="217.3"/>
<line class="st11" x1="320.8" y1="220.9" x2="330" y2="223.8"/>
<line class="st11" x1="318.9" y1="226.4" x2="327.9" y2="229.6"/>
<line class="st11" x1="316.9" y1="231.8" x2="325.7" y2="235.4"/>
<line class="st11" x1="311.2" y1="244.1" x2="319.8" y2="248.4"/>
<line class="st11" x1="308.6" y1="249.1" x2="317" y2="253.8"/>
<line class="st11" x1="305.4" y1="254.5" x2="313.6" y2="259.5"/>
<line class="st11" x1="302.2" y1="259.5" x2="310.2" y2="264.8"/>
<line class="st11" x1="298.7" y1="264.4" x2="306.5" y2="270"/>
<line class="st11" x1="295.1" y1="269.1" x2="302.6" y2="275"/>
<line class="st11" x1="291.1" y1="273.9" x2="298.4" y2="280.2"/>
<line class="st11" x1="287.1" y1="278.3" x2="294.2" y2="284.7"/>
<line class="st11" x1="283.2" y1="282.4" x2="289.8" y2="289.2"/>
<line class="st11" x1="273.3" y1="291.3" x2="279.5" y2="298.6"/>
<line class="st11" x1="268.9" y1="294.8" x2="274.7" y2="302.4"/>
<line class="st11" x1="263.9" y1="298.5" x2="269.4" y2="306.3"/>
<line class="st11" x1="258.9" y1="301.8" x2="264.2" y2="309.8"/>
<line class="st11" x1="253.7" y1="305" x2="258.7" y2="313.2"/>
<line class="st11" x1="248.6" y1="307.8" x2="253.2" y2="316.2"/>
<line class="st11" x1="243.1" y1="310.7" x2="247.2" y2="319.3"/>
<line class="st11" x1="237.7" y1="313.1" x2="241.6" y2="321.8"/>
<line class="st11" x1="232.4" y1="315.3" x2="235.9" y2="324.2"/>
<line class="st11" x1="219.9" y1="319.4" x2="222.7" y2="328.6"/>
<line class="st11" x1="214.4" y1="320.9" x2="216.7" y2="330.2"/>
<line class="st11" x1="208.3" y1="322.3" x2="210.3" y2="331.7"/>
<line class="st11" x1="202.5" y1="323.3" x2="204.1" y2="332.8"/>
<line class="st11" x1="196.5" y1="324.2" x2="197.8" y2="333.7"/>
<line class="st11" x1="190.7" y1="324.8" x2="191.6" y2="334.3"/>
<line class="st11" x1="184.4" y1="325.3" x2="184.8" y2="334.8"/>
<line class="st11" x1="178.5" y1="325.3" x2="178.6" y2="334.9"/>
<line class="st11" x1="172.8" y1="325.3" x2="172.4" y2="334.8"/>
<line class="st11" x1="159.6" y1="324.2" x2="158.5" y2="333.8"/>
<line class="st11" x1="154" y1="323.4" x2="152.4" y2="332.9"/>
<line class="st11" x1="147.8" y1="322.3" x2="145.9" y2="331.8"/>
<line class="st11" x1="142" y1="321" x2="139.8" y2="330.4"/>
<line class="st11" x1="136.1" y1="319.5" x2="133.6" y2="328.7"/>
<line class="st11" x1="130.6" y1="317.7" x2="127.6" y2="326.8"/>
<line class="st11" x1="124.6" y1="315.7" x2="121.3" y2="324.6"/>
<line class="st11" x1="119.2" y1="313.4" x2="115.6" y2="322.2"/>
<line class="st11" x1="114" y1="311.1" x2="109.9" y2="319.7"/>
<line class="st11" x1="101.9" y1="304.6" x2="97.1" y2="312.9"/>
<line class="st11" x1="97.1" y1="301.6" x2="91.9" y2="309.7"/>
<line class="st11" x1="91.9" y1="298.1" x2="86.4" y2="306"/>
<line class="st11" x1="87.1" y1="294.6" x2="81.3" y2="302.3"/>
<line class="st11" x1="82.3" y1="290.8" x2="76.3" y2="298.3"/>
<line class="st11" x1="77.9" y1="287" x2="71.6" y2="294.2"/>
<line class="st11" x1="73.3" y1="282.7" x2="66.6" y2="289.6"/>
<line class="st11" x1="69.2" y1="278.5" x2="62.3" y2="285.1"/>
<line class="st11" x1="65.3" y1="274.3" x2="58.2" y2="280.5"/>
<line class="st11" x1="57.1" y1="263.9" x2="49.3" y2="269.7"/>
<line class="st11" x1="53.8" y1="259.3" x2="45.8" y2="264.7"/>
<line class="st11" x1="50.4" y1="254.1" x2="42.2" y2="259.1"/>
<line class="st11" x1="47.4" y1="248.9" x2="39.1" y2="253.7"/>
<line class="st11" x1="44.5" y1="243.6" x2="36" y2="248.1"/>
<line class="st11" x1="42" y1="238.3" x2="33.3" y2="242.4"/>
<line class="st11" x1="39.4" y1="232.6" x2="30.6" y2="236.2"/>
<line class="st11" x1="37.3" y1="227.1" x2="28.4" y2="230.5"/>
<line class="st11" x1="35.4" y1="221.7" x2="26.4" y2="224.6"/>
<line class="st11" x1="32.3" y1="211.2" x2="23" y2="213.5"/>
<line class="st11" x1="31.1" y1="205.6" x2="21.6" y2="207.5"/>
<line class="st11" x1="29.9" y1="199.5" x2="20.4" y2="201"/>
<line class="st11" x1="29.1" y1="193.6" x2="19.6" y2="194.8"/>
<line class="st11" x1="28.5" y1="187.5" x2="19" y2="188.4"/>
<line class="st11" x1="28.2" y1="181.7" x2="18.6" y2="182.2"/>
<line class="st11" x1="28" y1="175.4" x2="18.4" y2="175.4"/>
<line class="st11" x1="28.2" y1="169.6" x2="18.6" y2="169.3"/>
<line class="st11" x1="28.5" y1="163.8" x2="19" y2="163.1"/>
<line class="st11" x1="30.3" y1="150.7" x2="20.8" y2="149.2"/>
<line class="st11" x1="31.4" y1="145.2" x2="21.9" y2="143.2"/>
<line class="st11" x1="32.7" y1="139.1" x2="23.4" y2="136.7"/>
<line class="st11" x1="34.3" y1="133.3" x2="25.1" y2="130.7"/>
<line class="st11" x1="36.1" y1="127.5" x2="27" y2="124.6"/>
<line class="st11" x1="38" y1="122.1" x2="29" y2="118.7"/>
<line class="st11" x1="40.4" y1="116.2" x2="31.6" y2="112.4"/>
<line class="st11" x1="42.8" y1="110.9" x2="34.1" y2="106.8"/>
<line class="st11" x1="45.3" y1="105.7" x2="36.9" y2="101.2"/>
<line class="st11" x1="52.4" y1="93.9" x2="44.2" y2="88.6"/>
<line class="st11" x1="55.5" y1="89.2" x2="47.7" y2="83.6"/>
<line class="st11" x1="59.3" y1="84.1" x2="51.6" y2="78.3"/>
<line class="st11" x1="63" y1="79.5" x2="55.6" y2="73.4"/>
<line class="st11" x1="67" y1="75" x2="59.8" y2="68.6"/>
<line class="st11" x1="71" y1="70.7" x2="64.1" y2="64.1"/>
<line class="st11" x1="75.5" y1="66.3" x2="68.9" y2="59.3"/>
<line class="st11" x1="79.9" y1="62.4" x2="73.6" y2="55.2"/>
<line class="st11" x1="84.3" y1="58.7" x2="78.3" y2="51.3"/>
</svg>
