<?xml version="1.0" encoding="utf-8"?>
<!-- Generator: Adobe Illustrator 25.4.1, SVG Export Plug-In . SVG Version: 6.00 Build 0)  -->
<svg version="1.1" id="Layer_1" xmlns="http://www.w3.org/2000/svg" xmlns:xlink="http://www.w3.org/1999/xlink" x="0px" y="0px"
	 viewBox="0 0 351.8 351.9" style="enable-background:new 0 0 351.8 351.9;" xml:space="preserve">
<style type="text/css">
	.st0{fill:#393939;}
	.st1{fill:#2C2B2D;}
	.st2{fill:#545454;}
	.st3{fill:#181818;}
	.st4{enable-background:new    ;}
	.st5{fill:#FFFFFF;}
	.st6{fill:none;stroke:#FFFFFF;stroke-width:1.5;stroke-miterlimit:10;}
	.st7{fill:none;stroke:#FFFFFF;stroke-width:5;stroke-miterlimit:10;}
</style>
<path class="st0" d="M11.9,0h328c6.6,0,11.9,5.3,11.9,11.9V340c0,6.6-5.3,11.9-11.9,11.9h-328C5.3,351.9,0,346.6,0,340V11.9
	C0,5.3,5.3,0,11.9,0z"/>
<circle class="st1" cx="175.9" cy="175.9" r="168.5"/>
<circle class="st2" cx="176.4" cy="175.7" r="159.4"/>
<path class="st3" d="M125.8,95.5h98.8c1.1,0,2,0.9,2,2v32.3c0,1.1-0.9,2-2,2h-98.8c-1.1,0-2-0.9-2-2V97.5
	C123.8,96.4,124.7,95.5,125.8,95.5z"/>
<g class="st4">
	<path class="st5" d="M154.3,148.2l-0.9-2.5h-3.5l-0.9,2.5h-1.6l3.4-9.2h1.6l3.4,9.2H154.3z M153,144.4l-0.9-2.5
		c-0.1-0.2-0.1-0.4-0.3-0.8c-0.1-0.4-0.2-0.6-0.2-0.8c-0.1,0.5-0.3,1.1-0.5,1.7l-0.8,2.4L153,144.4L153,144.4z"/>
	<path class="st5" d="M158.4,148.2h-1.5v-9.7h1.5V148.2z"/>
	<path class="st5" d="M163,147.2c0.4,0,0.7-0.1,1.1-0.2v1.1c-0.2,0.1-0.4,0.1-0.6,0.2c-0.3,0-0.5,0.1-0.8,0.1
		c-1.4,0-2.1-0.7-2.1-2.2v-3.7h-0.9v-0.6l1-0.5l0.5-1.5h0.9v1.5h2v1.1h-2v3.7c0,0.4,0.1,0.6,0.3,0.8S162.8,147.2,163,147.2z"/>
	<path class="st5" d="M165.4,139.5c0-0.3,0.1-0.5,0.2-0.6s0.3-0.2,0.6-0.2s0.5,0.1,0.6,0.2s0.2,0.3,0.2,0.6c0,0.2-0.1,0.4-0.2,0.6
		s-0.3,0.2-0.6,0.2s-0.5-0.1-0.6-0.2S165.4,139.8,165.4,139.5z M167,148.2h-1.5v-6.9h1.5V148.2z"/>
	<path class="st5" d="M174.9,148.2h-1.5v-4.3c0-0.5-0.1-0.9-0.3-1.2s-0.5-0.4-0.9-0.4c-0.6,0-1,0.2-1.2,0.6c-0.3,0.4-0.4,1-0.4,1.8
		v3.4h-1.5v-6.8h1.1l0.2,0.9h0.1c0.2-0.3,0.5-0.6,0.8-0.8c0.4-0.2,0.8-0.3,1.2-0.3c1.1,0,1.8,0.4,2.1,1.1h0.1
		c0.2-0.3,0.5-0.6,0.9-0.8s0.8-0.3,1.3-0.3c0.8,0,1.4,0.2,1.8,0.6c0.4,0.4,0.6,1.1,0.6,1.9v4.5h-1.5v-4.3c0-0.5-0.1-0.9-0.3-1.2
		s-0.5-0.4-0.9-0.4c-0.6,0-1,0.2-1.3,0.5c-0.3,0.4-0.4,0.9-0.4,1.6L174.9,148.2L174.9,148.2z"/>
	<path class="st5" d="M184.3,148.4c-1.1,0-1.9-0.3-2.5-0.9c-0.6-0.6-0.9-1.5-0.9-2.6s0.3-2,0.8-2.7c0.6-0.6,1.3-1,2.3-1
		c0.9,0,1.6,0.3,2.2,0.8c0.5,0.6,0.8,1.3,0.8,2.3v0.8h-4.6c0,0.7,0.2,1.2,0.5,1.5c0.3,0.4,0.8,0.5,1.4,0.5c0.4,0,0.8,0,1.1-0.1
		s0.7-0.2,1.1-0.4v1.2c-0.4,0.2-0.7,0.3-1.1,0.4C185.2,148.3,184.8,148.4,184.3,148.4z M184,142.3c-0.5,0-0.8,0.1-1.1,0.4
		c-0.3,0.3-0.4,0.7-0.5,1.3h3.1c0-0.6-0.1-1-0.4-1.3C184.9,142.5,184.5,142.3,184,142.3z"/>
	<path class="st5" d="M191.2,147.2c0.4,0,0.7-0.1,1.1-0.2v1.1c-0.2,0.1-0.4,0.1-0.6,0.2s-0.5,0.1-0.8,0.1c-1.4,0-2.1-0.7-2.1-2.2
		v-3.7h-0.9v-0.6l1-0.5l0.5-1.5h0.9v1.5h2v1.1h-2v3.7c0,0.4,0.1,0.6,0.3,0.8C190.7,147.1,190.9,147.2,191.2,147.2z"/>
	<path class="st5" d="M196.7,148.4c-1.1,0-1.9-0.3-2.5-0.9c-0.6-0.6-0.9-1.5-0.9-2.6s0.3-2,0.8-2.7c0.6-0.6,1.3-1,2.3-1
		c0.9,0,1.6,0.3,2.2,0.8c0.5,0.6,0.8,1.3,0.8,2.3v0.8h-4.6c0,0.7,0.2,1.2,0.5,1.5c0.3,0.4,0.8,0.5,1.4,0.5c0.4,0,0.8,0,1.1-0.1
		s0.7-0.2,1.1-0.4v1.2c-0.4,0.2-0.7,0.3-1.1,0.4C197.6,148.3,197.2,148.4,196.7,148.4z M196.4,142.3c-0.5,0-0.8,0.1-1.1,0.4
		c-0.3,0.3-0.4,0.7-0.5,1.3h3.1c0-0.6-0.1-1-0.4-1.3C197.3,142.5,196.9,142.3,196.4,142.3z"/>
	<path class="st5" d="M204.6,141.2c0.3,0,0.5,0,0.7,0.1l-0.1,1.4c-0.2,0-0.4-0.1-0.6-0.1c-0.6,0-1.1,0.2-1.4,0.6
		c-0.4,0.4-0.5,0.9-0.5,1.5v3.6h-1.5v-7h1.1l0.2,1.2h0.1c0.2-0.4,0.5-0.7,0.9-1S204.1,141.2,204.6,141.2z"/>
</g>
<g class="st4">
	<path class="st5" d="M162.6,160.1l-1.8-2.5h0.9l1.4,2l1.4-2h0.9l-1.8,2.5l1.9,2.7h-0.9l-1.5-2.1l-1.5,2.1h-0.9L162.6,160.1z"/>
	<path class="st5" d="M169,162.7h-0.8v-4.9c0-0.4,0-0.8,0-1.2c-0.1,0.1-0.1,0.1-0.2,0.2c-0.1,0.1-0.5,0.4-1.1,0.9l-0.4-0.5l1.8-1.4
		h0.7V162.7z"/>
	<path class="st5" d="M176.2,159.3c0,1.2-0.2,2.1-0.6,2.7c-0.4,0.6-1,0.9-1.7,0.9s-1.3-0.3-1.7-0.9c-0.4-0.6-0.6-1.5-0.6-2.7
		s0.2-2.1,0.6-2.7s1-0.9,1.7-0.9c0.8,0,1.3,0.3,1.7,0.9S176.2,158.1,176.2,159.3z M172.4,159.3c0,1,0.1,1.7,0.4,2.2
		c0.2,0.5,0.6,0.7,1.1,0.7s0.9-0.2,1.1-0.7s0.4-1.2,0.4-2.2s-0.1-1.7-0.4-2.2c-0.2-0.5-0.6-0.7-1.1-0.7s-0.9,0.2-1.1,0.7
		S172.4,158.3,172.4,159.3z"/>
	<path class="st5" d="M181.8,159.3c0,1.2-0.2,2.1-0.6,2.7c-0.4,0.6-1,0.9-1.7,0.9s-1.3-0.3-1.7-0.9c-0.4-0.6-0.6-1.5-0.6-2.7
		s0.2-2.1,0.6-2.7c0.4-0.6,1-0.9,1.7-0.9c0.8,0,1.3,0.3,1.7,0.9S181.8,158.1,181.8,159.3z M178,159.3c0,1,0.1,1.7,0.4,2.2
		c0.2,0.5,0.6,0.7,1.1,0.7s0.9-0.2,1.1-0.7c0.2-0.5,0.4-1.2,0.4-2.2s-0.1-1.7-0.4-2.2c-0.2-0.5-0.6-0.7-1.1-0.7s-0.9,0.2-1.1,0.7
		S178,158.3,178,159.3z"/>
	<path class="st5" d="M187.9,158.2h-1.3v4.6h-0.8v-4.6h-0.9v-0.4l0.9-0.3v-0.3c0-1.3,0.6-1.9,1.7-1.9c0.3,0,0.6,0.1,1,0.2l-0.2,0.6
		c-0.3-0.1-0.6-0.1-0.8-0.1c-0.3,0-0.5,0.1-0.7,0.3s-0.2,0.5-0.2,1v0.3h1.3V158.2z"/>
	<path class="st5" d="M190.6,162.2c0.1,0,0.3,0,0.4,0s0.2,0,0.3-0.1v0.6c-0.1,0-0.2,0.1-0.4,0.1s-0.3,0-0.4,0c-1,0-1.5-0.5-1.5-1.6
		v-3.1h-0.7v-0.4l0.7-0.3l0.3-1.1h0.5v1.2h1.5v0.6h-1.5v3.1c0,0.3,0.1,0.6,0.2,0.7S190.3,162.2,190.6,162.2z"/>
</g>
<g class="st4">
	<path class="st5" d="M181.9,50.3c0,2.9-0.5,5-1.4,6.5c-0.9,1.4-2.3,2.1-4.2,2.1c-1.8,0-3.2-0.7-4.1-2.2c-0.9-1.5-1.4-3.6-1.4-6.4
		c0-2.9,0.5-5.1,1.4-6.5s2.3-2.1,4.1-2.1s3.2,0.7,4.1,2.2S181.9,47.5,181.9,50.3z M172.7,50.3c0,2.4,0.3,4.2,0.9,5.3
		c0.6,1.1,1.5,1.7,2.7,1.7c1.3,0,2.2-0.6,2.7-1.7s0.8-2.9,0.8-5.3s-0.3-4.1-0.8-5.3c-0.6-1.1-1.5-1.7-2.7-1.7s-2.2,0.5-2.7,1.6
		C173,46.1,172.7,47.9,172.7,50.3z"/>
</g>
<line class="st6" x1="278.5" y1="71.3" x2="287.8" y2="62"/>
<line class="st6" x1="289.8" y1="83.4" x2="300" y2="75.1"/>
<line class="st6" x1="299.3" y1="96.5" x2="310.3" y2="89.3"/>
<line class="st6" x1="307.6" y1="110.9" x2="319.2" y2="105.1"/>
<line class="st7" x1="176.3" y1="16.3" x2="176.3" y2="33.3"/>
<line class="st7" x1="176.3" y1="318.1" x2="176.3" y2="335.1"/>
<line class="st7" x1="272.1" y1="48.5" x2="262" y2="62.2"/>
<line class="st7" x1="92.2" y1="290.8" x2="82.1" y2="304.4"/>
<line class="st7" x1="327.1" y1="124" x2="311" y2="129.6"/>
<line class="st7" x1="42.1" y1="223.1" x2="26.1" y2="228.7"/>
<line class="st7" x1="80.9" y1="47.6" x2="91" y2="61.2"/>
<line class="st7" x1="260.8" y1="289.8" x2="270.9" y2="303.4"/>
<line class="st7" x1="25.9" y1="123" x2="42" y2="128.6"/>
<line class="st7" x1="310.9" y1="222.2" x2="326.9" y2="227.8"/>
<g class="st4">
	<path class="st5" d="M254.3,83.6h-1.8V71.7c0-1,0-1.9,0.1-2.8c-0.2,0.2-0.3,0.3-0.5,0.5s-1.1,0.9-2.7,2.2l-1-1.3l4.4-3.4h1.6v16.7
		H254.3z"/>
</g>
<g class="st4">
	<path class="st5" d="M302.8,140.4h-11v-1.6l4.4-4.4c1.3-1.4,2.2-2.3,2.6-2.9c0.4-0.6,0.7-1.1,1-1.7c0.2-0.5,0.3-1.1,0.3-1.8
		c0-0.9-0.3-1.6-0.8-2.1s-1.3-0.8-2.2-0.8c-0.7,0-1.3,0.1-2,0.3c-0.6,0.2-1.3,0.6-2.1,1.2l-1-1.3c1.5-1.3,3.2-1.9,5-1.9
		c1.6,0,2.8,0.4,3.7,1.2c0.9,0.8,1.3,1.9,1.3,3.2c0,1.1-0.3,2.1-0.9,3.1s-1.7,2.3-3.3,3.9l-3.6,3.6v0.1h8.6V140.4z"/>
</g>
<g class="st4">
	<path class="st5" d="M301.3,212.2c0,1.1-0.3,1.9-0.9,2.6s-1.4,1.1-2.5,1.4v0.1c1.3,0.2,2.3,0.6,3,1.3c0.6,0.7,1,1.6,1,2.7
		c0,1.6-0.6,2.8-1.7,3.7s-2.7,1.3-4.7,1.3c-0.9,0-1.7-0.1-2.4-0.2s-1.4-0.4-2.1-0.7v-1.8c0.7,0.4,1.5,0.6,2.3,0.8s1.6,0.3,2.3,0.3
		c2.9,0,4.3-1.1,4.3-3.4c0-2-1.6-3-4.8-3h-1.6v-1.6h1.7c1.3,0,2.3-0.3,3.1-0.9c0.8-0.6,1.1-1.4,1.1-2.4c0-0.8-0.3-1.5-0.8-1.9
		s-1.3-0.7-2.3-0.7c-0.7,0-1.4,0.1-2.1,0.3c-0.6,0.2-1.4,0.6-2.2,1.1l-1-1.3c0.7-0.5,1.5-1,2.4-1.3s1.8-0.5,2.8-0.5
		c1.6,0,2.9,0.4,3.8,1.1C300.9,209.9,301.3,211,301.3,212.2z"/>
</g>
<g class="st4">
	<path class="st5" d="M177.3,297.8c1.8,0,3.1,0.4,4.1,1.3s1.5,2.1,1.5,3.6c0,1.7-0.5,3.1-1.6,4.1s-2.6,1.5-4.5,1.5s-3.3-0.3-4.3-0.9
		v-1.8c0.5,0.3,1.2,0.6,2,0.8c0.8,0.2,1.6,0.3,2.3,0.3c1.3,0,2.4-0.3,3.1-0.9c0.7-0.6,1.1-1.5,1.1-2.7c0-2.3-1.4-3.5-4.3-3.5
		c-0.7,0-1.7,0.1-2.9,0.3l-1-0.6l0.6-7.8h8.3v1.7H175l-0.4,5C175.6,297.9,176.4,297.8,177.3,297.8z"/>
</g>
<g class="st4">
	<path class="st5" d="M255.6,276.3h-2.5v3.8h-1.8v-3.8h-8.1v-1.7l7.9-11.3h2v11.2h2.5V276.3z M251.3,274.6v-5.5c0-1.1,0-2.3,0.1-3.7
		h-0.1c-0.4,0.7-0.7,1.3-1,1.8l-5.2,7.4L251.3,274.6L251.3,274.6z"/>
</g>
<g class="st4">
	<path class="st5" d="M99.4,273c0-3.3,0.6-5.7,1.9-7.3c1.3-1.6,3.2-2.4,5.6-2.4c0.9,0,1.5,0.1,2,0.2v1.6c-0.6-0.2-1.3-0.3-2-0.3
		c-1.8,0-3.2,0.6-4.1,1.7s-1.5,2.9-1.6,5.2h0.1c0.8-1.3,2.2-2,4-2c1.5,0,2.7,0.5,3.5,1.4c0.9,0.9,1.3,2.1,1.3,3.7
		c0,1.7-0.5,3.1-1.4,4.1s-2.2,1.5-3.8,1.5c-1.7,0-3.1-0.6-4.1-1.9C99.9,277.2,99.4,275.4,99.4,273z M105,278.8c1.1,0,1.9-0.3,2.5-1
		s0.9-1.7,0.9-2.9c0-1.1-0.3-2-0.8-2.6c-0.6-0.6-1.4-0.9-2.5-0.9c-0.7,0-1.3,0.1-1.9,0.4s-1,0.7-1.4,1.2c-0.3,0.5-0.5,1-0.5,1.5
		c0,0.8,0.2,1.5,0.5,2.2s0.7,1.2,1.3,1.6C103.7,278.6,104.3,278.8,105,278.8z"/>
</g>
<g class="st4">
	<path class="st5" d="M54.7,225l6.9-14.9h-9.1v-1.8h11.1v1.5L56.8,225H54.7z"/>
</g>
<g class="st4">
	<path class="st5" d="M59.8,123.5c1.5,0,2.7,0.4,3.6,1.1c0.9,0.7,1.3,1.7,1.3,2.9c0,0.8-0.3,1.6-0.8,2.2c-0.5,0.7-1.3,1.3-2.4,1.8
		c1.4,0.6,2.3,1.3,2.9,2s0.9,1.5,0.9,2.5c0,1.4-0.5,2.5-1.4,3.3c-1,0.8-2.3,1.2-4,1.2c-1.8,0-3.1-0.4-4.1-1.2s-1.4-1.9-1.4-3.3
		c0-1.9,1.2-3.4,3.5-4.5c-1-0.6-1.8-1.2-2.3-1.9s-0.7-1.5-0.7-2.3c0-1.2,0.4-2.2,1.3-2.9C57.1,123.8,58.3,123.5,59.8,123.5z
		 M56.2,136.2c0,0.9,0.3,1.6,1,2.1c0.6,0.5,1.5,0.8,2.7,0.8c1.1,0,2-0.3,2.6-0.8s0.9-1.3,0.9-2.2c0-0.7-0.3-1.4-0.9-2
		s-1.6-1.1-3.1-1.7c-1.1,0.5-2,1-2.5,1.6S56.2,135.4,56.2,136.2z M59.8,125c-1,0-1.7,0.2-2.2,0.7s-0.8,1.1-0.8,1.8s0.2,1.3,0.7,1.8
		c0.4,0.5,1.3,1,2.5,1.5c1.1-0.5,1.9-0.9,2.3-1.5c0.5-0.5,0.7-1.1,0.7-1.8c0-0.8-0.3-1.4-0.8-1.8C61.5,125.2,60.8,125,59.8,125z"/>
</g>
<g class="st4">
	<path class="st5" d="M106.3,74c0,6.5-2.5,9.8-7.6,9.8c-0.9,0-1.6-0.1-2.1-0.2V82c0.6,0.2,1.3,0.3,2.1,0.3c1.8,0,3.2-0.6,4.1-1.7
		s1.4-2.9,1.5-5.2h-0.1c-0.4,0.6-1,1.1-1.7,1.4s-1.5,0.5-2.3,0.5c-1.5,0-2.6-0.4-3.5-1.3s-1.3-2.1-1.3-3.7c0-1.7,0.5-3.1,1.5-4.1
		s2.2-1.5,3.8-1.5c1.1,0,2.1,0.3,3,0.9c0.8,0.6,1.5,1.4,2,2.5S106.3,72.5,106.3,74z M100.7,68.3c-1.1,0-1.9,0.3-2.5,1
		s-0.9,1.7-0.9,2.9c0,1.1,0.3,2,0.8,2.6s1.4,0.9,2.5,0.9c0.7,0,1.3-0.1,1.9-0.4s1-0.7,1.4-1.2s0.5-1,0.5-1.5c0-0.8-0.2-1.5-0.5-2.2
		s-0.7-1.2-1.3-1.6C102,68.5,101.4,68.3,100.7,68.3z"/>
</g>
<line class="st6" x1="247.2" y1="303.7" x2="253.4" y2="315.2"/>
<line class="st6" x1="230.7" y1="311.5" x2="235.6" y2="323.7"/>
<line class="st6" x1="214.2" y1="317" x2="217.5" y2="329.7"/>
<line class="st6" x1="197.5" y1="320.5" x2="199.3" y2="333.5"/>
<line class="st6" x1="308" y1="239.4" x2="319.8" y2="245.3"/>
<line class="st6" x1="299.1" y1="255.4" x2="310.1" y2="262.5"/>
<line class="st6" x1="288.7" y1="269.4" x2="298.8" y2="277.8"/>
<line class="st6" x1="277.1" y1="281.8" x2="286" y2="291.4"/>
<line class="st6" x1="319.4" y1="149.7" x2="332.3" y2="147.2"/>
<line class="st6" x1="322" y1="167.8" x2="335.1" y2="166.8"/>
<line class="st6" x1="322.3" y1="185.2" x2="335.4" y2="185.8"/>
<line class="st6" x1="320.7" y1="202.2" x2="333.6" y2="204.3"/>
<line class="st6" x1="198.6" y1="31.2" x2="200.8" y2="18.2"/>
<line class="st6" x1="216.4" y1="35.1" x2="220.1" y2="22.5"/>
<line class="st6" x1="232.8" y1="41" x2="238" y2="28.9"/>
<line class="st6" x1="248.1" y1="48.5" x2="254.7" y2="37.2"/>
<line class="st6" x1="155.8" y1="320.6" x2="153.8" y2="333.6"/>
<line class="st6" x1="137.9" y1="317" x2="134.5" y2="329.6"/>
<line class="st6" x1="121.4" y1="311.4" x2="116.5" y2="323.5"/>
<line class="st6" x1="106" y1="304.2" x2="99.6" y2="315.6"/>
<line class="st6" x1="77.2" y1="283.1" x2="68.2" y2="292.7"/>
<line class="st6" x1="64.6" y1="270" x2="54.5" y2="278.4"/>
<line class="st6" x1="54.2" y1="256" x2="43.2" y2="263.1"/>
<line class="st6" x1="45.7" y1="241.2" x2="33.9" y2="247"/>
<line class="st6" x1="32.4" y1="202" x2="19.4" y2="204.3"/>
<line class="st6" x1="30.1" y1="183.9" x2="17" y2="184.7"/>
<line class="st6" x1="30.1" y1="166.5" x2="17.1" y2="165.7"/>
<line class="st6" x1="32.1" y1="149.6" x2="19.3" y2="147.2"/>
<line class="st6" x1="45.2" y1="111.1" x2="33.4" y2="105.2"/>
<line class="st6" x1="54.2" y1="95.3" x2="43.3" y2="88"/>
<line class="st6" x1="64.7" y1="81.4" x2="54.7" y2="72.9"/>
<line class="st6" x1="76.4" y1="69" x2="67.6" y2="59.4"/>
<line class="st6" x1="105.4" y1="48.5" x2="99" y2="37"/>
<line class="st6" x1="121.7" y1="40.4" x2="116.7" y2="28.3"/>
<line class="st6" x1="138.2" y1="34.8" x2="134.8" y2="22.2"/>
<line class="st6" x1="154.9" y1="31.1" x2="153" y2="18.2"/>
</svg>
