<?xml version="1.0" encoding="utf-8"?>
<!-- Generator: Adobe Illustrator 26.0.3, SVG Export Plug-In . SVG Version: 6.00 Build 0)  -->
<svg version="1.1" id="Layer_1" xmlns="http://www.w3.org/2000/svg" xmlns:xlink="http://www.w3.org/1999/xlink" x="0px" y="0px"
	 viewBox="0 0 318.6 318.7" style="enable-background:new 0 0 318.6 318.7;" xml:space="preserve">
<style type="text/css">
	.st0{fill:#686868;}
	.st1{enable-background:new    ;}
	.st2{fill:#FFFFFF;}
	.st3{fill:none;stroke:#FFFFFF;stroke-width:5;stroke-miterlimit:10;}
	.st4{fill:none;stroke:#FFFFFF;stroke-width:2;stroke-miterlimit:10;}
</style>
<g>
	<circle class="st0" cx="159.3" cy="159.4" r="159.3"/>
	<g class="st1">
		<path class="st2" d="M165.7,42.4h-3.3l-8.2-13.3h-0.1l0.1,0.7c0.1,1.4,0.2,2.7,0.2,3.9v8.7h-2.5V25.7h3.3l8.2,13.2h0.1
			c0-0.2,0-0.8-0.1-1.9c0-1.1-0.1-2-0.1-2.6v-8.7h2.5L165.7,42.4z"/>
	</g>
	<g class="st1">
		<path class="st2" d="M234.7,52.9c-0.6,0.9-1.3,1.5-2.1,1.7c-0.9,0.3-1.8,0.2-2.9-0.2v0.1c1,0.9,1.7,1.7,1.8,2.7
			c0.2,0.9,0,1.9-0.6,2.8c-0.8,1.3-2,2.1-3.3,2.2c-1.4,0.1-2.9-0.3-4.7-1.4c-0.7-0.5-1.4-1-1.9-1.5c-0.6-0.5-1-1.1-1.4-1.7l1-1.5
			c0.4,0.7,0.9,1.3,1.5,1.9c0.6,0.6,1.2,1.1,1.8,1.5c2.4,1.5,4.3,1.3,5.5-0.6c1.1-1.7,0.3-3.4-2.4-5.1l-1.4-0.9l0.9-1.4l1.4,0.9
			c1.1,0.7,2.1,1,3.1,0.9c0.9-0.1,1.7-0.6,2.2-1.4c0.4-0.7,0.5-1.4,0.3-2.1c-0.2-0.7-0.7-1.3-1.6-1.8c-0.6-0.4-1.3-0.7-1.9-0.8
			c-0.7-0.2-1.5-0.3-2.5-0.2l-0.1-1.6c0.9-0.1,1.8,0,2.7,0.2s1.8,0.6,2.6,1.1c1.4,0.9,2.2,1.8,2.6,2.9
			C235.6,50.7,235.4,51.8,234.7,52.9z"/>
	</g>
	<g class="st1">
		<path class="st2" d="M266.1,97.6c2.9-1.6,5.3-2.2,7.4-1.8c2,0.3,3.6,1.6,4.8,3.8c0.4,0.8,0.7,1.4,0.8,1.9l-1.4,0.8
			c-0.1-0.6-0.3-1.2-0.7-1.9c-0.9-1.6-2-2.5-3.4-2.8s-3.2,0.1-5.3,1.2l0.1,0.1c1.5,0.1,2.8,1,3.6,2.5c0.7,1.3,0.9,2.6,0.5,3.8
			s-1.3,2.2-2.6,2.9c-1.5,0.8-2.9,1.1-4.3,0.7c-1.3-0.4-2.4-1.2-3.1-2.7c-0.8-1.5-0.9-3-0.3-4.5C262.8,100,264.1,98.7,266.1,97.6z
			 M263.8,105.2c0.5,0.9,1.2,1.5,2.1,1.7s1.9,0,3-0.6c1-0.5,1.6-1.2,1.9-2s0.2-1.7-0.4-2.6c-0.3-0.6-0.8-1.1-1.3-1.4
			c-0.5-0.4-1.1-0.6-1.7-0.6c-0.6-0.1-1.1,0-1.6,0.3c-0.7,0.4-1.3,0.9-1.7,1.4c-0.4,0.6-0.7,1.2-0.8,1.9
			C263.3,103.9,263.4,104.6,263.8,105.2z"/>
	</g>
	<g class="st1">
		<path class="st2" d="M277.5,164.1v-9.4h16.7v9.4h-2.3v-6.7h-4.5v6.3h-2.3v-6.3h-5.2v6.7H277.5z"/>
	</g>
	<g class="st1">
		<path class="st2" d="M153.6,278.8c0-1.5,0.5-2.6,1.6-3.5c1.1-0.8,2.5-1.3,4.4-1.3s3.4,0.3,4.6,0.9v2.6c-0.8-0.4-1.6-0.6-2.4-0.8
			c-0.9-0.2-1.7-0.3-2.4-0.3c-1.1,0-1.9,0.2-2.4,0.6s-0.8,1-0.8,1.7c0,0.6,0.2,1.2,0.7,1.6s1.4,0.9,2.9,1.5s2.6,1.3,3.2,2.1
			c0.6,0.8,0.9,1.7,0.9,2.8c0,1.4-0.5,2.5-1.5,3.3s-2.3,1.2-4,1.2c-1.6,0-3.2-0.4-4.8-1.1l0.9-2.2c1.5,0.6,2.8,0.9,4,0.9
			c0.9,0,1.6-0.2,2-0.6c0.5-0.4,0.7-0.9,0.7-1.5c0-0.4-0.1-0.8-0.3-1.1c-0.2-0.3-0.5-0.6-0.9-0.9s-1.2-0.6-2.3-1.1
			c-1.2-0.5-2.1-1-2.7-1.4c-0.6-0.4-1-0.9-1.3-1.5C153.8,280.2,153.6,279.5,153.6,278.8z"/>
	</g>
	<g class="st1">
		<path class="st2" d="M264.2,209.4l0.9-1.6l10.5,5.6c0.9,0.5,1.7,0.9,2.4,1.4c-0.1-0.2-0.1-0.5-0.2-0.7c-0.1-0.3-0.3-1.4-0.7-3.4
			l1.6-0.3l0.9,5.5l-0.8,1.4L264.2,209.4z"/>
		<path class="st2" d="M256.1,224.6l5.1-9.6l1.4,0.8l1.8,5.9c0.6,1.8,1,3,1.3,3.7c0.3,0.6,0.7,1.2,1,1.6s0.8,0.8,1.4,1.1
			c0.8,0.4,1.5,0.5,2.2,0.3s1.3-0.8,1.7-1.6c0.3-0.6,0.5-1.2,0.6-1.9s0.1-1.5-0.1-2.4l1.6-0.3c0.4,2,0.2,3.7-0.7,5.3
			c-0.7,1.4-1.7,2.3-2.8,2.7c-1.1,0.4-2.3,0.3-3.5-0.3c-0.9-0.5-1.7-1.2-2.3-2.3c-0.6-1-1.3-2.6-1.9-4.8l-1.4-4.9h-0.1l-4,7.5
			L256.1,224.6z"/>
	</g>
	<g class="st1">
		<path class="st2" d="M96.3,257l9.2,5.8l-0.9,1.4l-6,1.4c-1.8,0.4-3.1,0.8-3.8,1c-0.7,0.3-1.2,0.6-1.7,0.9s-0.9,0.8-1.2,1.3
			c-0.5,0.7-0.6,1.5-0.4,2.2s0.7,1.3,1.5,1.8c0.6,0.4,1.2,0.6,1.8,0.8c0.6,0.1,1.4,0.2,2.4,0.1l0.2,1.6c-2,0.3-3.7-0.1-5.2-1
			c-1.3-0.8-2.1-1.8-2.5-3c-0.3-1.1-0.1-2.3,0.6-3.4c0.6-0.9,1.4-1.6,2.4-2.2s2.7-1.1,4.9-1.5l5-1.1V263l-7.2-4.5L96.3,257z"/>
		<path class="st2" d="M88.4,252l1.6,1l-6.3,10c-0.5,0.8-1,1.6-1.6,2.3c0.2,0,0.5-0.1,0.7-0.1c0.3,0,1.4-0.2,3.5-0.4l0.2,1.6
			l-5.5,0.5l-1.3-0.8L88.4,252z"/>
	</g>
	<g class="st1">
		<path class="st2" d="M58.1,215.5l5.1,9.6l-1.4,0.8l-5.9-1.8c-1.8-0.5-3.1-0.9-3.8-1s-1.4-0.1-1.9,0c-0.6,0.1-1.1,0.3-1.7,0.5
			c-0.8,0.4-1.3,1-1.5,1.7s-0.1,1.5,0.4,2.3c0.3,0.6,0.7,1.1,1.2,1.6c0.5,0.4,1.2,0.8,2.1,1.2l-0.7,1.5c-1.8-0.8-3.2-1.9-4-3.5
			c-0.7-1.4-1-2.6-0.7-3.8s1-2.1,2.2-2.7c0.9-0.5,2-0.7,3.2-0.7s2.9,0.4,5,1.1l4.9,1.5h0.1l-4-7.5L58.1,215.5z"/>
		<path class="st2" d="M48.1,204.9l1.2,2.2l3.4-1.8l0.9,1.6l-3.4,1.8l3.8,7.1l-1.5,0.8l-13.6-1.7l-0.9-1.8l9.9-5.3l-1.2-2.2
			L48.1,204.9z M48.6,209.4l-4.9,2.6c-1,0.5-2.1,1.1-3.3,1.6v0.1c0.8,0,1.5,0,2.1,0.1l9,1.1L48.6,209.4z"/>
	</g>
	<g class="st1">
		<path class="st2" d="M42,152.3v3l-10,2.8c-0.4,0.1-1.1,0.3-1.9,0.5s-1.4,0.3-1.7,0.3c0.5,0.1,1.1,0.2,1.9,0.4s1.4,0.3,1.7,0.4
			l9.9,2.8v3l-8.3,2.1l-8.3,2.2V167l9.7-2.4c1.6-0.4,2.9-0.6,4.1-0.8c-0.6-0.1-1.4-0.2-2.2-0.4s-1.4-0.3-1.9-0.5l-9.7-2.7v-2.7
			l9.8-2.8c0.9-0.3,2.3-0.5,4.1-0.8c-1.1-0.1-2.5-0.4-4.1-0.8l-9.7-2.4v-2.8L42,152.3z"/>
	</g>
	<g class="st1">
		<path class="st2" d="M87.4,52c0.6,0.9,0.8,1.8,0.7,2.7c-0.1,0.9-0.6,1.7-1.4,2.5v0.1c1.2-0.6,2.3-0.8,3.2-0.5s1.7,0.8,2.3,1.7
			c0.9,1.3,1.1,2.7,0.6,4s-1.5,2.5-3.3,3.6c-0.7,0.5-1.5,0.9-2.1,1.1c-0.7,0.3-1.4,0.5-2.2,0.6l-1-1.5c0.8-0.1,1.6-0.3,2.4-0.6
			c0.8-0.3,1.5-0.6,2.1-1c2.4-1.6,3-3.3,1.8-5.2c-1.1-1.7-3-1.7-5.6,0l-1.4,0.9L82.6,59l1.4-0.9c1.1-0.7,1.8-1.5,2.1-2.4
			c0.3-0.9,0.2-1.8-0.3-2.6c-0.4-0.7-1-1.1-1.7-1.2s-1.5,0.1-2.3,0.6c-0.6,0.4-1.1,0.8-1.6,1.4s-0.8,1.3-1.2,2.2l-1.5-0.6
			c0.3-0.8,0.7-1.6,1.3-2.3c0.6-0.7,1.3-1.4,2.1-1.9c1.4-0.9,2.6-1.2,3.8-1.1C85.8,50.3,86.7,50.9,87.4,52z"/>
		<path class="st2" d="M98.6,44.8c0.6,0.9,0.8,1.8,0.7,2.7c-0.1,0.9-0.6,1.7-1.4,2.5v0.1c1.2-0.6,2.3-0.8,3.2-0.5s1.7,0.8,2.3,1.7
			c0.9,1.3,1.1,2.7,0.6,4s-1.5,2.5-3.3,3.6c-0.7,0.5-1.5,0.9-2.1,1.1c-0.7,0.3-1.4,0.5-2.2,0.6l-1-1.5c0.8-0.1,1.6-0.3,2.4-0.6
			s1.5-0.6,2.1-1c2.4-1.6,3-3.3,1.8-5.2c-1.1-1.7-3-1.7-5.6,0l-1.4,0.9l-0.9-1.4l1.4-0.9c1.1-0.7,1.8-1.5,2.1-2.4
			c0.3-0.9,0.2-1.8-0.3-2.6c-0.4-0.7-1-1.1-1.7-1.2s-1.5,0.1-2.3,0.6c-0.6,0.4-1.1,0.8-1.6,1.4c-0.4,0.5-0.9,1.2-1.3,2.1l-1.5-0.6
			c0.3-0.8,0.7-1.6,1.3-2.3c0.6-0.7,1.3-1.4,2.1-1.9c1.4-0.9,2.6-1.2,3.8-1.1C97,43.1,97.9,43.7,98.6,44.8z"/>
	</g>
	<line class="st3" x1="159.4" y1="0" x2="159.4" y2="17"/>
	<line class="st3" x1="159.2" y1="301.7" x2="159.2" y2="318.7"/>
	<line class="st3" x1="318.6" y1="159.5" x2="301.6" y2="159.5"/>
	<line class="st3" x1="17" y1="159.3" x2="0" y2="159.3"/>
	<line class="st3" x1="246.2" y1="292.9" x2="236.9" y2="278.7"/>
	<line class="st3" x1="81.7" y1="40.1" x2="72.4" y2="25.9"/>
	<line class="st3" x1="299.8" y1="234.6" x2="284.8" y2="226.6"/>
	<line class="st3" x1="33.8" y1="92.3" x2="18.8" y2="84.3"/>
	<line class="st3" x1="72.3" y1="292.9" x2="81.6" y2="278.6"/>
	<line class="st3" x1="237.1" y1="40.3" x2="246.4" y2="26"/>
	<line class="st3" x1="18.7" y1="234.4" x2="33.7" y2="226.4"/>
	<line class="st3" x1="284.9" y1="92.6" x2="299.9" y2="84.6"/>
	<g class="st1">
		<path class="st2" d="M227.4,254.3l1.5-1.1l6.8,9.7c0.6,0.8,1.1,1.6,1.5,2.4c0-0.2,0.1-0.5,0.2-0.7c0.1-0.3,0.4-1.4,1-3.4l1.6,0.5
			l-1.7,5.3l-1.3,0.9L227.4,254.3z"/>
		<path class="st2" d="M223.7,269.2c-1.4,1-2.8,1.4-4.1,1.3s-2.4-0.8-3.3-2.1c-1-1.4-1.3-2.8-1-4.3c0.3-1.4,1.3-2.7,2.9-3.8
			c1.5-1.1,2.9-1.6,4-1.7l1,1.5c-0.6,0-1.3,0.2-2.1,0.5s-1.5,0.7-2.1,1.1c-1.1,0.8-1.8,1.6-2,2.6c-0.2,0.9,0,1.9,0.6,2.9
			c1.3,1.9,3.2,2,5.5,0.4c0.6-0.4,1.3-1.1,2.2-1.9h1.2l3.9,6.8l-6.8,4.7l-1-1.4l5.5-3.8l-2.5-4.3
			C225.1,268.1,224.4,268.7,223.7,269.2z"/>
	</g>
	<g class="st1">
		<path class="st2" d="M44.3,99.7c0.9,0.5,1.6,1.2,1.9,2c0.3,0.8,0.3,1.8,0,2.9h0.1c0.8-1.1,1.6-1.8,2.5-2c0.9-0.3,1.8-0.1,2.8,0.4
			c1.4,0.7,2.2,1.8,2.5,3.2s-0.1,3-1,4.8c-0.4,0.8-0.8,1.5-1.3,2.1s-1,1.1-1.6,1.6l-1.6-0.8c0.6-0.5,1.2-1,1.8-1.7
			c0.5-0.6,1-1.3,1.3-1.9c1.3-2.6,1-4.4-1-5.4c-1.8-0.9-3.4,0-4.9,2.8l-0.8,1.5l-1.4-0.8l0.8-1.5c0.6-1.2,0.8-2.2,0.7-3.1
			c-0.2-0.9-0.7-1.6-1.6-2.1c-0.7-0.4-1.4-0.4-2.1-0.1c-0.7,0.3-1.2,0.8-1.7,1.7c-0.3,0.6-0.6,1.3-0.7,2s-0.1,1.5-0.1,2.5l-1.6,0.3
			c-0.2-0.9-0.2-1.8,0-2.7c0.1-0.9,0.4-1.8,0.9-2.7c0.7-1.4,1.7-2.4,2.7-2.8C42,99.1,43.1,99.1,44.3,99.7z"/>
		<path class="st2" d="M54.7,89.3c2.6,1.3,4.2,2.7,5.1,4.2s0.8,3,0,4.7c-0.8,1.6-2.1,2.5-3.8,2.6c-1.7,0.2-3.8-0.4-6.3-1.7
			c-2.6-1.3-4.3-2.7-5.1-4.2s-0.8-3,0-4.6s2.1-2.5,3.9-2.6C50.1,87.4,52.2,88,54.7,89.3z M50.5,97.4c2.1,1.1,3.8,1.7,5.1,1.7
			c1.2,0,2.2-0.5,2.7-1.6c0.6-1.1,0.5-2.2-0.2-3.2s-2.2-2.1-4.3-3.2s-3.8-1.7-5.1-1.7c-1.2,0-2.2,0.5-2.7,1.7
			c-0.6,1.1-0.5,2.2,0.2,3.2C46.9,95.2,48.3,96.2,50.5,97.4z"/>
	</g>
	<line class="st4" x1="206.8" y1="7.7" x2="201.7" y2="23.9"/>
	<line class="st4" x1="21.2" y1="124.7" x2="4.8" y2="120.6"/>
	<line class="st4" x1="205.3" y1="312" x2="199.8" y2="295.9"/>
	<line class="st4" x1="118" y1="23.1" x2="113.3" y2="6.7"/>
	<line class="st4" x1="277.4" y1="266.4" x2="264.8" y2="255"/>
	<line class="st4" x1="53.8" y1="63.9" x2="41.2" y2="52.5"/>
	<line class="st4" x1="42.5" y1="267.8" x2="54.9" y2="256.2"/>
	<line class="st4" x1="263.7" y1="62.7" x2="276.2" y2="51.2"/>
	<line class="st4" x1="4.7" y1="198.1" x2="21.2" y2="194"/>
	<line class="st4" x1="297.4" y1="125" x2="313.9" y2="120.9"/>
	<line class="st4" x1="313.8" y1="198.1" x2="297.3" y2="194"/>
	<line class="st4" x1="118" y1="295.8" x2="113.1" y2="312.1"/>
</g>
</svg>
