<?xml version="1.0" encoding="utf-8"?>
<!-- Generator: Adobe Illustrator 26.0.3, SVG Export Plug-In . SVG Version: 6.00 Build 0)  -->
<svg version="1.1" id="Layer_1" xmlns="http://www.w3.org/2000/svg" xmlns:xlink="http://www.w3.org/1999/xlink" x="0px" y="0px"
	 viewBox="0 0 29.8 186.1" style="enable-background:new 0 0 29.8 186.1;" xml:space="preserve">
<style type="text/css">
	.st0{fill:#FFFFFF;}
</style>
<g>
	<path class="st0" d="M14.9,67.2c-1.1,0-2-0.9-2-2V10c0-1.1,0.9-2,2-2c1.1,0,2,0.9,2,2v55.2C16.9,66.3,16,67.2,14.9,67.2z"/>
</g>
<g>
	<polygon class="st0" points="21.9,12.1 14.9,0 7.9,12.1 	"/>
</g>
<g>
	<path class="st0" d="M17.5,95.6l10.6,4.2c0.6,0.3,1.4-0.1,1.6-0.7c0.1-0.2,0.1-0.4,0.1-0.5l-0.1-1.4c0-0.4-0.2-0.7-0.5-0.9
		c-7.8-5.4-7-5-11.6-8.2V77.9c-0.1-1.3-1.1-2.2-2.4-2.2c-0.1,0-0.1,0-0.2,0c-1.3-0.2-2.4,0.7-2.6,2c0,0.1,0,0.1,0,0.2V88
		c-4.7,3.3-3.9,2.8-11.6,8.2c-0.3,0.2-0.5,0.6-0.5,0.9L0,98.6c-0.1,0.7,0.5,1.3,1.1,1.3c0.2,0,0.4,0,0.5-0.1l10.6-4.2
		c0,0,0,12.4,0,12.6l-3.9,2.7c-0.3,0.2-0.5,0.6-0.5,1l0,0c0,0.7,0.6,1.2,1.2,1.2c0.1,0,0.3,0,0.4-0.1l4.1-1.4h2.6l4.1,1.4
		c0.6,0.2,1.4-0.1,1.6-0.8c0-0.1,0.1-0.3,0.1-0.4l0,0c0-0.4-0.2-0.8-0.5-1l-3.9-2.7C17.5,108.1,17.5,95.6,17.5,95.6z"/>
</g>
<g>
	<path class="st0" d="M14.9,186.1c-1.1,0-2-0.9-2-2v-60c0-1.1,0.9-2,2-2c1.1,0,2,0.9,2,2v60C16.9,185.2,16,186.1,14.9,186.1z"/>
</g>
</svg>
