<?xml version="1.0" encoding="utf-8"?>
<!-- Generator: Adobe Illustrator 26.0.3, SVG Export Plug-In . SVG Version: 6.00 Build 0)  -->
<svg version="1.1" id="Layer_1" xmlns="http://www.w3.org/2000/svg" xmlns:xlink="http://www.w3.org/1999/xlink" x="0px" y="0px"
	 viewBox="0 0 42.8 37.6" style="enable-background:new 0 0 42.8 37.6;" xml:space="preserve">
<style type="text/css">
	.st0{fill:#C6C6C6;}
</style>
<g>
	<path class="st0" d="M21.4,0C9.6,0,0.1,9.5,0,21.3v10c0,2.1,1.7,3.8,3.8,3.8H5V22.6H3.8c-0.4,0-0.9,0.1-1.3,0.2v-1.5
		C2.5,10.9,11,2.4,21.4,2.4s18.9,8.5,18.9,18.9v1.5c-0.4-0.1-0.8-0.2-1.3-0.2h-1.2v12.5h1.2c2.1,0,3.8-1.7,3.8-3.8v-10
		C42.8,9.6,33.2,0,21.4,0z"/>
	<path class="st0" d="M11.3,20.1H10c-1.4,0-2.5,1.1-2.5,2.5l0,0v12.5c0,1.4,1.1,2.5,2.5,2.5h1.2c0.7,0,1.3-0.6,1.3-1.3v-15
		C12.6,20.7,12,20.1,11.3,20.1C11.3,20.1,11.3,20.1,11.3,20.1z"/>
	<path class="st0" d="M32.8,20.1h-1.2c-0.7,0-1.3,0.5-1.3,1.2c0,0,0,0,0,0v15c0,0.7,0.6,1.3,1.3,1.3h1.2c1.4,0,2.5-1.1,2.5-2.5V22.6
		C35.3,21.2,34.2,20.1,32.8,20.1z"/>
</g>
</svg>
