<?xml version="1.0" encoding="utf-8"?>
<!-- Generator: Adobe Illustrator 26.0.3, SVG Export Plug-In . SVG Version: 6.00 Build 0)  -->
<svg version="1.1" id="Layer_1" xmlns="http://www.w3.org/2000/svg" xmlns:xlink="http://www.w3.org/1999/xlink" x="0px" y="0px"
	 viewBox="0 0 26.1 40.8" style="enable-background:new 0 0 26.1 40.8;" xml:space="preserve">
<style type="text/css">
	.st0{fill:#606060;}
</style>
<path class="st0" d="M26.1,18.6v10.3c0,6.6-5.3,11.9-11.9,11.9h-2.3C5.3,40.8,0,35.4,0,28.9V18.6H26.1z M9.5,11.5V6.9
	c0-1.6,1.1-3,2.6-3.5V0h-0.2C5.3,0,0,5.3,0,11.9v4.7h12.1V15C10.5,14.5,9.5,13.1,9.5,11.5z M14.7,11.5V6.9c-0.1-0.9-0.9-1.6-1.8-1.5
	c-0.8,0.1-1.4,0.7-1.5,1.5v4.6c0.1,0.9,0.9,1.6,1.8,1.5C14,13,14.6,12.3,14.7,11.5z M14.2,0h-0.2v3.4c1.5,0.4,2.6,1.9,2.6,3.5v4.6
	c0,1.6-1.1,3-2.6,3.5v1.6h12.1v-4.7C26.1,5.3,20.8,0,14.2,0z"/>
</svg>
