<?xml version="1.0" encoding="utf-8"?>
<!-- Generator: Adobe Illustrator 26.0.3, SVG Export Plug-In . SVG Version: 6.00 Build 0)  -->
<svg version="1.1" id="Layer_1" xmlns="http://www.w3.org/2000/svg" xmlns:xlink="http://www.w3.org/1999/xlink" x="0px" y="0px"
	 viewBox="0 0 36.7 42.8" style="enable-background:new 0 0 36.7 42.8;" xml:space="preserve">
<style type="text/css">
	.st0{fill:#C6C6C6;}
</style>
<g>
	<path class="st0" d="M29,22.2c0-0.1,0.1-0.2,0.1-0.4c0-0.7-0.6-1.2-1.2-1.2H12.4c-0.7,0-1.2,0.6-1.2,1.2c0,0.1,0,0.2,0.1,0.4H29z"
		/>
	<path class="st0" d="M35.4,24.7h-4.4c0.1-0.2,0.1-0.4,0.1-0.5c0-0.9-0.7-1.5-1.5-1.5H10.8c-0.9,0-1.5,0.7-1.5,1.5
		c0,0.2,0,0.4,0.1,0.5H7.9c0.1-0.5-0.1-1-0.6-1.1c-0.5-0.1-1,0.1-1.1,0.6c0,0.2,0,0.3,0,0.5H4.9c-0.7,0-1.3,0.6-1.3,1.3v4.7
		c-3.6,0.8-5,4.7-1.7,7.3c1.7,1.3,4.2,1.2,6.3,1.1c3.3-0.1,6,0.8,8.1,3.3c0.8,0.9,2-0.4,1.3-1.3c-1.7-2.1-4.1-3.4-6.7-3.8
		c-1.5-0.1-2.9-0.1-4.4,0c-0.8,0-1.7-0.1-2.5-0.3c-2.6-0.7-2.7-3.7-0.4-4.4v1c0.1,0.7,0.6,1.2,1.3,1.2h30.5c0.7,0,1.3-0.6,1.3-1.3
		v-7.6C36.7,25.3,36.1,24.7,35.4,24.7L35.4,24.7z"/>
	<path class="st0" d="M16.5,11.1l1.5,7.4h-3.1c-0.6,0-1,0.4-1,1c0,0.2,0.1,0.4,0.2,0.6h11.9c0.1-0.2,0.2-0.4,0.2-0.6
		c0-0.6-0.4-1-1-1h-3.5l-1.7-8.2c2.6-1.6,3.4-5.1,1.7-7.7c-1.6-2.6-5.1-3.4-7.7-1.7S10.7,6,12.4,8.6C13.3,10,14.8,11,16.5,11.1z
		 M18.9,2.4C20.4,3.2,21,5,20.3,6.5c-0.4,0.9-1.8,0.1-1.4-0.8c0.3-0.8-0.1-1.6-0.8-2C17.2,3.3,18,1.9,18.9,2.4z"/>
</g>
</svg>
