<?xml version="1.0" encoding="utf-8"?>
<!-- Generator: Adobe Illustrator 26.0.3, SVG Export Plug-In . SVG Version: 6.00 Build 0)  -->
<svg version="1.1" id="Layer_1" xmlns="http://www.w3.org/2000/svg" xmlns:xlink="http://www.w3.org/1999/xlink" x="0px"
	y="0px" viewBox="0 0 67.8 67.8" style="enable-background:new 0 0 67.8 67.8;" xml:space="preserve">
	<style type="text/css">
		.st0 {
			fill: #CCCCCC;
		}
	</style>
	<g>
		<path class="st0" d="M67.6,30c-0.1-0.3-0.4-0.7-0.6-0.9l-8.5-8.5c-1.1-1.1-2.9-1.1-4,0s-1.1,2.9,0,4l3.7,3.7H42.4
		c-1.6,0-2.8,1.3-2.8,2.8c0,1.6,1.3,2.8,2.8,2.8c0,0,0,0,0,0h15.8l-3.7,3.7c-1.1,1.1-1.1,2.9,0,4c1.1,1.1,2.9,1.1,4,0c0,0,0,0,0,0
		l8.5-8.5c0.3-0.3,0.5-0.6,0.6-0.9C67.9,31.5,67.9,30.7,67.6,30z" />
		<path class="st0" d="M48,39.6c-1.6,0-2.8,1.3-2.8,2.8l0,0v14.1H33.9V11.3c0-1.2-0.8-2.3-2-2.7l-9.8-2.9h23.1v14.2
		c0.2,1.6,1.6,2.7,3.1,2.5c1.3-0.2,2.3-1.2,2.5-2.5v-17C50.8,1.3,49.5,0,48,0l0,0H2.8C2.7,0,2.6,0,2.5,0.1c-0.1,0-0.3,0-0.4,0.1
		C1.8,0.2,1.6,0.3,1.3,0.5c-0.1,0-0.1,0-0.2,0.1l0,0.1C0.8,0.9,0.5,1.2,0.3,1.5c0,0.1-0.1,0.2-0.1,0.2C0.1,2,0.1,2.2,0,2.4
		c0,0.1,0,0.2,0,0.2c0,0,0,0.1,0,0.2v56.6c0,1.3,1,2.5,2.3,2.8l28.2,5.7c0.2,0,0.4,0,0.6,0c1.6,0,2.8-1.3,2.8-2.8v-2.8H48
		c1.5,0,2.8-1.3,2.8-2.8v-17C50.8,40.9,49.5,39.6,48,39.6z" />
	</g>
</svg>