<?xml version="1.0" encoding="utf-8"?>
<!-- Generator: Adobe Illustrator 26.0.3, SVG Export Plug-In . SVG Version: 6.00 Build 0)  -->
<svg version="1.1" id="Layer_1" xmlns="http://www.w3.org/2000/svg" xmlns:xlink="http://www.w3.org/1999/xlink" x="0px" y="0px"
	 viewBox="0 0 200.7 200.7" style="enable-background:new 0 0 200.7 200.7;" xml:space="preserve">
<style type="text/css">
	.st0{fill:#3F3F3F;}
</style>
<g>
	<path class="st0" d="M200.2,90.4c-3.9,0.6-8.1,1.3-12.5,2.3c-7.4,1.6-14.6,3.8-21.7,6.4l1.6,2.8c1.6,2.8,0.6,6.4-2.3,8c0,0,0,0,0,0
		c-0.9,0.5-1.9,0.7-2.9,0.7c-2.1,0-4.1-1.1-5.1-3l-2.2-3.9c-9.5,4.4-18.4,10-26.4,16.7l4.6,4.6c2.3,2.3,2.3,6,0,8.3
		c-2.3,2.3-6,2.3-8.3,0l-4.9-4.9c-7.3,7.6-13.4,16.3-18.1,25.7l5.7,3.2c2.8,1.6,3.8,5.2,2.2,8c-1,1.8-3,2.9-5,3c-1,0-2-0.3-2.9-0.8
		l-4.7-2.6c-4.2,11.3-6.9,23.1-8,35.1c3.7,0.4,7.4,0.6,11.1,0.6c55.4-0.1,100.3-45,100.4-100.4C200.7,97,200.6,93.7,200.2,90.4
		L200.2,90.4z"/>
	<path class="st0" d="M33.1,98.8c-1.6-2.8-0.6-6.4,2.2-8c2.8-1.6,6.4-0.6,8,2.2c0,0,0,0.1,0.1,0.1l3.2,5.7
		c9.4-4.7,18.1-10.8,25.7-18.1l-4.9-4.9c-2.2-2.4-2.1-6.1,0.3-8.3c2.3-2.1,5.7-2.1,8,0l4.7,4.7C87,64,92.6,55.1,97,45.6l-3.9-2.2
		c-2.9-1.5-3.9-5.1-2.4-8c1.5-2.9,5.1-3.9,8-2.4c0,0,0.1,0,0.1,0.1l2.8,1.6c4.1-11.1,7-22.5,8.7-34.2c-3.3-0.3-6.6-0.5-10-0.5
		C44.9,0,0,44.9,0,100.3c0,3.7,0.2,7.5,0.6,11.2c12-1.1,23.8-3.8,35.1-8L33.1,98.8z"/>
	<path class="st0" d="M87.7,146.2l4,2.2c5.3-10.4,12-19.9,20.1-28.3l-4.5-4.5c-2.2-2.4-2.1-6.1,0.3-8.3c2.3-2.1,5.7-2.1,8,0l4.8,4.8
		c8.8-7.4,18.6-13.7,29.1-18.6l-3.2-5.7c-1.6-2.8-0.6-6.4,2.2-8c2.8-1.6,6.4-0.6,8,2.2c0,0,0,0.1,0.1,0.1l3.8,6.8
		c8.2-3.2,16.6-5.7,25.2-7.6c4.6-1,8.9-1.8,12.9-2.4c-8.6-38.1-38.3-67.8-76.4-76.4c-0.6,4-1.4,8.3-2.4,12.9
		c-1.9,8.6-4.5,17-7.6,25.3l6.8,3.8c3,1.4,4.2,4.8,2.9,7.8c-1.4,3-4.8,4.2-7.8,2.9c-0.3-0.1-0.5-0.3-0.8-0.4l-5.7-3.2
		c-4.9,10.4-11.2,20.2-18.6,29.1l4.8,4.8c2.3,2.3,2.3,6,0,8.3s-6,2.3-8.3,0l-4.5-4.5c-8.4,8.1-17.9,14.9-28.3,20.1l2.2,4
		c1.5,2.9,0.5,6.4-2.4,8c-2.8,1.5-6.3,0.5-7.9-2.3l-2.7-4.9c-12.5,4.8-25.6,7.9-38.9,9.2c8.8,37.2,37.9,66.2,75.1,75.1
		c1.3-13.3,4.4-26.4,9.2-38.9l-4.9-2.7c-2.8-1.6-3.9-5.2-2.3-8C81.3,145.6,84.9,144.6,87.7,146.2L87.7,146.2z"/>
</g>
</svg>
