<?xml version="1.0" encoding="utf-8"?>
<!-- Generator: Adobe Illustrator 26.0.3, SVG Export Plug-In . SVG Version: 6.00 Build 0)  -->
<svg version="1.1" id="Layer_1" xmlns="http://www.w3.org/2000/svg" xmlns:xlink="http://www.w3.org/1999/xlink" x="0px" y="0px"
	 viewBox="0 0 216 216" style="enable-background:new 0 0 216 216;" xml:space="preserve">
<style type="text/css">
	.st0{fill:#3F3F3F;}
</style>
<g>
	<path class="st0" d="M108,43.5c-21.6,0-25.1-21-14-31.8l9.5-9.7c2.4-2.5,6.4-2.6,9-0.1c0,0,0.1,0.1,0.1,0.1l9.8,10
		C133.1,22.8,129.5,43.5,108,43.5z"/>
	<path class="st0" d="M209.7,188.6H6.3c-3.5,0-6.3,1.9-6.3,4.3v18.8c0,2.4,2.8,4.3,6.3,4.3h203.4c3.5,0,6.3-1.9,6.3-4.3v-18.8
		C216,190.6,213.2,188.6,209.7,188.6z"/>
	<path class="st0" d="M18,123.8c1.9,1.9,5.7,4.5,8.4,4.8c3,0.4,7.7-2.9,9.7-4.9c0.9-0.9,8.8-8.6,18-8.6s17.1,7.7,18,8.6
		c1.6,1.6,6,4.9,9,4.9s7.4-3.3,9-4.9c0.9-0.9,8.9-8.6,18-8.6s17.1,7.7,18,8.6c1.6,1.6,6,4.9,9,4.9s7.4-3.3,9.1-4.9
		c0.9-0.9,8.9-8.6,18-8.6s17.1,7.7,18,8.6c1.9,1.9,6.2,4.9,9,4.9s7-2.9,9-4.9c2.2-2.2,4.7-4,7.4-5.5v-11.1c0-10.5-8.5-19-19-19h-157
		c-10.5,0-19,8.5-19,19v11.1C13.3,119.8,15.7,121.6,18,123.8z"/>
	<path class="st0" d="M127.9,75.5V57.4c0-3.5-2.8-6.3-6.3-6.3h-27c-3.5,0-6.3,2.8-6.3,6.3c0,0,0,0,0,0v18.1H127.9z"/>
	<path class="st0" d="M205.5,176v-41.8c-1.1,1-2.3,1.8-3.5,2.7c-9,6.1-16.9,5.9-25.4,0.4c-2-1.3-3.9-2.8-5.6-4.4
		c-1.6-1.6-6-4.9-9-4.9s-7.4,3.3-9,4.9c-0.9,0.9-8.9,8.6-18,8.6s-17.1-7.7-18-8.6c-1.6-1.6-6-4.9-9-4.9s-7.4,3.3-9.1,4.9
		c-0.9,0.9-8.9,8.6-18,8.6s-17.1-7.7-18-8.6c-1.6-1.6-6-4.9-9-4.9s-7.4,3.3-9,4.9c-1.7,1.7-3.6,3.2-5.6,4.4
		c-8.7,5.6-16.5,5.6-25.4-0.4c-1.2-0.8-2.4-1.7-3.5-2.6V176H205.5z"/>
</g>
</svg>
