<?xml version="1.0" encoding="utf-8"?>
<!-- Generator: Adobe Illustrator 26.0.3, SVG Export Plug-In . SVG Version: 6.00 Build 0)  -->
<svg version="1.1" id="Layer_1" xmlns="http://www.w3.org/2000/svg" xmlns:xlink="http://www.w3.org/1999/xlink" x="0px" y="0px"
	 viewBox="0 0 215.4 215.4" style="enable-background:new 0 0 215.4 215.4;" xml:space="preserve">
<style type="text/css">
	.st0{fill:#3F3F3F;}
</style>
<g>
	<path class="st0" d="M205,56.1l8.6-8.6c2.5-2.5,2.5-6.5,0-8.9c0,0,0,0,0,0l-13.9-13.9l13.9-13.9c2.5-2.5,2.5-6.5,0-8.9
		c-2.5-2.5-6.5-2.5-8.9,0l0,0l-13.9,13.9L176.8,1.8c-2.5-2.5-6.5-2.5-8.9,0l-8.6,8.6L205,56.1z"/>
	<path class="st0" d="M10.4,159.3l-8.6,8.6c-2.5,2.5-2.5,6.5,0,8.9l13.9,13.9L1.8,204.7c-2.5,2.5-2.5,6.5,0,8.9s6.5,2.5,8.9,0
		l13.9-13.9l13.9,13.9c2.5,2.5,6.5,2.5,8.9,0c0,0,0,0,0,0l8.6-8.6L10.4,159.3z"/>
	<path class="st0" d="M204.1,73.1l-61.8-61.8c-4.9-4.9-12.9-4.9-17.9,0L109.9,26c-4.9,4.9-4.9,12.9,0,17.8c0,0,0,0,0,0l26.4,26.4
		l-66.1,66.1l-26.4-26.4c-4.9-4.9-12.9-4.9-17.8,0l-14.7,14.7c-4.9,4.9-4.9,12.9,0,17.9l61.8,61.8c4.9,4.9,12.9,4.9,17.9,0
		l14.6-14.6c4.9-4.9,4.9-12.9,0-17.9l-26.4-26.4l66.1-66.1l26.4,26.4c4.9,4.9,12.9,4.9,17.9,0l14.6-14.6
		C209.1,86,209.1,78,204.1,73.1C204.1,73.1,204.1,73.1,204.1,73.1L204.1,73.1z"/>
</g>
</svg>
