<?xml version="1.0" encoding="utf-8"?>
<!-- Generator: Adobe Illustrator 26.0.3, SVG Export Plug-In . SVG Version: 6.00 Build 0)  -->
<svg version="1.1" id="Layer_1" xmlns="http://www.w3.org/2000/svg" xmlns:xlink="http://www.w3.org/1999/xlink" x="0px" y="0px"
	 viewBox="0 0 207.9 197.7" style="enable-background:new 0 0 207.9 197.7;" xml:space="preserve">
<style type="text/css">
	.st0{fill:#3F3F3F;}
</style>
<g>
	<path class="st0" d="M204.4,87.8l-93.3-85c-4.1-3.7-10.3-3.7-14.4,0l-93.3,85c-4.4,4-4.7,10.7-0.7,15.1c2,2.2,4.9,3.5,7.9,3.5h14.9
		v85.2c0,3.4,2.7,6.1,6.1,6.1l0,0h51.1c3.4,0,6.1-2.7,6.1-6.1l0,0v-51.8H119v51.8c0,3.4,2.7,6.1,6.1,6.1h51.1c3.4,0,6.1-2.7,6.1-6.1
		c0,0,0,0,0,0v-85.2h14.9c5.9,0,10.7-4.8,10.7-10.7C207.9,92.7,206.6,89.8,204.4,87.8L204.4,87.8z"/>
	<path class="st0" d="M180.7,12.2h-41.1l47.2,42.9V18.3C186.8,14.9,184.1,12.2,180.7,12.2C180.7,12.2,180.7,12.2,180.7,12.2z"/>
</g>
</svg>
