<?xml version="1.0" encoding="utf-8"?>
<!-- Generator: Adobe Illustrator 26.0.3, SVG Export Plug-In . SVG Version: 6.00 Build 0)  -->
<svg version="1.1" id="Layer_1" xmlns="http://www.w3.org/2000/svg" xmlns:xlink="http://www.w3.org/1999/xlink" x="0px" y="0px"
	 viewBox="0 0 224.4 168.4" style="enable-background:new 0 0 224.4 168.4;" xml:space="preserve">
<style type="text/css">
	.st0{fill:#3F3F3F;}
</style>
<g>
	<path class="st0" d="M207.4,93c-9.2,0-18-4.2-23.8-11.4c-10.5,13.1-29.8,15.2-42.9,4.7c-1.7-1.4-3.3-3-4.7-4.7
		c-10.5,13.1-29.7,15.2-42.9,4.7c-1.7-1.4-3.3-3-4.7-4.7c-10.5,13.1-29.7,15.2-42.9,4.7c-1.7-1.4-3.3-3-4.7-4.7
		C35.1,88.8,26.3,93,17,93c-1.2,0-2.3-0.1-3.5-0.2v68.1c0,4.1,3.4,7.5,7.5,7.5c0,0,0,0,0,0h11.5V112c0-3.7,3-6.7,6.7-6.7
		c0,0,0,0,0,0H96c3.7,0,6.7,3,6.7,6.7v56.4h100.7c4.1,0,7.5-3.4,7.5-7.5V92.8C209.7,92.9,208.5,93,207.4,93z M191.8,149.4
		c0,3.7-3,6.7-6.7,6.7h-56.6c-3.7,0-6.7-3-6.7-6.7V112c0-3.7,3-6.7,6.7-6.7h56.6c3.7,0,6.7,3,6.7,6.7L191.8,149.4L191.8,149.4z"/>
	<rect x="46.1" y="118.7" class="st0" width="43.1" height="49.6"/>
	<rect x="135.2" y="118.7" class="st0" width="43.1" height="23.9"/>
	<path class="st0" d="M213.4,6c-0.7-3.5-3.8-6-7.4-6h-21.4l5.6,61.8v0.1l0,0c0,0.2,0,0.4,0,0.6c0.2,9.4,7.9,16.9,17.3,16.8
		c9.1-0.2,16.5-7.4,16.8-16.5C223.9,58.8,218.1,29.5,213.4,6z"/>
	<path class="st0" d="M18.4,0c-3.6,0-6.6,2.5-7.3,6C6.4,29.5,0.5,58.8,0,62.7c0.3,9.4,8.1,16.8,17.6,16.5C26.7,79,34,71.6,34.1,62.5
		c0-0.2,0-0.4,0-0.6l0,0v-0.1l0,0L39.8,0H18.4z"/>
	<path class="st0" d="M171.1,0h-30.7l2.3,62.3l0,0c0,0.1,0,0.2,0,0.2c-0.1,9.4,7.5,17.1,16.9,17.2s17.1-7.5,17.2-16.9L171.1,0z"/>
	<path class="st0" d="M84,0H53.4l-5.7,62.8c0.1,9.4,7.8,17,17.2,16.9c9.4-0.1,17-7.8,16.9-17.2l0,0c0-0.1,0-0.2,0-0.2l0,0L84,0z"/>
	<path class="st0" d="M126.9,0H97.5l-2.3,62.6c0,9.4,7.6,17.1,17.1,17.1s17.1-7.6,17.1-17.1L126.9,0z"/>
</g>
</svg>
