<?xml version="1.0" encoding="utf-8"?>
<!-- Generator: Adobe Illustrator 26.0.3, SVG Export Plug-In . SVG Version: 6.00 Build 0)  -->
<svg version="1.1" id="Layer_1" xmlns="http://www.w3.org/2000/svg" xmlns:xlink="http://www.w3.org/1999/xlink" x="0px" y="0px"
	 viewBox="0 0 216.3 216.2" style="enable-background:new 0 0 216.3 216.2;" xml:space="preserve">
<style type="text/css">
	.st0{fill:#444444;}
</style>
<g>
	<path class="st0" d="M6.3,38.4c-3.5,0-6.3,2.8-6.3,6.3v127.1c0,3.5,2.8,6.3,6.3,6.3h0c10.5,0,19-8.5,19-19l0,0V57.4
		C25.3,47,16.8,38.4,6.3,38.4C6.3,38.4,6.3,38.4,6.3,38.4z"/>
	<path class="st0" d="M165.5,152.9v12.7c0,3.5,2.8,6.3,6.3,6.3h38c3.5,0,6.3-2.8,6.3-6.3c0,0,0,0,0,0v-12.7H165.5z"/>
	<path class="st0" d="M165.5,83.2h-29.3c-4.2-4.7-9.5-8.2-15.5-10.3V38h17.4c1.3,0.8,5.6,6.3,14.3,6.3c10.5,0,19-8.5,19-19
		s-8.5-19-19-19c-8.7,0-13,5.5-14.3,6.3h-16.6l-1.5-4.2c-2.3-6.6-9.6-10.1-16.2-7.7c-3.6,1.3-6.5,4.1-7.7,7.7l-1.5,4.2H78.1
		c-1.3-0.8-5.6-6.3-14.3-6.3c-10.5,0-19,8.5-19,19c0,10.5,8.5,19,19,19c8.7,0,13-5.5,14.3-6.3h17.4v34.8C89.5,75,84.2,78.5,80,83.2
		H38v50.7h42c13.8,15.5,37.5,17,53.1,3.2c1.1-1,2.2-2.1,3.2-3.2h16.6c4.4,0,8.5,2.5,10.7,6.3h52.6v-6.3
		C216.3,105.9,193.6,83.2,165.5,83.2C165.6,83.2,165.6,83.2,165.5,83.2z"/>
	<path class="st0" d="M202.6,198.7l-6.2-10.8c-1.1-2-3.2-3.2-5.5-3.2l0,0c-2.3,0-4.4,1.2-5.5,3.2l-6.2,10.9
		c-2.7,6.5,0.4,13.9,6.8,16.6c6.5,2.7,13.9-0.4,16.6-6.8c0.6-1.5,1-3.2,1-4.9C203.6,201.9,203.3,200.2,202.6,198.7z"/>
</g>
</svg>
