<?xml version="1.0" encoding="utf-8"?>
<!-- Generator: Adobe Illustrator 26.0.3, SVG Export Plug-In . SVG Version: 6.00 Build 0)  -->
<svg version="1.1" id="Layer_1" xmlns="http://www.w3.org/2000/svg" xmlns:xlink="http://www.w3.org/1999/xlink" x="0px" y="0px"
	 viewBox="0 0 216.2 215.9" style="enable-background:new 0 0 216.2 215.9;" xml:space="preserve">
<style type="text/css">
	.st0{fill:#3F3F3F;}
</style>
<g>
	<path class="st0" d="M24.8,147.5c18.3,18.3,40.9,28.8,63.6,29.6c49,2.3,91.4-43.8,90.3-90.4c-0.3-23.5-10.4-46.4-28.5-64.5
		c0,0-0.1-0.1-0.1-0.1L24.8,147.5C24.7,147.5,24.7,147.5,24.8,147.5z M153.4,116.2c-2.6,2.6-6.7,2.6-9.3,0c-2.6-2.6-2.6-6.7,0-9.3
		c2.6-2.6,6.7-2.6,9.3,0c0,0,0,0,0,0C155.9,109.5,155.9,113.7,153.4,116.2z M140,69.4c2.6-2.6,6.7-2.6,9.3,0c2.6,2.6,2.6,6.7,0,9.3
		c-2.6,2.6-6.7,2.6-9.3,0c0,0,0,0,0,0C137.5,76.1,137.5,72,140,69.4z M118,151.5c-2.6,2.6-6.7,2.6-9.3,0c-2.6-2.6-2.6-6.7,0-9.3
		c2.6-2.6,6.7-2.6,9.3,0c0,0,0,0,0,0C120.6,144.8,120.6,148.9,118,151.5L118,151.5z M104.8,104.6c2.6-2.6,6.7-2.6,9.3,0
		c2.6,2.6,2.6,6.7,0,9.3c-2.6,2.6-6.7,2.6-9.3,0c0,0,0,0,0,0C102.2,111.4,102.2,107.2,104.8,104.6z M69.5,139.8
		c2.6-2.6,6.7-2.6,9.3,0c2.6,2.6,2.6,6.7,0,9.3s-6.7,2.6-9.3,0c0,0,0,0,0,0C67,146.6,67,142.4,69.5,139.8L69.5,139.8z"/>
	<path class="st0" d="M179.3,2.4c-1.8-2.5-6-3.5-8.6-0.9l-11.1,11.1C257,114,115.6,256.5,15.1,157L1.6,170.5c-2.1,2.1-2.1,5.5,0,7.7
		c0,0,0,0,0,0C123.4,292.1,291.4,123.3,179.3,2.4z"/>
</g>
</svg>
