<?xml version="1.0" encoding="utf-8"?>
<!-- Generator: Adobe Illustrator 26.0.3, SVG Export Plug-In . SVG Version: 6.00 Build 0)  -->
<svg version="1.1" id="Layer_1" xmlns="http://www.w3.org/2000/svg" xmlns:xlink="http://www.w3.org/1999/xlink" x="0px" y="0px"
	 viewBox="0 0 17.4 25.4" style="enable-background:new 0 0 17.4 25.4;" xml:space="preserve">
<style type="text/css">
	.st0{opacity:0.3;fill:#48BA19;enable-background:new    ;}
	.st1{fill:#48BA19;}
</style>
<path class="st0" d="M1,0h4.9c0.6,0,1,0.4,1,1v4.9c0,0.6-0.4,1-1,1H1c-0.6,0-1-0.4-1-1V1C0,0.4,0.4,0,1,0z"/>
<path class="st1" d="M11.6,9.2h4.9c0.6,0,1,0.4,1,1V15c0,0.6-0.4,1-1,1h-4.9c-0.6,0-1-0.4-1-1v-4.9C10.6,9.6,11,9.2,11.6,9.2z"/>
<path class="st0" d="M1,18.5h4.9c0.6,0,1,0.4,1,1v4.9c0,0.6-0.4,1-1,1H1c-0.6,0-1-0.4-1-1v-4.9C0,19,0.4,18.5,1,18.5z"/>
</svg>
