<?xml version="1.0" encoding="utf-8"?>
<!-- Generator: Adobe Illustrator 26.0.3, SVG Export Plug-In . SVG Version: 6.00 Build 0)  -->
<svg version="1.1" id="Layer_1" xmlns="http://www.w3.org/2000/svg" xmlns:xlink="http://www.w3.org/1999/xlink" x="0px" y="0px"
	 viewBox="0 0 159.9 188.6" style="enable-background:new 0 0 159.9 188.6;" xml:space="preserve">
<style type="text/css">
	.st0{fill:#D8A452;}
	.st1{fill:#B77B1A;}
</style>
<g>
	<path class="st0" d="M3.7,187.5c-1.5,0-2.7-1.2-2.7-2.7V3.7c0-0.5,0.1-0.9,0.4-1.4C1.8,1.5,2.7,1,3.7,1C4.1,1,4.6,1.1,5,1.4
		l151.3,88.4c0.8,0.5,1.4,1.1,1.9,1.9c1.5,2.5,0.6,5.7-1.9,7.2L5,187.2C4.6,187.4,4.2,187.5,3.7,187.5z"/>
	<path class="st1" d="M3.7,2C4,2,4.3,2.1,4.5,2.2l151.3,88.4c0.6,0.4,1.1,0.9,1.5,1.5c1.2,2,0.5,4.6-1.5,5.8L4.5,186.3
		c-0.3,0.1-0.5,0.2-0.8,0.2c-0.9,0-1.7-0.8-1.7-1.7V3.7c0-0.3,0.1-0.6,0.2-0.8C2.5,2.3,3.1,2,3.7,2 M3.7,0C2.4,0,1.2,0.6,0.5,1.8
		C0.2,2.4,0,3,0,3.7v181.2c0,2,1.6,3.7,3.7,3.7l0,0c0.6,0,1.3-0.2,1.8-0.5l151.3-88.4c3-1.7,4-5.6,2.2-8.6c-0.5-0.9-1.3-1.7-2.2-2.2
		L5.5,0.5C4.9,0.2,4.3,0,3.7,0L3.7,0z"/>
</g>
</svg>
